<svg width="96" height="22" viewBox="0 0 96 22" fill="none" xmlns="http://www.w3.org/2000/svg">
<path id="Union" fill-rule="evenodd" clip-rule="evenodd" d="M8.78364 2.20545C9.97773 0.137243 12.9629 0.137246 14.157 2.20546L15.8276 5.09893L12.7847 10.9311H9.05538C8.69977 10.9311 8.37087 11.1198 8.19141 11.4269L2.43544 21.2738C0.453199 20.8454 -0.657368 18.5578 0.42026 16.6913L8.78364 2.20545ZM14.2786 12.3948L17.0134 7.15293L22.5204 16.6913C23.7145 18.7595 22.2219 21.3447 19.8337 21.3447H4.71235L9.62957 12.9326H13.3913C13.7642 12.9326 14.1061 12.7253 14.2786 12.3948ZM55.9423 4.63967L54.169 6.8221L54.1674 6.82356C54.1674 6.82356 54.0804 6.94229 54.0804 7.18362C54.0804 7.43544 54.1643 7.64528 54.3322 7.81316C54.5001 7.98104 54.7099 8.06498 54.9617 8.06498H55.6857V12.4088C55.6857 12.923 55.7644 13.3269 55.9218 13.6207C56.0792 13.9145 56.2733 14.1348 56.5042 14.2817C56.7455 14.4181 56.9973 14.5073 57.2596 14.5493C57.5324 14.5807 57.779 14.5965 57.9993 14.5965C58.3666 14.5965 58.7076 14.5021 59.0224 14.3132C59.3476 14.1243 59.5103 13.883 59.5103 13.5892C59.5103 13.3479 59.4473 13.159 59.3214 13.0226C59.206 12.8862 59.0748 12.818 58.9279 12.818C58.7915 12.818 58.6709 12.8443 58.5659 12.8967C58.461 12.9387 58.3456 12.9597 58.2197 12.9597C58.1043 12.9597 57.9941 12.9387 57.8892 12.8967C57.7947 12.8547 57.716 12.7866 57.6531 12.6921C57.6006 12.5977 57.5744 12.477 57.5744 12.3301V8.06498H58.6918C58.9437 8.06498 59.1535 7.98629 59.3214 7.8289C59.4893 7.66102 59.5732 7.45642 59.5732 7.2151C59.5732 6.96328 59.4893 6.75343 59.3214 6.58555C59.1535 6.41767 58.9437 6.33373 58.6918 6.33373H57.5744V5.32647C57.5744 5.05366 57.4852 4.82808 57.3068 4.64971C57.1389 4.46084 56.9186 4.36641 56.6458 4.36641C56.373 4.36641 56.1422 4.46084 55.9533 4.64971L55.9408 4.66239L55.9423 4.63967ZM34.1529 6.01896C34.4257 6.01896 34.6513 6.10815 34.8296 6.28652C35.008 6.46489 35.0972 6.69572 35.0972 6.97902V13.6364C35.0972 13.9092 35.008 14.1401 34.8296 14.3289C34.6513 14.5073 34.4257 14.5965 34.1529 14.5965C33.8801 14.5965 33.6545 14.5073 33.4761 14.3289C33.3025 14.1452 33.2134 13.9216 33.2087 13.6584C33.0799 13.798 32.9225 13.9375 32.7364 14.0771C32.4845 14.266 32.1855 14.4286 31.8393 14.565C31.5035 14.6909 31.1363 14.7539 30.7375 14.7539C30.0136 14.7539 29.3578 14.5703 28.7702 14.203C28.1826 13.8253 27.7157 13.3112 27.3694 12.6606C27.0337 11.9996 26.8658 11.2442 26.8658 10.3943C26.8658 9.53391 27.0337 8.77846 27.3694 8.12793C27.7157 7.46691 28.1774 6.95279 28.7545 6.58555C29.3315 6.20783 29.9716 6.01896 30.6746 6.01896C31.1258 6.01896 31.5402 6.08716 31.9179 6.22357C32.2957 6.35997 32.6209 6.53309 32.8938 6.74294C33.0102 6.82919 33.1151 6.91634 33.2085 7.00437V6.97902C33.2085 6.70621 33.2977 6.48063 33.4761 6.30226C33.6545 6.11339 33.8801 6.01896 34.1529 6.01896ZM30.9736 13.0226C31.4353 13.0226 31.8393 12.9072 32.1855 12.6764C32.5318 12.4455 32.7993 12.1308 32.9882 11.7321C33.1875 11.3334 33.2872 10.8874 33.2872 10.3943C33.2872 9.89065 33.1875 9.43948 32.9882 9.04077C32.7993 8.64206 32.5318 8.32729 32.1855 8.09646C31.8393 7.86562 31.4353 7.75021 30.9736 7.75021C30.5224 7.75021 30.1237 7.86562 29.7775 8.09646C29.4312 8.32729 29.1584 8.64206 28.9591 9.04077C28.7702 9.43948 28.6758 9.89065 28.6758 10.3943C28.6758 10.8874 28.7702 11.3334 28.9591 11.7321C29.1584 12.1308 29.4312 12.4455 29.7775 12.6764C30.1237 12.9072 30.5224 13.0226 30.9736 13.0226ZM40.8741 6.01896C41.6085 6.01896 42.2643 6.20783 42.8414 6.58555C43.429 6.95279 43.8907 7.46167 44.2264 8.11219C44.5727 8.76272 44.7458 9.51817 44.7458 10.3785C44.7458 11.2389 44.5727 11.9996 44.2264 12.6606C43.8907 13.3112 43.4342 13.8253 42.8571 14.203C42.2905 14.5703 41.6505 14.7539 40.937 14.7539C40.5173 14.7539 40.1238 14.6857 39.7566 14.5493C39.3894 14.4129 39.0641 14.2397 38.7808 14.0299C38.6394 13.9211 38.5135 13.8123 38.4031 13.7036V16.7841C38.4031 17.057 38.3139 17.2825 38.1355 17.4609C37.9571 17.6498 37.7315 17.7442 37.4587 17.7442C37.1859 17.7442 36.9603 17.655 36.782 17.4766C36.6036 17.2983 36.5144 17.0674 36.5144 16.7841V7.1364C36.5144 6.8636 36.6036 6.63801 36.782 6.45964C36.9603 6.27078 37.1859 6.17635 37.4587 6.17635C37.7315 6.17635 37.9571 6.27078 38.1355 6.45964C38.3139 6.63801 38.4031 6.8636 38.4031 7.1364V7.21642C38.5445 7.03864 38.7281 6.86507 38.9539 6.69572C39.2057 6.49637 39.4943 6.33373 39.8196 6.20783C40.1553 6.08192 40.5068 6.01896 40.8741 6.01896ZM40.638 7.75021C40.1763 7.75021 39.7723 7.86562 39.4261 8.09646C39.0798 8.32729 38.807 8.64206 38.6077 9.04077C38.4188 9.42899 38.3244 9.87491 38.3244 10.3785C38.3244 10.8717 38.4188 11.3229 38.6077 11.7321C38.807 12.1308 39.0798 12.4455 39.4261 12.6764C39.7723 12.9072 40.1763 13.0226 40.638 13.0226C41.0996 13.0226 41.4984 12.9072 41.8341 12.6764C42.1804 12.4455 42.4479 12.1308 42.6368 11.7321C42.8362 11.3229 42.9358 10.8717 42.9358 10.3785C42.9358 9.87491 42.8362 9.42899 42.6368 9.04077C42.4479 8.64206 42.1804 8.32729 41.8341 8.09646C41.4984 7.86562 41.0996 7.75021 40.638 7.75021ZM52.0179 6.58555C51.4408 6.20783 50.785 6.01896 50.0505 6.01896C49.6833 6.01896 49.3318 6.08192 48.996 6.20783C48.6707 6.33373 48.3822 6.49637 48.1304 6.69572C47.9046 6.86507 47.721 7.03864 47.5795 7.21642V7.1364C47.5795 6.8636 47.4903 6.63801 47.312 6.45964C47.1336 6.27078 46.908 6.17635 46.6352 6.17635C46.3624 6.17635 46.1368 6.27078 45.9584 6.45964C45.78 6.63801 45.6909 6.8636 45.6909 7.1364V16.7841C45.6909 17.0674 45.78 17.2983 45.9584 17.4766C46.1368 17.655 46.3624 17.7442 46.6352 17.7442C46.908 17.7442 47.1336 17.6498 47.312 17.4609C47.4903 17.2825 47.5795 17.057 47.5795 16.7841V13.7036C47.6899 13.8123 47.8158 13.9211 47.9572 14.0299C48.2405 14.2397 48.5658 14.4129 48.9331 14.5493C49.3003 14.6857 49.6938 14.7539 50.1135 14.7539C50.827 14.7539 51.467 14.5703 52.0336 14.203C52.6107 13.8253 53.0671 13.3112 53.4029 12.6606C53.7491 11.9996 53.9222 11.2389 53.9222 10.3785C53.9222 9.51817 53.7491 8.76272 53.4029 8.11219C53.0671 7.46167 52.6054 6.95279 52.0179 6.58555ZM48.6025 8.09646C48.9488 7.86562 49.3528 7.75021 49.8144 7.75021C50.2761 7.75021 50.6748 7.86562 51.0106 8.09646C51.3568 8.32729 51.6244 8.64206 51.8133 9.04077C52.0126 9.42899 52.1123 9.87491 52.1123 10.3785C52.1123 10.8717 52.0126 11.3229 51.8133 11.7321C51.6244 12.1308 51.3568 12.4455 51.0106 12.6764C50.6748 12.9072 50.2761 13.0226 49.8144 13.0226C49.3528 13.0226 48.9488 12.9072 48.6025 12.6764C48.2563 12.4455 47.9835 12.1308 47.7841 11.7321C47.5953 11.3229 47.5008 10.8717 47.5008 10.3785C47.5008 9.87491 47.5953 9.42899 47.7841 9.04077C47.9835 8.64206 48.2563 8.32729 48.6025 8.09646ZM71.6326 6.45964C71.4542 6.27078 71.2443 6.17635 71.003 6.17635C70.5204 6.17635 70.2161 6.3757 70.0902 6.77442L68.4034 11.2998L67.1942 8.01776C67.1208 7.8289 67.0211 7.68725 66.8952 7.59282C66.7798 7.4879 66.6066 7.43544 66.3758 7.43544C65.9666 7.43544 65.6781 7.62954 65.5102 8.01776L64.2688 11.3873L62.567 6.77442C62.5041 6.56457 62.3939 6.41243 62.2365 6.318C62.0791 6.22356 61.9007 6.17635 61.7014 6.17635C61.4076 6.17635 61.1768 6.27603 61.0089 6.47538C60.841 6.67474 60.7571 6.90032 60.7571 7.15214C60.7571 7.27805 60.778 7.39871 60.82 7.51413L63.2281 13.9984C63.3015 14.2083 63.4327 14.3709 63.6215 14.4863C63.8209 14.5912 64.0202 14.628 64.2196 14.5965C64.5763 14.5755 64.8439 14.3761 65.0223 13.9984L66.2901 10.1269L67.6349 13.9984C67.8133 14.3761 68.0808 14.5755 68.4376 14.5965C68.6474 14.628 68.8468 14.5912 69.0357 14.4863C69.2245 14.3709 69.3557 14.2083 69.4291 13.9984L71.8372 7.51413C71.8582 7.46167 71.8739 7.4092 71.8844 7.35674C71.8949 7.29379 71.9001 7.22559 71.9001 7.15214C71.9001 6.86885 71.8109 6.63801 71.6326 6.45964ZM79.6355 6.01896C79.9083 6.01896 80.1339 6.10815 80.3123 6.28652C80.4906 6.46489 80.5798 6.69572 80.5798 6.97902V13.6364C80.5798 13.9092 80.4906 14.1401 80.3123 14.3289C80.1339 14.5073 79.9083 14.5965 79.6355 14.5965C79.3627 14.5965 79.1371 14.5073 78.9587 14.3289C78.7852 14.1451 78.696 13.9216 78.6914 13.6584C78.5626 13.7979 78.4051 13.9375 78.219 14.0771C77.9672 14.266 77.6681 14.4286 77.3219 14.565C76.9861 14.6909 76.6189 14.7539 76.2202 14.7539C75.4962 14.7539 74.8404 14.5703 74.2528 14.203C73.6652 13.8253 73.1983 13.3112 72.8521 12.6606C72.5163 11.9996 72.3484 11.2442 72.3484 10.3943C72.3484 9.53391 72.5163 8.77846 72.8521 8.12793C73.1983 7.46691 73.66 6.95279 74.2371 6.58555C74.8142 6.20783 75.4542 6.01896 76.1572 6.01896C76.6084 6.01896 77.0229 6.08716 77.4006 6.22357C77.7783 6.35997 78.1036 6.53309 78.3764 6.74294C78.4928 6.8292 78.5978 6.91634 78.6912 7.00437V6.97902C78.6912 6.70621 78.7804 6.48063 78.9587 6.30226C79.1371 6.11339 79.3627 6.01896 79.6355 6.01896ZM76.4563 13.0226C76.9179 13.0226 77.3219 12.9072 77.6681 12.6764C78.0144 12.4455 78.282 12.1308 78.4708 11.7321C78.6702 11.3334 78.7699 10.8874 78.7699 10.3943C78.7699 9.89065 78.6702 9.43948 78.4708 9.04077C78.282 8.64206 78.0144 8.32729 77.6681 8.09646C77.3219 7.86562 76.9179 7.75021 76.4563 7.75021C76.0051 7.75021 75.6064 7.86562 75.2601 8.09646C74.9139 8.32729 74.6411 8.64206 74.4417 9.04077C74.2528 9.43948 74.1584 9.89065 74.1584 10.3943C74.1584 10.8874 74.2528 11.3334 74.4417 11.7321C74.6411 12.1308 74.9139 12.4455 75.2601 12.6764C75.6064 12.9072 76.0051 13.0226 76.4563 13.0226ZM82.2646 14.3289C82.443 14.5073 82.6686 14.5965 82.9414 14.5965C83.2142 14.5965 83.4398 14.5073 83.6181 14.3289C83.7965 14.1401 83.8857 13.9092 83.8857 13.6364V9.90639C83.8857 9.52867 83.9329 9.2034 84.0274 8.9306C84.1323 8.64731 84.2634 8.41123 84.4208 8.22236C84.5887 8.0335 84.7671 7.8971 84.9559 7.81316C85.1553 7.71873 85.3494 7.67151 85.5383 7.67151C85.7481 7.67151 85.9317 7.70824 86.0891 7.78168C86.257 7.85513 86.4406 7.89185 86.64 7.89185C86.8498 7.89185 87.044 7.81841 87.2223 7.67151C87.4007 7.51413 87.4899 7.26231 87.4899 6.91606C87.4899 6.67474 87.3797 6.46489 87.1594 6.28652C86.9495 6.10815 86.6872 6.01896 86.3724 6.01896C86.1101 6.01896 85.8478 6.05044 85.5855 6.11339C85.3232 6.17635 85.0766 6.27603 84.8458 6.41243C84.6149 6.53834 84.4051 6.70097 84.2162 6.90032C84.0904 7.03356 83.9802 7.18246 83.8857 7.34703V7.1364C83.8857 6.8636 83.7965 6.63801 83.6181 6.45964C83.4398 6.27078 83.2142 6.17635 82.9414 6.17635C82.6686 6.17635 82.443 6.27078 82.2646 6.45964C82.0862 6.63801 81.997 6.8636 81.997 7.1364V13.6364C81.997 13.9092 82.0862 14.1401 82.2646 14.3289ZM91.7257 14.7539C90.8338 14.7539 90.0574 14.5703 89.3964 14.203C88.7458 13.8253 88.2422 13.3164 87.8854 12.6764C87.5392 12.0363 87.3661 11.3124 87.3661 10.5045C87.3661 9.56014 87.5549 8.75747 87.9327 8.09646C88.3209 7.42494 88.8245 6.91082 89.4436 6.55407C90.0626 6.19733 90.7184 6.01896 91.4109 6.01896C91.9461 6.01896 92.4497 6.12913 92.9219 6.34947C93.4045 6.56981 93.8295 6.87409 94.1967 7.26231C94.5639 7.64004 94.8525 8.08072 95.0623 8.58435C95.2827 9.08799 95.3928 9.6231 95.3928 10.1897C95.3824 10.4415 95.2827 10.6461 95.0938 10.8035C94.9049 10.9609 94.6846 11.0396 94.4328 11.0396H89.2355C89.2915 11.3307 89.3871 11.593 89.5223 11.8265C89.7636 12.2147 90.0679 12.5137 90.4351 12.7236C90.8129 12.923 91.2116 13.0226 91.6313 13.0226C92.0195 13.0226 92.329 12.9912 92.5599 12.9282C92.7907 12.8652 92.9743 12.7918 93.1107 12.7079C93.2576 12.6134 93.3888 12.5347 93.5042 12.4718C93.6931 12.3773 93.8714 12.3301 94.0393 12.3301C94.2701 12.3301 94.459 12.4088 94.6059 12.5662C94.7633 12.7236 94.842 12.9072 94.842 13.1171C94.842 13.4004 94.6951 13.6574 94.4013 13.8883C94.1285 14.1191 93.7455 14.3237 93.2524 14.5021C92.7592 14.6699 92.2503 14.7539 91.7257 14.7539ZM89.3492 9.10372C89.311 9.21465 89.2792 9.33531 89.2537 9.46571H93.3783V9.35554C93.3573 9.05126 93.2471 8.77846 93.0478 8.53714C92.8589 8.29581 92.6176 8.10695 92.3238 7.97055C92.0405 7.82365 91.7362 7.75021 91.4109 7.75021C91.0962 7.75021 90.8024 7.79218 90.5296 7.87611C90.2568 7.96005 90.0207 8.1017 89.8213 8.30106C89.622 8.50041 89.4646 8.76797 89.3492 9.10372Z" fill="#FCFCFD"/>
</svg>
