<svg width="697" height="360" viewBox="0 0 697 360" fill="none" xmlns="http://www.w3.org/2000/svg">
<path d="M166.806 0.512728H174.013V24.5595C174.013 26.7823 173.514 28.7133 172.514 30.3523C171.526 31.9913 170.151 33.2543 168.389 34.1412C166.626 35.0281 164.577 35.4715 162.242 35.4715C160.165 35.4715 158.279 35.1067 156.584 34.3769C154.9 33.636 153.564 32.5134 152.576 31.009C151.589 29.4935 151.1 27.5906 151.111 25.3005H158.369C158.392 26.2098 158.577 26.99 158.925 27.6411C159.284 28.281 159.773 28.775 160.39 29.123C161.019 29.4598 161.76 29.6282 162.613 29.6282C163.511 29.6282 164.269 29.4374 164.886 29.0557C165.515 28.6627 165.992 28.0902 166.317 27.338C166.643 26.5859 166.806 25.6597 166.806 24.5595V0.512728ZM187.283 35.4883C185.632 35.4883 184.162 35.2021 182.871 34.6295C181.58 34.0458 180.558 33.1869 179.806 32.0531C179.065 30.908 178.694 29.4823 178.694 27.7759C178.694 26.3389 178.958 25.1321 179.486 24.1554C180.014 23.1787 180.732 22.3928 181.641 21.7978C182.551 21.2028 183.584 20.7538 184.74 20.4507C185.907 20.1476 187.131 19.9343 188.411 19.8108C189.915 19.6536 191.128 19.5077 192.048 19.373C192.969 19.227 193.637 19.0137 194.052 18.7331C194.467 18.4524 194.675 18.037 194.675 17.4869V17.3859C194.675 16.3194 194.338 15.4943 193.665 14.9105C193.002 14.3267 192.059 14.0348 190.836 14.0348C189.545 14.0348 188.518 14.3211 187.754 14.8937C186.991 15.455 186.486 16.1622 186.239 17.0154L179.604 16.4766C179.941 14.9049 180.603 13.5465 181.591 12.4014C182.579 11.2451 183.853 10.3582 185.413 9.74077C186.985 9.11209 188.804 8.79776 190.869 8.79776C192.306 8.79776 193.682 8.96615 194.995 9.30294C196.32 9.63973 197.493 10.1618 198.515 10.869C199.547 11.5763 200.361 12.4856 200.956 13.597C201.551 14.6972 201.849 16.0163 201.849 17.5543V35H195.046V31.4132H194.844C194.428 32.2215 193.872 32.9344 193.176 33.5518C192.48 34.158 191.644 34.6351 190.667 34.9832C189.691 35.32 188.562 35.4883 187.283 35.4883ZM189.337 30.5375C190.392 30.5375 191.324 30.3298 192.132 29.9145C192.941 29.4879 193.575 28.9153 194.035 28.1968C194.496 27.4784 194.726 26.6645 194.726 25.7551V23.0103C194.501 23.1562 194.192 23.2909 193.8 23.4144C193.418 23.5267 192.986 23.6333 192.503 23.7344C192.02 23.8242 191.537 23.9084 191.055 23.987C190.572 24.0543 190.134 24.1161 189.741 24.1722C188.899 24.2957 188.164 24.4922 187.535 24.7616C186.907 25.031 186.418 25.3959 186.07 25.8562C185.722 26.3052 185.548 26.8665 185.548 27.5401C185.548 28.5168 185.902 29.2633 186.609 29.7798C187.328 30.2849 188.237 30.5375 189.337 30.5375ZM214.588 20.0465V35H207.414V9.13455H214.251V13.698H214.554C215.127 12.1937 216.087 11.0037 217.434 10.1281C218.781 9.2412 220.414 8.79776 222.334 8.79776C224.13 8.79776 225.696 9.19068 227.032 9.97652C228.368 10.7624 229.407 11.885 230.148 13.3444C230.888 14.7926 231.259 16.5215 231.259 18.531V35H224.085V19.8108C224.097 18.2279 223.692 16.993 222.873 16.1061C222.053 15.208 220.925 14.7589 219.488 14.7589C218.523 14.7589 217.669 14.9666 216.929 15.382C216.199 15.7974 215.626 16.4036 215.211 17.2007C214.807 17.9865 214.599 18.9351 214.588 20.0465ZM262.825 0.512728V35H255.533V7.43376H255.331L247.433 12.3846V5.9182L255.971 0.512728H262.825ZM272.385 35L286.682 6.70966V6.47391H270.028V0.512728H294.226V6.5581L279.912 35H272.385ZM326.381 14.9105V20.6022H310.653V14.9105H326.381ZM357.412 0.512728H364.619V24.5595C364.619 26.7823 364.12 28.7133 363.121 30.3523C362.133 31.9913 360.757 33.2543 358.995 34.1412C357.232 35.0281 355.184 35.4715 352.848 35.4715C350.772 35.4715 348.886 35.1067 347.19 34.3769C345.506 33.636 344.171 32.5134 343.183 31.009C342.195 29.4935 341.706 27.5906 341.718 25.3005H348.975C348.998 26.2098 349.183 26.99 349.531 27.6411C349.89 28.281 350.379 28.775 350.996 29.123C351.625 29.4598 352.366 29.6282 353.219 29.6282C354.117 29.6282 354.875 29.4374 355.492 29.0557C356.121 28.6627 356.598 28.0902 356.924 27.338C357.249 26.5859 357.412 25.6597 357.412 24.5595V0.512728ZM377.889 35.4883C376.239 35.4883 374.768 35.2021 373.477 34.6295C372.186 34.0458 371.164 33.1869 370.412 32.0531C369.671 30.908 369.301 29.4823 369.301 27.7759C369.301 26.3389 369.564 25.1321 370.092 24.1554C370.62 23.1787 371.338 22.3928 372.248 21.7978C373.157 21.2028 374.19 20.7538 375.346 20.4507C376.514 20.1476 377.737 19.9343 379.017 19.8108C380.521 19.6536 381.734 19.5077 382.654 19.373C383.575 19.227 384.243 19.0137 384.658 18.7331C385.074 18.4524 385.281 18.037 385.281 17.4869V17.3859C385.281 16.3194 384.945 15.4943 384.271 14.9105C383.609 14.3267 382.666 14.0348 381.442 14.0348C380.151 14.0348 379.124 14.3211 378.36 14.8937C377.597 15.455 377.092 16.1622 376.845 17.0154L370.21 16.4766C370.547 14.9049 371.209 13.5465 372.197 12.4014C373.185 11.2451 374.459 10.3582 376.02 9.74077C377.591 9.11209 379.41 8.79776 381.476 8.79776C382.913 8.79776 384.288 8.96615 385.601 9.30294C386.926 9.63973 388.099 10.1618 389.121 10.869C390.154 11.5763 390.967 12.4856 391.562 13.597C392.157 14.6972 392.455 16.0163 392.455 17.5543V35H385.652V31.4132H385.45C385.034 32.2215 384.479 32.9344 383.783 33.5518C383.087 34.158 382.25 34.6351 381.274 34.9832C380.297 35.32 379.169 35.4883 377.889 35.4883ZM379.943 30.5375C380.998 30.5375 381.93 30.3298 382.739 29.9145C383.547 29.4879 384.181 28.9153 384.641 28.1968C385.102 27.4784 385.332 26.6645 385.332 25.7551V23.0103C385.107 23.1562 384.799 23.2909 384.406 23.4144C384.024 23.5267 383.592 23.6333 383.109 23.7344C382.626 23.8242 382.144 23.9084 381.661 23.987C381.178 24.0543 380.74 24.1161 380.347 24.1722C379.505 24.2957 378.77 24.4922 378.141 24.7616C377.513 25.031 377.024 25.3959 376.676 25.8562C376.328 26.3052 376.154 26.8665 376.154 27.5401C376.154 28.5168 376.508 29.2633 377.215 29.7798C377.934 30.2849 378.843 30.5375 379.943 30.5375ZM405.194 20.0465V35H398.02V9.13455H404.857V13.698H405.16C405.733 12.1937 406.693 11.0037 408.04 10.1281C409.387 9.2412 411.02 8.79776 412.94 8.79776C414.736 8.79776 416.302 9.19068 417.638 9.97652C418.974 10.7624 420.013 11.885 420.754 13.3444C421.495 14.7926 421.865 16.5215 421.865 18.531V35H414.691V19.8108C414.703 18.2279 414.299 16.993 413.479 16.1061C412.66 15.208 411.531 14.7589 410.094 14.7589C409.129 14.7589 408.276 14.9666 407.535 15.382C406.805 15.7974 406.232 16.4036 405.817 17.2007C405.413 17.9865 405.205 18.9351 405.194 20.0465ZM453.431 0.512728V35H446.139V7.43376H445.937L438.039 12.3846V5.9182L446.577 0.512728H453.431ZM474.105 0.0412217C475.879 0.0412217 477.586 0.338719 479.225 0.933713C480.875 1.52871 482.346 2.47734 483.637 3.77959C484.939 5.08184 485.966 6.8107 486.718 8.96615C487.482 11.1104 487.869 13.743 487.88 16.8639C487.88 19.7939 487.549 22.4097 486.887 24.7111C486.235 27.0012 485.298 28.949 484.074 30.5544C482.851 32.1597 481.374 33.3834 479.646 34.2254C477.917 35.0561 475.986 35.4715 473.853 35.4715C471.551 35.4715 469.519 35.0281 467.757 34.1412C465.994 33.2431 464.574 32.025 463.497 30.487C462.43 28.9378 461.785 27.1977 461.56 25.2668H468.75C469.031 26.5241 469.62 27.5008 470.519 28.1968C471.417 28.8817 472.528 29.2241 473.853 29.2241C476.098 29.2241 477.804 28.2474 478.972 26.294C480.14 24.3294 480.729 21.6407 480.74 18.2279H480.504C479.988 19.2382 479.292 20.1083 478.416 20.838C477.541 21.5565 476.536 22.1122 475.402 22.5051C474.279 22.898 473.084 23.0945 471.815 23.0945C469.783 23.0945 467.97 22.6174 466.376 21.6631C464.782 20.7089 463.525 19.3954 462.604 17.7227C461.683 16.05 461.223 14.1415 461.223 11.9973C461.212 9.68464 461.745 7.62461 462.823 5.81717C463.901 4.00973 465.405 2.59521 467.336 1.57362C469.278 0.540793 471.535 0.029995 474.105 0.0412217ZM474.156 5.76665C473.022 5.76665 472.012 6.03608 471.125 6.57494C470.249 7.11381 469.553 7.83791 469.037 8.74724C468.532 9.65657 468.285 10.6726 468.296 11.7952C468.296 12.929 468.543 13.9506 469.037 14.86C469.542 15.7581 470.227 16.4766 471.091 17.0154C471.967 17.5431 472.966 17.8069 474.089 17.8069C474.931 17.8069 475.711 17.6497 476.429 17.3354C477.148 17.021 477.771 16.5888 478.298 16.0387C478.837 15.4774 479.258 14.8319 479.561 14.1022C479.865 13.3725 480.016 12.5979 480.016 11.7783C480.005 10.6894 479.747 9.69025 479.241 8.78092C478.736 7.87159 478.04 7.14187 477.153 6.59178C476.266 6.04169 475.267 5.76665 474.156 5.76665Z" fill="black" fill-opacity="0.36"/>
<path d="M296.451 359.08C274.417 359.08 255.239 355.816 238.918 349.288C222.596 342.759 209.947 333.102 200.97 320.317C192.266 307.532 187.913 292.163 187.913 274.209C187.913 262.784 189.954 252.447 194.034 243.198C198.386 233.95 204.643 225.517 212.804 217.9C220.964 210.284 230.757 203.211 242.182 196.682C232.661 186.345 225.725 176.553 221.372 167.304C217.292 157.783 215.252 148.398 215.252 139.149C215.252 126.092 218.652 113.987 225.453 102.834C232.253 91.6813 242.59 82.7045 256.463 75.904C270.608 68.8314 288.29 65.295 309.508 65.295C329.094 65.295 345.415 68.6953 358.472 75.4959C371.529 82.2965 381.458 91.2733 388.259 102.426C395.059 113.307 398.459 125.004 398.459 137.517C398.459 148.126 396.283 157.783 391.931 166.488C387.579 174.92 381.322 182.673 373.161 189.746C365.001 196.818 355.344 203.755 344.191 210.556L383.362 250.543C384.45 248.911 387.035 244.831 391.115 238.302C395.467 231.773 399.82 222.525 404.172 210.556C404.988 207.291 407.708 205.659 412.333 205.659H463.745C466.193 205.659 468.098 206.339 469.458 207.699C470.818 209.059 471.498 210.964 471.498 213.412C471.498 218.036 470.002 223.885 467.009 230.957C464.017 237.758 460.209 245.103 455.584 252.991C450.96 260.608 446.064 267.953 440.895 275.025C435.727 282.098 430.966 288.218 426.614 293.387L473.538 341.943C475.17 343.847 475.986 345.887 475.986 348.063C475.986 349.968 475.306 351.6 473.946 352.96C472.586 354.32 470.818 355 468.642 355H399.276C396.555 355 394.379 354.592 392.747 353.776C391.387 352.688 390.163 351.736 389.075 350.92L374.385 337.454C362.96 345.615 350.855 351.328 338.07 354.592C325.557 357.584 311.684 359.08 296.451 359.08ZM296.451 299.099C303.251 299.099 309.372 298.419 314.812 297.059C320.525 295.427 325.557 292.707 329.91 288.898L284.618 243.198C279.177 246.191 274.553 249.999 270.745 254.623C266.936 259.248 265.032 264.552 265.032 270.537C265.032 276.249 266.528 281.282 269.52 285.634C272.785 289.986 276.729 293.387 281.353 295.835C286.25 298.011 291.282 299.099 296.451 299.099ZM303.795 167.304C308.964 164.856 313.452 162.407 317.261 159.959C321.341 157.239 324.469 154.247 326.645 150.982C328.822 147.718 329.91 144.182 329.91 140.374C329.91 134.389 328.005 129.629 324.197 126.092C320.389 122.556 315.356 120.788 309.1 120.788C303.931 120.788 299.171 122.556 294.819 126.092C290.738 129.629 288.698 134.389 288.698 140.374C288.698 143.094 289.106 145.814 289.922 148.534C291.01 151.254 292.778 154.247 295.227 157.511C297.675 160.503 300.531 163.768 303.795 167.304Z" fill="black" fill-opacity="0.11"/>
<path d="M4.11191 205C2.95325 205 1.95259 204.631 1.10994 203.894C0.372609 203.051 0.00394589 202.051 0.00394589 200.892V187.146C0.00394589 186.409 0.161944 185.198 0.477941 183.512C0.899271 181.827 2.05793 180.3 3.95391 178.93L13.1178 170.24C22.8084 162.972 30.8663 156.863 37.2916 151.912C43.7169 146.962 48.5095 142.643 51.6695 138.957C54.9348 135.27 56.5674 131.847 56.5674 128.687C56.5674 126.159 55.9354 123.999 54.6714 122.209C53.5128 120.313 51.1428 119.365 47.5615 119.365C44.9282 119.365 42.8216 119.944 41.2416 121.103C39.6616 122.261 38.4503 123.683 37.6076 125.369C36.8703 127.054 36.291 128.634 35.8696 130.109C35.4483 131.583 34.711 132.584 33.6576 133.111C32.6043 133.532 31.393 133.743 30.0237 133.743H5.3759C4.32257 133.743 3.47991 133.427 2.84792 132.795C2.21593 132.163 1.89993 131.373 1.89993 130.425C2.00526 124.842 3.16392 119.786 5.3759 115.257C7.69321 110.622 10.8532 106.567 14.8558 103.091C18.8584 99.615 23.5984 96.9816 29.0757 95.191C34.6583 93.295 40.7676 92.347 47.4035 92.347C56.6728 92.347 64.6254 93.769 71.2613 96.613C77.8972 99.457 83.0059 103.46 86.5872 108.621C90.1685 113.782 91.9591 119.944 91.9591 127.107C91.9591 132.584 90.6951 137.693 88.1671 142.433C85.6392 147.067 82.0579 151.544 77.4232 155.862C72.7886 160.181 67.3113 164.605 60.9914 169.134L53.2495 176.718H90.2211C91.3798 176.718 92.3278 177.14 93.0651 177.982C93.9078 178.825 94.3291 179.826 94.3291 180.984V200.892C94.3291 202.051 93.9078 203.051 93.0651 203.894C92.3278 204.631 91.3798 205 90.2211 205H4.11191ZM161.29 205C160.131 205 159.13 204.631 158.288 203.894C157.55 203.051 157.182 202.051 157.182 200.892V185.25H108.992C107.833 185.25 106.833 184.882 105.99 184.144C105.253 183.302 104.884 182.301 104.884 181.142V162.34C104.884 161.182 105.042 160.234 105.358 159.496C105.779 158.654 106.201 157.969 106.622 157.442L151.968 97.087C153.442 95.2963 155.391 94.401 157.814 94.401H185.779C186.938 94.401 187.886 94.8223 188.623 95.665C189.466 96.4023 189.887 97.3503 189.887 98.509V157.442H203.791C205.055 157.442 206.056 157.864 206.793 158.706C207.531 159.444 207.899 160.392 207.899 161.55V181.142C207.899 182.301 207.478 183.302 206.635 184.144C205.898 184.882 204.95 185.25 203.791 185.25H189.887V200.892C189.887 202.051 189.466 203.051 188.623 203.894C187.886 204.631 186.938 205 185.779 205H161.29ZM136.484 158.864H158.13V128.845L136.484 158.864Z" fill="black" fill-opacity="0.36"/>
<path d="M163.986 166L163.986 143.149H168.817V152.577L178.625 152.577V143.149H183.445L183.445 166L178.625 166V156.561L168.817 156.561L168.817 166H163.986ZM195.082 166.335C193.349 166.335 191.85 165.967 190.586 165.23C189.329 164.486 188.358 163.452 187.674 162.128C186.989 160.797 186.647 159.253 186.647 157.498C186.647 155.728 186.989 154.18 187.674 152.856C188.358 151.525 189.329 150.491 190.586 149.754C191.85 149.011 193.349 148.639 195.082 148.639C196.816 148.639 198.311 149.011 199.568 149.754C200.832 150.491 201.807 151.525 202.491 152.856C203.176 154.18 203.518 155.728 203.518 157.498C203.518 159.253 203.176 160.797 202.491 162.128C201.807 163.452 200.832 164.486 199.568 165.23C198.311 165.967 196.816 166.335 195.082 166.335ZM195.105 162.653C195.893 162.653 196.552 162.43 197.08 161.983C197.608 161.529 198.006 160.912 198.274 160.131C198.549 159.35 198.686 158.461 198.686 157.464C198.686 156.468 198.549 155.579 198.274 154.798C198.006 154.017 197.608 153.399 197.08 152.946C196.552 152.492 195.893 152.265 195.105 152.265C194.309 152.265 193.639 152.492 193.096 152.946C192.561 153.399 192.155 154.017 191.88 154.798C191.612 155.579 191.479 156.468 191.479 157.464C191.479 158.461 191.612 159.35 191.88 160.131C192.155 160.912 192.561 161.529 193.096 161.983C193.639 162.43 194.309 162.653 195.105 162.653ZM217.599 158.703L217.599 148.862L222.352 148.862L222.352 166H217.788V162.887H217.61C217.223 163.891 216.58 164.698 215.68 165.308C214.787 165.918 213.697 166.223 212.41 166.223C211.265 166.223 210.257 165.963 209.387 165.442C208.516 164.921 207.836 164.181 207.345 163.222C206.861 162.262 206.616 161.113 206.608 159.774L206.608 148.862H211.362V158.926C211.369 159.938 211.64 160.737 212.176 161.325C212.712 161.913 213.429 162.206 214.329 162.206C214.902 162.206 215.438 162.076 215.936 161.816C216.435 161.548 216.836 161.154 217.141 160.633C217.454 160.112 217.606 159.469 217.599 158.703ZM226.154 166L226.154 148.862H230.762V151.852H230.94C231.253 150.788 231.777 149.985 232.514 149.442C233.25 148.892 234.098 148.616 235.058 148.616C235.296 148.616 235.552 148.631 235.828 148.661C236.103 148.691 236.344 148.732 236.553 148.784L236.553 153.001C236.33 152.934 236.021 152.875 235.627 152.823C235.232 152.771 234.872 152.745 234.544 152.745C233.845 152.745 233.22 152.897 232.67 153.202C232.127 153.5 231.695 153.916 231.376 154.452C231.063 154.987 230.907 155.605 230.907 156.304L230.907 166H226.154ZM253.27 153.749L248.918 154.017C248.844 153.645 248.684 153.31 248.438 153.012C248.193 152.707 247.869 152.466 247.468 152.287C247.074 152.101 246.601 152.008 246.051 152.008C245.314 152.008 244.693 152.164 244.187 152.477C243.682 152.782 243.429 153.191 243.429 153.704C243.429 154.113 243.592 154.459 243.92 154.742C244.247 155.025 244.809 155.251 245.604 155.423L248.706 156.047C250.372 156.39 251.615 156.94 252.433 157.699C253.251 158.457 253.66 159.454 253.66 160.689C253.66 161.812 253.329 162.798 252.667 163.646C252.013 164.494 251.113 165.156 249.967 165.632C248.829 166.1 247.516 166.335 246.028 166.335C243.76 166.335 241.952 165.862 240.606 164.918C239.267 163.966 238.482 162.671 238.252 161.035L242.927 160.789C243.068 161.481 243.41 162.009 243.953 162.374C244.496 162.731 245.192 162.909 246.04 162.909C246.873 162.909 247.542 162.749 248.048 162.43C248.561 162.102 248.822 161.682 248.829 161.169C248.822 160.737 248.639 160.384 248.282 160.109C247.925 159.826 247.375 159.61 246.631 159.462L243.663 158.87C241.989 158.536 240.743 157.955 239.925 157.13C239.114 156.304 238.709 155.251 238.709 153.972C238.709 152.871 239.007 151.923 239.602 151.127C240.204 150.331 241.048 149.717 242.134 149.286C243.228 148.854 244.507 148.639 245.973 148.639C248.137 148.639 249.841 149.096 251.083 150.011C252.333 150.926 253.061 152.172 253.27 153.749Z" fill="black" fill-opacity="0.36"/>
<rect x="158" y="140" width="96" height="29" fill="white"/>
<path d="M502.924 346C501.765 346 500.764 345.631 499.922 344.894C499.184 344.051 498.816 343.051 498.816 341.892V272.373L479.066 287.541C478.012 288.173 476.959 288.383 475.906 288.173C474.958 287.962 474.063 287.33 473.22 286.277L461.686 271.267C461.159 270.319 460.949 269.265 461.054 268.107C461.265 266.948 461.897 266.053 462.95 265.421L500.238 236.507C500.764 236.086 501.291 235.822 501.818 235.717C502.344 235.506 502.976 235.401 503.714 235.401H528.519C529.678 235.401 530.679 235.822 531.521 236.665C532.364 237.402 532.785 238.35 532.785 239.509V341.892C532.785 343.051 532.364 344.051 531.521 344.894C530.679 345.631 529.678 346 528.519 346H502.924ZM564.123 346C563.175 346 562.333 345.684 561.595 345.052C560.963 344.315 560.647 343.472 560.647 342.524C560.647 341.997 560.753 341.523 560.963 341.102L596.355 263.525H550.851C549.693 263.525 548.692 263.156 547.85 262.419C547.112 261.576 546.744 260.575 546.744 259.417V239.509C546.744 238.35 547.112 237.402 547.85 236.665C548.692 235.822 549.693 235.401 550.851 235.401H628.745C630.009 235.401 631.009 235.822 631.747 236.665C632.484 237.402 632.853 238.35 632.853 239.509V256.889C632.853 258.574 632.642 260.049 632.221 261.313C631.905 262.471 631.483 263.577 630.957 264.631L595.565 342.366C595.144 342.893 594.459 343.63 593.511 344.578C592.668 345.526 591.299 346 589.403 346H564.123Z" fill="black" fill-opacity="0.36"/>
<rect x="567" y="281" width="63" height="29" fill="white"/>
<path d="M574.986 285.149H580.944L587.237 300.502H587.505L593.798 285.149H599.756V308H595.07V293.127H594.88L588.967 307.888H585.776L579.862 293.071H579.672L579.672 308H574.986V285.149ZM603.647 308V290.862H608.401V308H603.647ZM606.035 288.653C605.328 288.653 604.722 288.418 604.216 287.95C603.718 287.474 603.469 286.905 603.469 286.243C603.469 285.588 603.718 285.026 604.216 284.558C604.722 284.082 605.328 283.844 606.035 283.844C606.742 283.844 607.344 284.082 607.843 284.558C608.348 285.026 608.601 285.588 608.601 286.243C608.601 286.905 608.348 287.474 607.843 287.95C607.344 288.418 606.742 288.653 606.035 288.653ZM616.961 298.092V308H612.208V290.862H616.738V293.886H616.939C617.318 292.889 617.954 292.1 618.847 291.52C619.739 290.932 620.822 290.639 622.094 290.639C623.284 290.639 624.322 290.899 625.207 291.42C626.092 291.94 626.78 292.684 627.271 293.651C627.762 294.611 628.007 295.756 628.007 297.088V308H623.254L623.254 297.936C623.262 296.887 622.994 296.069 622.451 295.481C621.908 294.886 621.16 294.588 620.208 294.588C619.568 294.588 619.003 294.726 618.512 295.001C618.029 295.277 617.649 295.678 617.374 296.206C617.106 296.727 616.969 297.356 616.961 298.092ZM642.744 300.703V290.862H647.497V308H642.933V304.887H642.755C642.368 305.891 641.725 306.698 640.825 307.308C639.932 307.918 638.842 308.223 637.555 308.223C636.41 308.223 635.402 307.963 634.532 307.442C633.661 306.921 632.981 306.181 632.49 305.222C632.006 304.262 631.761 303.113 631.754 301.774V290.862H636.507V300.926C636.514 301.938 636.786 302.737 637.321 303.325C637.857 303.913 638.575 304.206 639.475 304.206C640.047 304.206 640.583 304.076 641.081 303.816C641.58 303.548 641.981 303.154 642.286 302.633C642.599 302.112 642.751 301.469 642.744 300.703ZM660.415 290.862V294.432L650.094 294.432V290.862L660.415 290.862ZM652.437 286.756H657.19V302.734C657.19 303.172 657.257 303.515 657.391 303.76C657.525 303.998 657.711 304.165 657.949 304.262C658.194 304.359 658.477 304.407 658.797 304.407C659.02 304.407 659.243 304.389 659.466 304.351C659.69 304.307 659.861 304.273 659.98 304.251L660.727 307.788C660.489 307.862 660.154 307.948 659.723 308.045C659.292 308.149 658.767 308.212 658.15 308.234C657.004 308.279 656 308.126 655.137 307.777C654.282 307.427 653.616 306.884 653.14 306.148C652.664 305.411 652.43 304.482 652.437 303.358V286.756ZM671.137 308.335C669.374 308.335 667.857 307.978 666.585 307.264C665.32 306.542 664.346 305.523 663.662 304.206C662.977 302.882 662.635 301.317 662.635 299.509C662.635 297.746 662.977 296.199 663.662 294.867C664.346 293.536 665.309 292.498 666.551 291.754C667.801 291.011 669.267 290.639 670.948 290.639C672.078 290.639 673.131 290.821 674.105 291.185C675.087 291.542 675.943 292.082 676.672 292.803C677.408 293.525 677.981 294.432 678.39 295.526C678.799 296.612 679.003 297.884 679.003 299.342V300.647L664.532 300.647V297.701H674.529C674.529 297.017 674.38 296.411 674.083 295.883C673.785 295.355 673.373 294.942 672.844 294.644C672.324 294.339 671.717 294.187 671.026 294.187C670.304 294.187 669.664 294.354 669.107 294.689C668.556 295.016 668.125 295.459 667.812 296.017C667.5 296.567 667.34 297.181 667.333 297.858V300.658C667.333 301.506 667.489 302.239 667.801 302.856C668.121 303.474 668.571 303.95 669.151 304.284C669.731 304.619 670.419 304.787 671.215 304.787C671.744 304.787 672.227 304.712 672.666 304.563C673.105 304.415 673.48 304.192 673.793 303.894C674.105 303.596 674.343 303.232 674.507 302.801L678.903 303.091C678.68 304.147 678.222 305.069 677.531 305.858C676.846 306.639 675.961 307.249 674.875 307.688C673.797 308.119 672.551 308.335 671.137 308.335ZM696.365 295.749L692.013 296.017C691.939 295.645 691.779 295.31 691.534 295.012C691.288 294.707 690.964 294.466 690.563 294.287C690.169 294.101 689.696 294.008 689.146 294.008C688.409 294.008 687.788 294.164 687.282 294.477C686.777 294.782 686.524 295.191 686.524 295.704C686.524 296.113 686.687 296.459 687.015 296.742C687.342 297.025 687.904 297.251 688.699 297.423L691.801 298.047C693.468 298.39 694.71 298.94 695.528 299.699C696.346 300.457 696.755 301.454 696.755 302.689C696.755 303.812 696.424 304.798 695.762 305.646C695.108 306.494 694.208 307.156 693.062 307.632C691.924 308.1 690.611 308.335 689.123 308.335C686.855 308.335 685.047 307.862 683.701 306.918C682.362 305.966 681.577 304.671 681.347 303.035L686.022 302.789C686.163 303.481 686.505 304.009 687.048 304.374C687.591 304.731 688.287 304.909 689.135 304.909C689.968 304.909 690.637 304.749 691.143 304.43C691.656 304.102 691.917 303.682 691.924 303.169C691.917 302.737 691.734 302.384 691.377 302.109C691.02 301.826 690.47 301.61 689.726 301.462L686.758 300.87C685.084 300.536 683.838 299.955 683.02 299.13C682.209 298.304 681.804 297.251 681.804 295.972C681.804 294.871 682.102 293.923 682.697 293.127C683.299 292.331 684.143 291.717 685.229 291.286C686.323 290.854 687.602 290.639 689.068 290.639C691.232 290.639 692.936 291.096 694.178 292.011C695.428 292.926 696.157 294.172 696.365 295.749Z" fill="black" fill-opacity="0.36"/>
<path d="M159.986 165L159.986 142.149H164.817V151.577L174.625 151.577V142.149H179.445L179.445 165L174.625 165V155.561L164.817 155.561L164.817 165H159.986ZM191.082 165.335C189.349 165.335 187.85 164.967 186.586 164.23C185.329 163.486 184.358 162.452 183.674 161.128C182.989 159.797 182.647 158.253 182.647 156.498C182.647 154.728 182.989 153.18 183.674 151.856C184.358 150.525 185.329 149.491 186.586 148.754C187.85 148.011 189.349 147.639 191.082 147.639C192.816 147.639 194.311 148.011 195.568 148.754C196.832 149.491 197.807 150.525 198.491 151.856C199.176 153.18 199.518 154.728 199.518 156.498C199.518 158.253 199.176 159.797 198.491 161.128C197.807 162.452 196.832 163.486 195.568 164.23C194.311 164.967 192.816 165.335 191.082 165.335ZM191.105 161.653C191.893 161.653 192.552 161.43 193.08 160.983C193.608 160.529 194.006 159.912 194.274 159.131C194.549 158.35 194.686 157.461 194.686 156.464C194.686 155.468 194.549 154.579 194.274 153.798C194.006 153.017 193.608 152.399 193.08 151.946C192.552 151.492 191.893 151.265 191.105 151.265C190.309 151.265 189.639 151.492 189.096 151.946C188.561 152.399 188.155 153.017 187.88 153.798C187.612 154.579 187.479 155.468 187.479 156.464C187.479 157.461 187.612 158.35 187.88 159.131C188.155 159.912 188.561 160.529 189.096 160.983C189.639 161.43 190.309 161.653 191.105 161.653ZM213.599 157.703L213.599 147.862L218.352 147.862L218.352 165H213.788V161.887H213.61C213.223 162.891 212.58 163.698 211.68 164.308C210.787 164.918 209.697 165.223 208.41 165.223C207.265 165.223 206.257 164.963 205.387 164.442C204.516 163.921 203.836 163.181 203.345 162.222C202.861 161.262 202.616 160.113 202.608 158.774L202.608 147.862H207.362V157.926C207.369 158.938 207.64 159.737 208.176 160.325C208.712 160.913 209.429 161.206 210.329 161.206C210.902 161.206 211.438 161.076 211.936 160.816C212.435 160.548 212.836 160.154 213.141 159.633C213.454 159.112 213.606 158.469 213.599 157.703ZM222.154 165L222.154 147.862H226.762V150.852H226.94C227.253 149.788 227.777 148.985 228.514 148.442C229.25 147.892 230.098 147.616 231.058 147.616C231.296 147.616 231.552 147.631 231.828 147.661C232.103 147.691 232.344 147.732 232.553 147.784L232.553 152.001C232.33 151.934 232.021 151.875 231.627 151.823C231.232 151.771 230.872 151.745 230.544 151.745C229.845 151.745 229.22 151.897 228.67 152.202C228.127 152.5 227.695 152.916 227.376 153.452C227.063 153.987 226.907 154.605 226.907 155.304L226.907 165H222.154ZM249.27 152.749L244.918 153.017C244.844 152.645 244.684 152.31 244.438 152.012C244.193 151.707 243.869 151.466 243.468 151.287C243.074 151.101 242.601 151.008 242.051 151.008C241.314 151.008 240.693 151.164 240.187 151.477C239.682 151.782 239.429 152.191 239.429 152.704C239.429 153.113 239.592 153.459 239.92 153.742C240.247 154.025 240.809 154.251 241.604 154.423L244.706 155.047C246.372 155.39 247.615 155.94 248.433 156.699C249.251 157.457 249.66 158.454 249.66 159.689C249.66 160.812 249.329 161.798 248.667 162.646C248.013 163.494 247.113 164.156 245.967 164.632C244.829 165.1 243.516 165.335 242.028 165.335C239.76 165.335 237.952 164.862 236.606 163.918C235.267 162.966 234.482 161.671 234.252 160.035L238.927 159.789C239.068 160.481 239.41 161.009 239.953 161.374C240.496 161.731 241.192 161.909 242.04 161.909C242.873 161.909 243.542 161.749 244.048 161.43C244.561 161.102 244.822 160.682 244.829 160.169C244.822 159.737 244.639 159.384 244.282 159.109C243.925 158.826 243.375 158.61 242.631 158.462L239.663 157.87C237.989 157.536 236.743 156.955 235.925 156.13C235.114 155.304 234.709 154.251 234.709 152.972C234.709 151.871 235.007 150.923 235.602 150.127C236.204 149.331 237.048 148.717 238.134 148.286C239.228 147.854 240.507 147.639 241.973 147.639C244.137 147.639 245.841 148.096 247.083 149.011C248.333 149.926 249.061 151.172 249.27 152.749Z" fill="black" fill-opacity="0.36"/>
</svg>
