<svg width="990" height="196" viewBox="0 0 990 196" fill="none" xmlns="http://www.w3.org/2000/svg">
<path d="M961.065 164.33H990.001V193.265H961.065V164.33Z" fill="#ABD40F"/>
<path d="M209.256 97.7245C195.334 94.1759 192.059 83.5299 191.513 73.4298L190.148 46.1324C189.329 31.1188 185.234 26.7513 175.68 26.7513H171.312V2.18359H186.599C203.523 2.18359 215.534 11.7377 216.899 32.4837L219.083 69.0622C219.902 81.619 222.632 85.4407 234.097 85.4407V110.008C222.632 110.008 219.902 113.83 219.083 126.387L216.899 162.965C215.534 183.711 203.523 193.265 186.599 193.265H171.312V168.698H175.68C185.234 168.698 189.329 164.33 190.148 149.317L191.513 122.019C192.059 111.919 195.334 101.273 209.256 97.7245Z" fill="#ABD40F"/>
<path d="M124.68 97.7245C138.601 101.273 141.877 111.919 142.423 122.019L143.788 149.317C144.607 164.33 148.701 168.698 158.255 168.698H162.623V193.265H147.336C130.412 193.265 118.401 183.711 117.036 162.965L114.852 126.387C114.034 113.83 111.304 110.008 99.8389 110.008V85.4407C111.304 85.4407 114.034 81.619 114.852 69.0622L117.036 32.4837C118.401 11.7377 130.412 2.18359 147.336 2.18359H162.623V26.7513H158.255C148.701 26.7513 144.607 31.1188 143.788 46.1324L142.423 73.4298C141.877 83.5299 138.601 94.1759 124.68 97.7245Z" fill="#ABD40F"/>
<path fill-rule="evenodd" clip-rule="evenodd" d="M518.591 122.019H546.98V147.406C546.98 177.979 531.693 195.449 502.212 195.449C472.731 195.449 457.444 177.979 457.444 147.406V48.0434C457.444 17.4703 472.731 0 502.212 0C531.693 0 546.98 17.4703 546.98 48.0434V66.6057H518.591V46.1326C518.591 32.4839 512.585 27.2974 503.031 27.2974C493.477 27.2974 487.471 32.4839 487.471 46.1326V149.317C487.471 162.965 493.477 167.879 503.031 167.879C512.585 167.879 518.591 162.965 518.591 149.317V122.019ZM627.982 193.266H658.556C655.553 186.168 655.28 179.344 655.28 170.063V140.582C655.28 120.654 650.366 106.46 635.353 100.181V99.6354C648.729 93.357 655.007 80.8002 655.007 61.1461V46.1325C655.007 16.6513 641.631 2.18368 610.512 2.18368H565.198V193.266H595.226V115.468H605.599C619.247 115.468 625.253 122.019 625.253 139.763V169.79C625.253 185.084 626.308 188.246 627.899 193.016L627.982 193.266ZM595.226 29.4811H609.693C620.339 29.4811 624.98 35.4865 624.98 49.1352V67.9704C624.98 83.257 618.155 88.1705 606.964 88.1705H595.226V29.4811ZM741.634 2.18368L772.207 193.266H741.906L736.72 158.598H699.868L694.682 193.266H667.112L697.685 2.18368H741.634ZM717.885 36.0325L703.69 132.665H732.625L718.431 36.0325H717.885ZM816.218 87.0786V29.4811H865.626V2.18368H786.19V193.266H816.218V114.376H854.98V87.0786H816.218ZM871.29 2.18368V29.4811H902.682V193.266H932.71V29.4811H964.102V2.18368H871.29ZM389.429 82.711V29.4811H441.294V2.18368H359.402V193.266H441.294V165.968H389.429V110.008H430.648V82.711H389.429ZM247.973 193.266V2.18368H295.471C325.498 2.18368 340.239 18.8351 340.239 49.4082V146.041C340.239 176.614 325.498 193.266 295.471 193.266H247.973ZM294.925 29.4811H278.001V165.968H294.925C304.479 165.968 310.211 161.055 310.211 147.406V48.0433C310.211 34.3946 304.479 29.4811 294.925 29.4811ZM89.5355 122.019H61.1462V149.317C61.1462 162.966 55.1408 167.879 45.5867 167.879C36.0326 167.879 30.0271 162.966 30.0271 149.317V46.1327C30.0271 32.484 36.0326 27.2975 45.5867 27.2975C55.1408 27.2975 61.1462 32.484 61.1462 46.1327V66.6058H89.5355V48.0435C89.5355 17.4704 74.2489 9.95686e-05 44.7677 9.95686e-05C15.2865 9.95686e-05 0 17.4704 0 48.0435V147.406C0 177.979 15.2865 195.449 44.7677 195.449C74.2489 195.449 89.5355 177.979 89.5355 147.406V122.019Z" fill="white"/>
</svg>
