<svg width="549" height="134" viewBox="0 0 549 134" fill="none" xmlns="http://www.w3.org/2000/svg">
<path d="M56.584 51.053V56.6604H51.0049V51.053H56.584ZM51.0049 51.053V45.5022H56.584V51.053H51.0049ZM51.0049 45.5022V39.8098H56.584V45.5022H51.0049ZM51.0049 39.8098V34.1458H56.584V39.8098H51.0049ZM51.0049 34.1458V28.4534H56.584V34.1458H51.0049ZM51.0049 28.4534V22.7893H56.584V28.4534H51.0049ZM51.0049 22.7893V17.0969H56.584V22.7893H51.0049ZM51.0049 17.0969V11.4045H56.584V17.0969H51.0049ZM51.0049 11.4045V5.85376H56.584V11.4045H51.0049ZM45.3408 5.85376V0.161377H51.0049V5.85376H45.3408ZM51.0049 51.053V56.6604H45.3408V51.053H51.0049ZM45.3408 51.053V45.5022H51.0049V51.053H45.3408ZM45.3408 45.5022V39.8098H51.0049V45.5022H45.3408ZM45.3408 39.8098V34.1458H51.0049V39.8098H45.3408ZM45.3408 34.1458V28.4534H51.0049V34.1458H45.3408ZM45.3408 28.4534V22.7893H51.0049V28.4534H45.3408ZM45.3408 22.7893V17.0969H51.0049V22.7893H45.3408ZM45.3408 17.0969V11.4045H51.0049V17.0969H45.3408ZM45.3408 11.4045V5.85376H51.0049V11.4045H45.3408ZM39.6484 5.85376V0.161377H45.3408V5.85376H39.6484ZM45.3408 51.053V56.6604H39.6484V51.053H45.3408ZM39.6484 51.053V45.5022H45.3408V51.053H39.6484ZM33.9844 5.85376V0.161377H39.6484V5.85376H33.9844ZM39.6484 51.053V56.6604H33.9844V51.053H39.6484ZM33.9844 51.053V45.5022H39.6484V51.053H33.9844ZM28.292 5.85376V0.161377H33.9844V5.85376H28.292ZM28.292 51.053V45.5022H33.9844V51.053H28.292ZM28.292 45.5022V39.8098H33.9844V45.5022H28.292ZM28.292 39.8098V34.1458H33.9844V39.8098H28.292ZM28.292 34.1458V28.4534H33.9844V34.1458H28.292ZM28.292 22.7893V17.0969H33.9844V22.7893H28.292ZM28.292 17.0969V11.4045H33.9844V17.0969H28.292ZM28.292 11.4045V5.85376H33.9844V11.4045H28.292ZM28.292 51.053V56.6604H22.5996V51.053H28.292ZM22.5996 51.053V45.5022H28.292V51.053H22.5996ZM22.5996 45.5022V39.8098H28.292V45.5022H22.5996ZM22.5996 39.8098V34.1458H28.292V39.8098H22.5996ZM22.5996 34.1458V28.4534H28.292V34.1458H22.5996ZM22.5996 22.7893V17.0969H28.292V22.7893H22.5996ZM22.5996 17.0969V11.4045H28.292V17.0969H22.5996ZM22.5996 11.4045V5.85376H28.292V11.4045H22.5996ZM17.0488 5.85376V0.161377H22.5996V5.85376H17.0488ZM22.5996 51.053V56.6604H17.0488V51.053H22.5996ZM17.0488 51.053V45.5022H22.5996V51.053H17.0488ZM17.0488 45.5022V39.8098H22.5996V45.5022H17.0488ZM17.0488 39.8098V34.1458H22.5996V39.8098H17.0488ZM17.0488 34.1458V28.4534H22.5996V34.1458H17.0488ZM17.0488 22.7893V17.0969H22.5996V22.7893H17.0488ZM17.0488 17.0969V11.4045H22.5996V17.0969H17.0488ZM17.0488 11.4045V5.85376H22.5996V11.4045H17.0488ZM11.3564 5.85376V0.161377H17.0488V5.85376H11.3564ZM17.0488 51.053V56.6604H11.3564V51.053H17.0488ZM11.3564 51.053V45.5022H17.0488V51.053H11.3564ZM5.69238 5.85376V0.161377H11.3564V5.85376H5.69238ZM11.3564 51.053V56.6604H5.69238V51.053H11.3564ZM5.69238 51.053V45.5022H11.3564V51.053H5.69238ZM0 5.85376V0.161377H5.69238V5.85376H0ZM0 51.053V45.5022H5.69238V51.053H0ZM0 45.5022V39.8098H5.69238V45.5022H0ZM0 39.8098V34.1458H5.69238V39.8098H0ZM0 34.1458V28.4534H5.69238V34.1458H0ZM0 28.4534V22.7893H5.69238V28.4534H0ZM0 22.7893V17.0969H5.69238V22.7893H0ZM0 17.0969V11.4045H5.69238V17.0969H0ZM0 11.4045V5.85376H5.69238V11.4045H0ZM107.617 51.053V56.6604H102.038V51.053H107.617ZM102.038 51.053V45.5022H107.617V51.053H102.038ZM102.038 45.5022V39.8098H107.617V45.5022H102.038ZM102.038 39.8098V34.1458H107.617V39.8098H102.038ZM102.038 34.1458V28.4534H107.617V34.1458H102.038ZM102.038 28.4534V22.7893H107.617V28.4534H102.038ZM102.038 22.7893V17.0969H107.617V22.7893H102.038ZM102.038 17.0969V11.4045H107.617V17.0969H102.038ZM102.038 51.053V56.6604H96.374V51.053H102.038ZM96.374 51.053V45.5022H102.038V51.053H96.374ZM96.374 45.5022V39.8098H102.038V45.5022H96.374ZM96.374 39.8098V34.1458H102.038V39.8098H96.374ZM96.374 34.1458V28.4534H102.038V34.1458H96.374ZM96.374 28.4534V22.7893H102.038V28.4534H96.374ZM96.374 22.7893V17.0969H102.038V22.7893H96.374ZM96.374 17.0969V11.4045H102.038V17.0969H96.374ZM96.374 11.4045V5.85376H102.038V11.4045H96.374ZM90.6816 5.85376V0.161377H96.374V5.85376H90.6816ZM96.374 51.053V56.6604H90.6816V51.053H96.374ZM90.6816 51.053V45.5022H96.374V51.053H90.6816ZM90.6816 11.4045V5.85376H96.374V11.4045H90.6816ZM85.0176 5.85376V0.161377H90.6816V5.85376H85.0176ZM90.6816 51.053V56.6604H85.0176V51.053H90.6816ZM85.0176 51.053V45.5022H90.6816V51.053H85.0176ZM79.3252 5.85376V0.161377H85.0176V5.85376H79.3252ZM79.3252 51.053V45.5022H85.0176V51.053H79.3252ZM79.3252 45.5022V39.8098H85.0176V45.5022H79.3252ZM79.3252 39.8098V34.1458H85.0176V39.8098H79.3252ZM79.3252 28.4534V22.7893H85.0176V28.4534H79.3252ZM79.3252 22.7893V17.0969H85.0176V22.7893H79.3252ZM79.3252 17.0969V11.4045H85.0176V17.0969H79.3252ZM73.6328 5.85376V0.161377H79.3252V5.85376H73.6328ZM79.3252 51.053V56.6604H73.6328V51.053H79.3252ZM73.6328 51.053V45.5022H79.3252V51.053H73.6328ZM73.6328 45.5022V39.8098H79.3252V45.5022H73.6328ZM73.6328 39.8098V34.1458H79.3252V39.8098H73.6328ZM73.6328 28.4534V22.7893H79.3252V28.4534H73.6328ZM73.6328 22.7893V17.0969H79.3252V22.7893H73.6328ZM73.6328 17.0969V11.4045H79.3252V17.0969H73.6328ZM68.082 5.85376V0.161377H73.6328V5.85376H68.082ZM73.6328 51.053V56.6604H68.082V51.053H73.6328ZM68.082 51.053V45.5022H73.6328V51.053H68.082ZM68.082 45.5022V39.8098H73.6328V45.5022H68.082ZM68.082 39.8098V34.1458H73.6328V39.8098H68.082ZM68.082 28.4534V22.7893H73.6328V28.4534H68.082ZM68.082 22.7893V17.0969H73.6328V22.7893H68.082ZM68.082 17.0969V11.4045H73.6328V17.0969H68.082ZM62.3896 5.85376V0.161377H68.082V5.85376H62.3896ZM68.082 51.053V56.6604H62.3896V51.053H68.082ZM62.3896 51.053V45.5022H68.082V51.053H62.3896ZM56.7256 5.85376V0.161377H62.3896V5.85376H56.7256ZM62.3896 51.053V56.6604H56.7256V51.053H62.3896ZM56.7256 51.053V45.5022H62.3896V51.053H56.7256ZM56.7256 11.4045V5.85376H62.3896V11.4045H56.7256ZM51.0332 51.053V45.5022H56.7256V51.053H51.0332ZM51.0332 45.5022V39.8098H56.7256V45.5022H51.0332ZM51.0332 39.8098V34.1458H56.7256V39.8098H51.0332ZM51.0332 34.1458V28.4534H56.7256V34.1458H51.0332ZM51.0332 28.4534V22.7893H56.7256V28.4534H51.0332ZM51.0332 22.7893V17.0969H56.7256V22.7893H51.0332ZM51.0332 17.0969V11.4045H56.7256V17.0969H51.0332ZM51.0332 11.4045V5.85376H56.7256V11.4045H51.0332ZM153.071 51.053V45.5022H158.65V51.053H153.071ZM153.071 45.5022V39.8098H158.65V45.5022H153.071ZM153.071 39.8098V34.1458H158.65V39.8098H153.071ZM153.071 28.4534V22.7893H158.65V28.4534H153.071ZM153.071 22.7893V17.0969H158.65V22.7893H153.071ZM153.071 17.0969V11.4045H158.65V17.0969H153.071ZM153.071 51.053V56.6604H147.407V51.053H153.071ZM147.407 51.053V45.5022H153.071V51.053H147.407ZM147.407 45.5022V39.8098H153.071V45.5022H147.407ZM147.407 39.8098V34.1458H153.071V39.8098H147.407ZM147.407 34.1458V28.4534H153.071V34.1458H147.407ZM147.407 28.4534V22.7893H153.071V28.4534H147.407ZM147.407 22.7893V17.0969H153.071V22.7893H147.407ZM147.407 17.0969V11.4045H153.071V17.0969H147.407ZM147.407 11.4045V5.85376H153.071V11.4045H147.407ZM141.715 5.85376V0.161377H147.407V5.85376H141.715ZM147.407 51.053V56.6604H141.715V51.053H147.407ZM141.715 51.053V45.5022H147.407V51.053H141.715ZM141.715 45.5022V39.8098H147.407V45.5022H141.715ZM141.715 34.1458V28.4534H147.407V34.1458H141.715ZM141.715 28.4534V22.7893H147.407V28.4534H141.715ZM141.715 22.7893V17.0969H147.407V22.7893H141.715ZM141.715 11.4045V5.85376H147.407V11.4045H141.715ZM136.051 5.85376V0.161377H141.715V5.85376H136.051ZM141.715 51.053V56.6604H136.051V51.053H141.715ZM136.051 51.053V45.5022H141.715V51.053H136.051ZM136.051 34.1458V28.4534H141.715V34.1458H136.051ZM136.051 28.4534V22.7893H141.715V28.4534H136.051ZM136.051 22.7893V17.0969H141.715V22.7893H136.051ZM130.358 5.85376V0.161377H136.051V5.85376H130.358ZM136.051 51.053V56.6604H130.358V51.053H136.051ZM130.358 51.053V45.5022H136.051V51.053H130.358ZM130.358 39.8098V34.1458H136.051V39.8098H130.358ZM130.358 34.1458V28.4534H136.051V34.1458H130.358ZM130.358 28.4534V22.7893H136.051V28.4534H130.358ZM130.358 22.7893V17.0969H136.051V22.7893H130.358ZM130.358 17.0969V11.4045H136.051V17.0969H130.358ZM124.666 5.85376V0.161377H130.358V5.85376H124.666ZM130.358 51.053V56.6604H124.666V51.053H130.358ZM124.666 51.053V45.5022H130.358V51.053H124.666ZM124.666 39.8098V34.1458H130.358V39.8098H124.666ZM124.666 34.1458V28.4534H130.358V34.1458H124.666ZM124.666 28.4534V22.7893H130.358V28.4534H124.666ZM124.666 22.7893V17.0969H130.358V22.7893H124.666ZM124.666 17.0969V11.4045H130.358V17.0969H124.666ZM119.115 5.85376V0.161377H124.666V5.85376H119.115ZM124.666 51.053V56.6604H119.115V51.053H124.666ZM119.115 51.053V45.5022H124.666V51.053H119.115ZM119.115 39.8098V34.1458H124.666V39.8098H119.115ZM119.115 34.1458V28.4534H124.666V34.1458H119.115ZM119.115 28.4534V22.7893H124.666V28.4534H119.115ZM119.115 22.7893V17.0969H124.666V22.7893H119.115ZM119.115 17.0969V11.4045H124.666V17.0969H119.115ZM113.423 5.85376V0.161377H119.115V5.85376H113.423ZM119.115 51.053V56.6604H113.423V51.053H119.115ZM113.423 51.053V45.5022H119.115V51.053H113.423ZM107.759 5.85376V0.161377H113.423V5.85376H107.759ZM107.759 51.053V45.5022H113.423V51.053H107.759ZM107.759 45.5022V39.8098H113.423V45.5022H107.759ZM107.759 11.4045V5.85376H113.423V11.4045H107.759ZM102.066 45.5022V39.8098H107.759V45.5022H102.066ZM102.066 39.8098V34.1458H107.759V39.8098H102.066ZM102.066 34.1458V28.4534H107.759V34.1458H102.066ZM102.066 28.4534V22.7893H107.759V28.4534H102.066ZM102.066 22.7893V17.0969H107.759V22.7893H102.066ZM102.066 17.0969V11.4045H107.759V17.0969H102.066ZM102.066 11.4045V5.85376H107.759V11.4045H102.066ZM209.684 51.053V56.6604H204.104V51.053H209.684ZM204.104 51.053V45.5022H209.684V51.053H204.104ZM204.104 45.5022V39.8098H209.684V45.5022H204.104ZM204.104 22.7893V17.0969H209.684V22.7893H204.104ZM204.104 17.0969V11.4045H209.684V17.0969H204.104ZM204.104 11.4045V5.85376H209.684V11.4045H204.104ZM198.44 5.85376V0.161377H204.104V5.85376H198.44ZM204.104 51.053V56.6604H198.44V51.053H204.104ZM198.44 51.053V45.5022H204.104V51.053H198.44ZM198.44 45.5022V39.8098H204.104V45.5022H198.44ZM198.44 39.8098V34.1458H204.104V39.8098H198.44ZM198.44 28.4534V22.7893H204.104V28.4534H198.44ZM198.44 22.7893V17.0969H204.104V22.7893H198.44ZM198.44 17.0969V11.4045H204.104V17.0969H198.44ZM198.44 11.4045V5.85376H204.104V11.4045H198.44ZM192.748 5.85376V0.161377H198.44V5.85376H192.748ZM198.44 51.053V56.6604H192.748V51.053H198.44ZM192.748 51.053V45.5022H198.44V51.053H192.748ZM192.748 39.8098V34.1458H198.44V39.8098H192.748ZM192.748 34.1458V28.4534H198.44V34.1458H192.748ZM192.748 28.4534V22.7893H198.44V28.4534H192.748ZM192.748 22.7893V17.0969H198.44V22.7893H192.748ZM192.748 17.0969V11.4045H198.44V17.0969H192.748ZM187.084 5.85376V0.161377H192.748V5.85376H187.084ZM192.748 51.053V56.6604H187.084V51.053H192.748ZM187.084 51.053V45.5022H192.748V51.053H187.084ZM187.084 34.1458V28.4534H192.748V34.1458H187.084ZM187.084 28.4534V22.7893H192.748V28.4534H187.084ZM187.084 22.7893V17.0969H192.748V22.7893H187.084ZM181.392 5.85376V0.161377H187.084V5.85376H181.392ZM181.392 51.053V45.5022H187.084V51.053H181.392ZM181.392 45.5022V39.8098H187.084V45.5022H181.392ZM181.392 28.4534V22.7893H187.084V28.4534H181.392ZM181.392 11.4045V5.85376H187.084V11.4045H181.392ZM181.392 51.053V56.6604H175.699V51.053H181.392ZM175.699 51.053V45.5022H181.392V51.053H175.699ZM175.699 45.5022V39.8098H181.392V45.5022H175.699ZM175.699 39.8098V34.1458H181.392V39.8098H175.699ZM175.699 17.0969V11.4045H181.392V17.0969H175.699ZM175.699 11.4045V5.85376H181.392V11.4045H175.699ZM170.148 5.85376V0.161377H175.699V5.85376H170.148ZM175.699 51.053V56.6604H170.148V51.053H175.699ZM170.148 51.053V45.5022H175.699V51.053H170.148ZM170.148 45.5022V39.8098H175.699V45.5022H170.148ZM170.148 39.8098V34.1458H175.699V39.8098H170.148ZM170.148 34.1458V28.4534H175.699V34.1458H170.148ZM170.148 22.7893V17.0969H175.699V22.7893H170.148ZM170.148 17.0969V11.4045H175.699V17.0969H170.148ZM170.148 11.4045V5.85376H175.699V11.4045H170.148ZM164.456 5.85376V0.161377H170.148V5.85376H164.456ZM170.148 51.053V56.6604H164.456V51.053H170.148ZM164.456 51.053V45.5022H170.148V51.053H164.456ZM158.792 5.85376V0.161377H164.456V5.85376H158.792ZM164.456 51.053V56.6604H158.792V51.053H164.456ZM158.792 51.053V45.5022H164.456V51.053H158.792ZM153.1 5.85376V0.161377H158.792V5.85376H153.1ZM153.1 51.053V45.5022H158.792V51.053H153.1ZM153.1 45.5022V39.8098H158.792V45.5022H153.1ZM153.1 39.8098V34.1458H158.792V39.8098H153.1ZM153.1 34.1458V28.4534H158.792V34.1458H153.1ZM153.1 28.4534V22.7893H158.792V28.4534H153.1ZM153.1 22.7893V17.0969H158.792V22.7893H153.1ZM153.1 17.0969V11.4045H158.792V17.0969H153.1ZM153.1 11.4045V5.85376H158.792V11.4045H153.1ZM260.717 51.053V56.6604H255.138V51.053H260.717ZM255.138 51.053V45.5022H260.717V51.053H255.138ZM255.138 45.5022V39.8098H260.717V45.5022H255.138ZM255.138 39.8098V34.1458H260.717V39.8098H255.138ZM255.138 34.1458V28.4534H260.717V34.1458H255.138ZM255.138 28.4534V22.7893H260.717V28.4534H255.138ZM255.138 22.7893V17.0969H260.717V22.7893H255.138ZM255.138 17.0969V11.4045H260.717V17.0969H255.138ZM255.138 51.053V56.6604H249.474V51.053H255.138ZM249.474 51.053V45.5022H255.138V51.053H249.474ZM249.474 45.5022V39.8098H255.138V45.5022H249.474ZM249.474 39.8098V34.1458H255.138V39.8098H249.474ZM249.474 34.1458V28.4534H255.138V34.1458H249.474ZM249.474 28.4534V22.7893H255.138V28.4534H249.474ZM249.474 22.7893V17.0969H255.138V22.7893H249.474ZM249.474 17.0969V11.4045H255.138V17.0969H249.474ZM249.474 11.4045V5.85376H255.138V11.4045H249.474ZM243.781 5.85376V0.161377H249.474V5.85376H243.781ZM249.474 51.053V56.6604H243.781V51.053H249.474ZM243.781 51.053V45.5022H249.474V51.053H243.781ZM243.781 11.4045V5.85376H249.474V11.4045H243.781ZM238.117 5.85376V0.161377H243.781V5.85376H238.117ZM243.781 51.053V56.6604H238.117V51.053H243.781ZM238.117 51.053V45.5022H243.781V51.053H238.117ZM232.425 5.85376V0.161377H238.117V5.85376H232.425ZM232.425 51.053V45.5022H238.117V51.053H232.425ZM232.425 45.5022V39.8098H238.117V45.5022H232.425ZM232.425 39.8098V34.1458H238.117V39.8098H232.425ZM232.425 28.4534V22.7893H238.117V28.4534H232.425ZM232.425 22.7893V17.0969H238.117V22.7893H232.425ZM232.425 17.0969V11.4045H238.117V17.0969H232.425ZM226.732 5.85376V0.161377H232.425V5.85376H226.732ZM232.425 51.053V56.6604H226.732V51.053H232.425ZM226.732 51.053V45.5022H232.425V51.053H226.732ZM226.732 45.5022V39.8098H232.425V45.5022H226.732ZM226.732 39.8098V34.1458H232.425V39.8098H226.732ZM226.732 28.4534V22.7893H232.425V28.4534H226.732ZM226.732 22.7893V17.0969H232.425V22.7893H226.732ZM226.732 17.0969V11.4045H232.425V17.0969H226.732ZM221.182 5.85376V0.161377H226.732V5.85376H221.182ZM226.732 51.053V56.6604H221.182V51.053H226.732ZM221.182 51.053V45.5022H226.732V51.053H221.182ZM221.182 45.5022V39.8098H226.732V45.5022H221.182ZM221.182 39.8098V34.1458H226.732V39.8098H221.182ZM221.182 28.4534V22.7893H226.732V28.4534H221.182ZM221.182 22.7893V17.0969H226.732V22.7893H221.182ZM221.182 17.0969V11.4045H226.732V17.0969H221.182ZM215.489 5.85376V0.161377H221.182V5.85376H215.489ZM221.182 51.053V56.6604H215.489V51.053H221.182ZM215.489 51.053V45.5022H221.182V51.053H215.489ZM209.825 5.85376V0.161377H215.489V5.85376H209.825ZM215.489 51.053V56.6604H209.825V51.053H215.489ZM209.825 51.053V45.5022H215.489V51.053H209.825ZM209.825 11.4045V5.85376H215.489V11.4045H209.825ZM204.133 51.053V45.5022H209.825V51.053H204.133ZM204.133 45.5022V39.8098H209.825V45.5022H204.133ZM204.133 39.8098V34.1458H209.825V39.8098H204.133ZM204.133 34.1458V28.4534H209.825V34.1458H204.133ZM204.133 28.4534V22.7893H209.825V28.4534H204.133ZM204.133 22.7893V17.0969H209.825V22.7893H204.133ZM204.133 17.0969V11.4045H209.825V17.0969H204.133ZM204.133 11.4045V5.85376H209.825V11.4045H204.133ZM300.507 22.7893V17.0969H306.171V22.7893H300.507ZM300.507 17.0969V11.4045H306.171V17.0969H300.507ZM300.507 11.4045V5.85376H306.171V11.4045H300.507ZM294.814 5.85376V0.161377H300.507V5.85376H294.814ZM294.814 22.7893V17.0969H300.507V22.7893H294.814ZM294.814 17.0969V11.4045H300.507V17.0969H294.814ZM294.814 11.4045V5.85376H300.507V11.4045H294.814ZM289.15 5.85376V0.161377H294.814V5.85376H289.15ZM294.814 51.053V56.6604H289.15V51.053H294.814ZM289.15 51.053V45.5022H294.814V51.053H289.15ZM289.15 45.5022V39.8098H294.814V45.5022H289.15ZM289.15 39.8098V34.1458H294.814V39.8098H289.15ZM289.15 34.1458V28.4534H294.814V34.1458H289.15ZM289.15 28.4534V22.7893H294.814V28.4534H289.15ZM289.15 22.7893V17.0969H294.814V22.7893H289.15ZM289.15 17.0969V11.4045H294.814V17.0969H289.15ZM283.458 5.85376V0.161377H289.15V5.85376H283.458ZM289.15 51.053V56.6604H283.458V51.053H289.15ZM283.458 51.053V45.5022H289.15V51.053H283.458ZM283.458 45.5022V39.8098H289.15V45.5022H283.458ZM283.458 39.8098V34.1458H289.15V39.8098H283.458ZM283.458 34.1458V28.4534H289.15V34.1458H283.458ZM283.458 28.4534V22.7893H289.15V28.4534H283.458ZM283.458 22.7893V17.0969H289.15V22.7893H283.458ZM283.458 17.0969V11.4045H289.15V17.0969H283.458ZM277.766 5.85376V0.161377H283.458V5.85376H277.766ZM283.458 51.053V56.6604H277.766V51.053H283.458ZM277.766 51.053V45.5022H283.458V51.053H277.766ZM272.215 5.85376V0.161377H277.766V5.85376H272.215ZM277.766 51.053V56.6604H272.215V51.053H277.766ZM272.215 51.053V45.5022H277.766V51.053H272.215ZM266.522 5.85376V0.161377H272.215V5.85376H266.522ZM266.522 51.053V45.5022H272.215V51.053H266.522ZM266.522 45.5022V39.8098H272.215V45.5022H266.522ZM266.522 39.8098V34.1458H272.215V39.8098H266.522ZM266.522 34.1458V28.4534H272.215V34.1458H266.522ZM266.522 28.4534V22.7893H272.215V28.4534H266.522ZM266.522 22.7893V17.0969H272.215V22.7893H266.522ZM266.522 17.0969V11.4045H272.215V17.0969H266.522ZM260.858 5.85376V0.161377H266.522V5.85376H260.858ZM260.858 17.0969V11.4045H266.522V17.0969H260.858ZM255.166 5.85376V0.161377H260.858V5.85376H255.166ZM255.166 17.0969V11.4045H260.858V17.0969H255.166ZM255.166 11.4045V5.85376H260.858V11.4045H255.166ZM357.119 51.053V56.6604H351.54V51.053H357.119ZM351.54 51.053V45.5022H357.119V51.053H351.54ZM351.54 45.5022V39.8098H357.119V45.5022H351.54ZM351.54 39.8098V34.1458H357.119V39.8098H351.54ZM351.54 34.1458V28.4534H357.119V34.1458H351.54ZM351.54 28.4534V22.7893H357.119V28.4534H351.54ZM351.54 22.7893V17.0969H357.119V22.7893H351.54ZM351.54 17.0969V11.4045H357.119V17.0969H351.54ZM351.54 11.4045V5.85376H357.119V11.4045H351.54ZM345.876 5.85376V0.161377H351.54V5.85376H345.876ZM351.54 51.053V56.6604H345.876V51.053H351.54ZM345.876 51.053V45.5022H351.54V51.053H345.876ZM345.876 45.5022V39.8098H351.54V45.5022H345.876ZM345.876 39.8098V34.1458H351.54V39.8098H345.876ZM345.876 34.1458V28.4534H351.54V34.1458H345.876ZM345.876 28.4534V22.7893H351.54V28.4534H345.876ZM345.876 22.7893V17.0969H351.54V22.7893H345.876ZM345.876 17.0969V11.4045H351.54V17.0969H345.876ZM345.876 11.4045V5.85376H351.54V11.4045H345.876ZM340.184 5.85376V0.161377H345.876V5.85376H340.184ZM345.876 51.053V56.6604H340.184V51.053H345.876ZM340.184 51.053V45.5022H345.876V51.053H340.184ZM334.52 5.85376V0.161377H340.184V5.85376H334.52ZM340.184 51.053V56.6604H334.52V51.053H340.184ZM334.52 51.053V45.5022H340.184V51.053H334.52ZM328.827 5.85376V0.161377H334.52V5.85376H328.827ZM328.827 51.053V45.5022H334.52V51.053H328.827ZM328.827 45.5022V39.8098H334.52V45.5022H328.827ZM328.827 39.8098V34.1458H334.52V39.8098H328.827ZM328.827 34.1458V28.4534H334.52V34.1458H328.827ZM328.827 22.7893V17.0969H334.52V22.7893H328.827ZM328.827 17.0969V11.4045H334.52V17.0969H328.827ZM328.827 11.4045V5.85376H334.52V11.4045H328.827ZM328.827 51.053V56.6604H323.135V51.053H328.827ZM323.135 51.053V45.5022H328.827V51.053H323.135ZM323.135 45.5022V39.8098H328.827V45.5022H323.135ZM323.135 39.8098V34.1458H328.827V39.8098H323.135ZM323.135 34.1458V28.4534H328.827V34.1458H323.135ZM323.135 22.7893V17.0969H328.827V22.7893H323.135ZM323.135 17.0969V11.4045H328.827V17.0969H323.135ZM323.135 11.4045V5.85376H328.827V11.4045H323.135ZM317.584 5.85376V0.161377H323.135V5.85376H317.584ZM323.135 51.053V56.6604H317.584V51.053H323.135ZM317.584 51.053V45.5022H323.135V51.053H317.584ZM317.584 45.5022V39.8098H323.135V45.5022H317.584ZM317.584 39.8098V34.1458H323.135V39.8098H317.584ZM317.584 34.1458V28.4534H323.135V34.1458H317.584ZM317.584 22.7893V17.0969H323.135V22.7893H317.584ZM317.584 17.0969V11.4045H323.135V17.0969H317.584ZM317.584 11.4045V5.85376H323.135V11.4045H317.584ZM311.892 5.85376V0.161377H317.584V5.85376H311.892ZM317.584 51.053V56.6604H311.892V51.053H317.584ZM311.892 51.053V45.5022H317.584V51.053H311.892ZM306.228 5.85376V0.161377H311.892V5.85376H306.228ZM311.892 51.053V56.6604H306.228V51.053H311.892ZM306.228 51.053V45.5022H311.892V51.053H306.228ZM300.535 5.85376V0.161377H306.228V5.85376H300.535ZM300.535 51.053V45.5022H306.228V51.053H300.535ZM300.535 45.5022V39.8098H306.228V45.5022H300.535ZM300.535 39.8098V34.1458H306.228V39.8098H300.535ZM300.535 34.1458V28.4534H306.228V34.1458H300.535ZM300.535 28.4534V22.7893H306.228V28.4534H300.535ZM300.535 22.7893V17.0969H306.228V22.7893H300.535ZM300.535 17.0969V11.4045H306.228V17.0969H300.535ZM300.535 11.4045V5.85376H306.228V11.4045H300.535ZM402.573 51.053V45.5022H408.152V51.053H402.573ZM402.573 45.5022V39.8098H408.152V45.5022H402.573ZM402.573 39.8098V34.1458H408.152V39.8098H402.573ZM402.573 34.1458V28.4534H408.152V34.1458H402.573ZM402.573 28.4534V22.7893H408.152V28.4534H402.573ZM402.573 22.7893V17.0969H408.152V22.7893H402.573ZM402.573 17.0969V11.4045H408.152V17.0969H402.573ZM402.573 51.053V56.6604H396.909V51.053H402.573ZM396.909 51.053V45.5022H402.573V51.053H396.909ZM396.909 45.5022V39.8098H402.573V45.5022H396.909ZM396.909 39.8098V34.1458H402.573V39.8098H396.909ZM396.909 34.1458V28.4534H402.573V34.1458H396.909ZM396.909 28.4534V22.7893H402.573V28.4534H396.909ZM396.909 22.7893V17.0969H402.573V22.7893H396.909ZM396.909 17.0969V11.4045H402.573V17.0969H396.909ZM396.909 11.4045V5.85376H402.573V11.4045H396.909ZM391.217 5.85376V0.161377H396.909V5.85376H391.217ZM396.909 51.053V56.6604H391.217V51.053H396.909ZM391.217 51.053V45.5022H396.909V51.053H391.217ZM391.217 45.5022V39.8098H396.909V45.5022H391.217ZM391.217 11.4045V5.85376H396.909V11.4045H391.217ZM385.553 5.85376V0.161377H391.217V5.85376H385.553ZM391.217 51.053V56.6604H385.553V51.053H391.217ZM385.553 51.053V45.5022H391.217V51.053H385.553ZM379.86 5.85376V0.161377H385.553V5.85376H379.86ZM385.553 51.053V56.6604H379.86V51.053H385.553ZM379.86 51.053V45.5022H385.553V51.053H379.86ZM379.86 39.8098V34.1458H385.553V39.8098H379.86ZM379.86 34.1458V28.4534H385.553V34.1458H379.86ZM379.86 28.4534V22.7893H385.553V28.4534H379.86ZM379.86 22.7893V17.0969H385.553V22.7893H379.86ZM379.86 17.0969V11.4045H385.553V17.0969H379.86ZM374.168 5.85376V0.161377H379.86V5.85376H374.168ZM379.86 51.053V56.6604H374.168V51.053H379.86ZM374.168 51.053V45.5022H379.86V51.053H374.168ZM374.168 39.8098V34.1458H379.86V39.8098H374.168ZM374.168 34.1458V28.4534H379.86V34.1458H374.168ZM374.168 28.4534V22.7893H379.86V28.4534H374.168ZM374.168 22.7893V17.0969H379.86V22.7893H374.168ZM374.168 17.0969V11.4045H379.86V17.0969H374.168ZM368.617 5.85376V0.161377H374.168V5.85376H368.617ZM374.168 51.053V56.6604H368.617V51.053H374.168ZM368.617 51.053V45.5022H374.168V51.053H368.617ZM368.617 39.8098V34.1458H374.168V39.8098H368.617ZM368.617 34.1458V28.4534H374.168V34.1458H368.617ZM368.617 28.4534V22.7893H374.168V28.4534H368.617ZM368.617 22.7893V17.0969H374.168V22.7893H368.617ZM368.617 17.0969V11.4045H374.168V17.0969H368.617ZM362.925 5.85376V0.161377H368.617V5.85376H362.925ZM368.617 51.053V56.6604H362.925V51.053H368.617ZM362.925 51.053V45.5022H368.617V51.053H362.925ZM357.261 5.85376V0.161377H362.925V5.85376H357.261ZM357.261 51.053V45.5022H362.925V51.053H357.261ZM357.261 45.5022V39.8098H362.925V45.5022H357.261ZM357.261 11.4045V5.85376H362.925V11.4045H357.261ZM351.568 45.5022V39.8098H357.261V45.5022H351.568ZM351.568 39.8098V34.1458H357.261V39.8098H351.568ZM351.568 34.1458V28.4534H357.261V34.1458H351.568ZM351.568 28.4534V22.7893H357.261V28.4534H351.568ZM351.568 22.7893V17.0969H357.261V22.7893H351.568ZM351.568 17.0969V11.4045H357.261V17.0969H351.568ZM351.568 11.4045V5.85376H357.261V11.4045H351.568ZM459.186 51.053V56.6604H453.606V51.053H459.186ZM453.606 51.053V45.5022H459.186V51.053H453.606ZM453.606 45.5022V39.8098H459.186V45.5022H453.606ZM453.606 39.8098V34.1458H459.186V39.8098H453.606ZM453.606 34.1458V28.4534H459.186V34.1458H453.606ZM453.606 28.4534V22.7893H459.186V28.4534H453.606ZM453.606 22.7893V17.0969H459.186V22.7893H453.606ZM453.606 17.0969V11.4045H459.186V17.0969H453.606ZM453.606 11.4045V5.85376H459.186V11.4045H453.606ZM447.942 5.85376V0.161377H453.606V5.85376H447.942ZM453.606 51.053V56.6604H447.942V51.053H453.606ZM447.942 51.053V45.5022H453.606V51.053H447.942ZM447.942 45.5022V39.8098H453.606V45.5022H447.942ZM447.942 39.8098V34.1458H453.606V39.8098H447.942ZM447.942 34.1458V28.4534H453.606V34.1458H447.942ZM447.942 28.4534V22.7893H453.606V28.4534H447.942ZM447.942 22.7893V17.0969H453.606V22.7893H447.942ZM447.942 17.0969V11.4045H453.606V17.0969H447.942ZM447.942 11.4045V5.85376H453.606V11.4045H447.942ZM442.25 5.85376V0.161377H447.942V5.85376H442.25ZM447.942 51.053V56.6604H442.25V51.053H447.942ZM442.25 51.053V45.5022H447.942V51.053H442.25ZM436.586 5.85376V0.161377H442.25V5.85376H436.586ZM442.25 51.053V56.6604H436.586V51.053H442.25ZM436.586 51.053V45.5022H442.25V51.053H436.586ZM430.894 5.85376V0.161377H436.586V5.85376H430.894ZM430.894 51.053V45.5022H436.586V51.053H430.894ZM430.894 45.5022V39.8098H436.586V45.5022H430.894ZM430.894 39.8098V34.1458H436.586V39.8098H430.894ZM430.894 22.7893V17.0969H436.586V22.7893H430.894ZM430.894 17.0969V11.4045H436.586V17.0969H430.894ZM430.894 11.4045V5.85376H436.586V11.4045H430.894ZM430.894 51.053V56.6604H425.201V51.053H430.894ZM425.201 51.053V45.5022H430.894V51.053H425.201ZM425.201 45.5022V39.8098H430.894V45.5022H425.201ZM425.201 39.8098V34.1458H430.894V39.8098H425.201ZM425.201 34.1458V28.4534H430.894V34.1458H425.201ZM425.201 17.0969V11.4045H430.894V17.0969H425.201ZM425.201 11.4045V5.85376H430.894V11.4045H425.201ZM419.65 5.85376V0.161377H425.201V5.85376H419.65ZM425.201 51.053V56.6604H419.65V51.053H425.201ZM419.65 51.053V45.5022H425.201V51.053H419.65ZM419.65 45.5022V39.8098H425.201V45.5022H419.65ZM419.65 39.8098V34.1458H425.201V39.8098H419.65ZM419.65 34.1458V28.4534H425.201V34.1458H419.65ZM419.65 28.4534V22.7893H425.201V28.4534H419.65ZM419.65 11.4045V5.85376H425.201V11.4045H419.65ZM413.958 5.85376V0.161377H419.65V5.85376H413.958ZM419.65 51.053V56.6604H413.958V51.053H419.65ZM413.958 51.053V45.5022H419.65V51.053H413.958ZM408.294 5.85376V0.161377H413.958V5.85376H408.294ZM413.958 51.053V56.6604H408.294V51.053H413.958ZM408.294 51.053V45.5022H413.958V51.053H408.294ZM402.602 5.85376V0.161377H408.294V5.85376H402.602ZM402.602 51.053V45.5022H408.294V51.053H402.602ZM402.602 45.5022V39.8098H408.294V45.5022H402.602ZM402.602 39.8098V34.1458H408.294V39.8098H402.602ZM402.602 34.1458V28.4534H408.294V34.1458H402.602ZM402.602 28.4534V22.7893H408.294V28.4534H402.602ZM402.602 22.7893V17.0969H408.294V22.7893H402.602ZM402.602 17.0969V11.4045H408.294V17.0969H402.602ZM402.602 11.4045V5.85376H408.294V11.4045H402.602ZM498.069 51.053V56.6604H492.377V51.053H498.069ZM492.377 51.053V45.5022H498.069V51.053H492.377ZM492.377 45.5022V39.8098H498.069V45.5022H492.377ZM492.377 39.8098V34.1458H498.069V39.8098H492.377ZM492.377 34.1458V28.4534H498.069V34.1458H492.377ZM492.377 28.4534V22.7893H498.069V28.4534H492.377ZM492.377 22.7893V17.0969H498.069V22.7893H492.377ZM492.377 17.0969V11.4045H498.069V17.0969H492.377ZM492.377 11.4045V5.85376H498.069V11.4045H492.377ZM486.826 5.85376V0.161377H492.377V5.85376H486.826ZM492.377 51.053V56.6604H486.826V51.053H492.377ZM486.826 51.053V45.5022H492.377V51.053H486.826ZM486.826 45.5022V39.8098H492.377V45.5022H486.826ZM486.826 39.8098V34.1458H492.377V39.8098H486.826ZM486.826 34.1458V28.4534H492.377V34.1458H486.826ZM486.826 28.4534V22.7893H492.377V28.4534H486.826ZM486.826 22.7893V17.0969H492.377V22.7893H486.826ZM486.826 17.0969V11.4045H492.377V17.0969H486.826ZM486.826 11.4045V5.85376H492.377V11.4045H486.826ZM481.134 5.85376V0.161377H486.826V5.85376H481.134ZM486.826 51.053V56.6604H481.134V51.053H486.826ZM481.134 51.053V45.5022H486.826V51.053H481.134ZM475.47 5.85376V0.161377H481.134V5.85376H475.47ZM481.134 51.053V56.6604H475.47V51.053H481.134ZM475.47 51.053V45.5022H481.134V51.053H475.47ZM469.777 5.85376V0.161377H475.47V5.85376H469.777ZM469.777 51.053V45.5022H475.47V51.053H469.777ZM469.777 45.5022V39.8098H475.47V45.5022H469.777ZM469.777 39.8098V34.1458H475.47V39.8098H469.777ZM469.777 34.1458V28.4534H475.47V34.1458H469.777ZM469.777 28.4534V22.7893H475.47V28.4534H469.777ZM469.777 22.7893V17.0969H475.47V22.7893H469.777ZM469.777 17.0969V11.4045H475.47V17.0969H469.777ZM469.777 11.4045V5.85376H475.47V11.4045H469.777ZM543.382 51.053V45.5022H548.961V51.053H543.382ZM543.382 45.5022V39.8098H548.961V45.5022H543.382ZM543.382 39.8098V34.1458H548.961V39.8098H543.382ZM543.382 34.1458V28.4534H548.961V34.1458H543.382ZM543.382 28.4534V22.7893H548.961V28.4534H543.382ZM543.382 22.7893V17.0969H548.961V22.7893H543.382ZM543.382 17.0969V11.4045H548.961V17.0969H543.382ZM543.382 51.053V56.6604H537.718V51.053H543.382ZM537.718 51.053V45.5022H543.382V51.053H537.718ZM537.718 45.5022V39.8098H543.382V45.5022H537.718ZM537.718 39.8098V34.1458H543.382V39.8098H537.718ZM537.718 34.1458V28.4534H543.382V34.1458H537.718ZM537.718 28.4534V22.7893H543.382V28.4534H537.718ZM537.718 22.7893V17.0969H543.382V22.7893H537.718ZM537.718 17.0969V11.4045H543.382V17.0969H537.718ZM537.718 11.4045V5.85376H543.382V11.4045H537.718ZM532.025 5.85376V0.161377H537.718V5.85376H532.025ZM537.718 51.053V56.6604H532.025V51.053H537.718ZM532.025 51.053V45.5022H537.718V51.053H532.025ZM532.025 45.5022V39.8098H537.718V45.5022H532.025ZM532.025 28.4534V22.7893H537.718V28.4534H532.025ZM532.025 22.7893V17.0969H537.718V22.7893H532.025ZM532.025 11.4045V5.85376H537.718V11.4045H532.025ZM526.361 5.85376V0.161377H532.025V5.85376H526.361ZM532.025 51.053V56.6604H526.361V51.053H532.025ZM526.361 51.053V45.5022H532.025V51.053H526.361ZM526.361 22.7893V17.0969H532.025V22.7893H526.361ZM520.669 5.85376V0.161377H526.361V5.85376H520.669ZM526.361 51.053V56.6604H520.669V51.053H526.361ZM520.669 51.053V45.5022H526.361V51.053H520.669ZM520.669 39.8098V34.1458H526.361V39.8098H520.669ZM520.669 34.1458V28.4534H526.361V34.1458H520.669ZM520.669 22.7893V17.0969H526.361V22.7893H520.669ZM520.669 17.0969V11.4045H526.361V17.0969H520.669ZM514.977 5.85376V0.161377H520.669V5.85376H514.977ZM520.669 51.053V56.6604H514.977V51.053H520.669ZM514.977 51.053V45.5022H520.669V51.053H514.977ZM514.977 39.8098V34.1458H520.669V39.8098H514.977ZM514.977 34.1458V28.4534H520.669V34.1458H514.977ZM514.977 22.7893V17.0969H520.669V22.7893H514.977ZM514.977 17.0969V11.4045H520.669V17.0969H514.977ZM509.426 5.85376V0.161377H514.977V5.85376H509.426ZM514.977 51.053V56.6604H509.426V51.053H514.977ZM509.426 51.053V45.5022H514.977V51.053H509.426ZM509.426 39.8098V34.1458H514.977V39.8098H509.426ZM509.426 34.1458V28.4534H514.977V34.1458H509.426ZM509.426 22.7893V17.0969H514.977V22.7893H509.426ZM509.426 17.0969V11.4045H514.977V17.0969H509.426ZM503.733 5.85376V0.161377H509.426V5.85376H503.733ZM509.426 51.053V56.6604H503.733V51.053H509.426ZM503.733 51.053V45.5022H509.426V51.053H503.733ZM503.733 34.1458V28.4534H509.426V34.1458H503.733ZM498.069 5.85376V0.161377H503.733V5.85376H498.069ZM498.069 51.053V45.5022H503.733V51.053H498.069ZM498.069 45.5022V39.8098H503.733V45.5022H498.069ZM498.069 34.1458V28.4534H503.733V34.1458H498.069ZM498.069 28.4534V22.7893H503.733V28.4534H498.069ZM498.069 11.4045V5.85376H503.733V11.4045H498.069ZM492.377 45.5022V39.8098H498.069V45.5022H492.377ZM492.377 39.8098V34.1458H498.069V39.8098H492.377ZM492.377 34.1458V28.4534H498.069V34.1458H492.377ZM492.377 28.4534V22.7893H498.069V28.4534H492.377ZM492.377 22.7893V17.0969H498.069V22.7893H492.377ZM492.377 17.0969V11.4045H498.069V17.0969H492.377ZM492.377 11.4045V5.85376H498.069V11.4045H492.377ZM51.0049 128.053V122.502H56.584V128.053H51.0049ZM51.0049 122.502V116.81H56.584V122.502H51.0049ZM51.0049 116.81V111.146H56.584V116.81H51.0049ZM51.0049 111.146V105.453H56.584V111.146H51.0049ZM51.0049 105.453V99.7893H56.584V105.453H51.0049ZM51.0049 99.7893V94.0969H56.584V99.7893H51.0049ZM51.0049 94.0969V88.4045H56.584V94.0969H51.0049ZM51.0049 128.053V133.66H45.3408V128.053H51.0049ZM45.3408 128.053V122.502H51.0049V128.053H45.3408ZM45.3408 122.502V116.81H51.0049V122.502H45.3408ZM45.3408 116.81V111.146H51.0049V116.81H45.3408ZM45.3408 111.146V105.453H51.0049V111.146H45.3408ZM45.3408 105.453V99.7893H51.0049V105.453H45.3408ZM45.3408 99.7893V94.0969H51.0049V99.7893H45.3408ZM45.3408 94.0969V88.4045H51.0049V94.0969H45.3408ZM45.3408 88.4045V82.8538H51.0049V88.4045H45.3408ZM39.6484 82.8538V77.1614H45.3408V82.8538H39.6484ZM45.3408 128.053V133.66H39.6484V128.053H45.3408ZM39.6484 128.053V122.502H45.3408V128.053H39.6484ZM39.6484 122.502V116.81H45.3408V122.502H39.6484ZM39.6484 105.453V99.7893H45.3408V105.453H39.6484ZM39.6484 88.4045V82.8538H45.3408V88.4045H39.6484ZM33.9844 82.8538V77.1614H39.6484V82.8538H33.9844ZM39.6484 128.053V133.66H33.9844V128.053H39.6484ZM33.9844 128.053V122.502H39.6484V128.053H33.9844ZM28.292 82.8538V77.1614H33.9844V82.8538H28.292ZM33.9844 128.053V133.66H28.292V128.053H33.9844ZM28.292 128.053V122.502H33.9844V128.053H28.292ZM28.292 116.81V111.146H33.9844V116.81H28.292ZM28.292 111.146V105.453H33.9844V111.146H28.292ZM28.292 99.7893V94.0969H33.9844V99.7893H28.292ZM28.292 94.0969V88.4045H33.9844V94.0969H28.292ZM22.5996 82.8538V77.1614H28.292V82.8538H22.5996ZM28.292 128.053V133.66H22.5996V128.053H28.292ZM22.5996 128.053V122.502H28.292V128.053H22.5996ZM22.5996 116.81V111.146H28.292V116.81H22.5996ZM22.5996 111.146V105.453H28.292V111.146H22.5996ZM22.5996 99.7893V94.0969H28.292V99.7893H22.5996ZM22.5996 94.0969V88.4045H28.292V94.0969H22.5996ZM17.0488 82.8538V77.1614H22.5996V82.8538H17.0488ZM22.5996 128.053V133.66H17.0488V128.053H22.5996ZM17.0488 128.053V122.502H22.5996V128.053H17.0488ZM17.0488 116.81V111.146H22.5996V116.81H17.0488ZM17.0488 111.146V105.453H22.5996V111.146H17.0488ZM17.0488 99.7893V94.0969H22.5996V99.7893H17.0488ZM17.0488 94.0969V88.4045H22.5996V94.0969H17.0488ZM11.3564 82.8538V77.1614H17.0488V82.8538H11.3564ZM17.0488 128.053V133.66H11.3564V128.053H17.0488ZM11.3564 128.053V122.502H17.0488V128.053H11.3564ZM5.69238 82.8538V77.1614H11.3564V82.8538H5.69238ZM11.3564 128.053V133.66H5.69238V128.053H11.3564ZM5.69238 128.053V122.502H11.3564V128.053H5.69238ZM0 82.8538V77.1614H5.69238V82.8538H0ZM0 128.053V122.502H5.69238V128.053H0ZM0 122.502V116.81H5.69238V122.502H0ZM0 116.81V111.146H5.69238V116.81H0ZM0 111.146V105.453H5.69238V111.146H0ZM0 105.453V99.7893H5.69238V105.453H0ZM0 99.7893V94.0969H5.69238V99.7893H0ZM0 94.0969V88.4045H5.69238V94.0969H0ZM0 88.4045V82.8538H5.69238V88.4045H0ZM107.617 128.053V133.66H102.038V128.053H107.617ZM102.038 128.053V122.502H107.617V128.053H102.038ZM102.038 122.502V116.81H107.617V122.502H102.038ZM102.038 116.81V111.146H107.617V116.81H102.038ZM102.038 111.146V105.453H107.617V111.146H102.038ZM102.038 105.453V99.7893H107.617V105.453H102.038ZM102.038 99.7893V94.0969H107.617V99.7893H102.038ZM102.038 94.0969V88.4045H107.617V94.0969H102.038ZM102.038 128.053V133.66H96.374V128.053H102.038ZM96.374 128.053V122.502H102.038V128.053H96.374ZM96.374 122.502V116.81H102.038V122.502H96.374ZM96.374 116.81V111.146H102.038V116.81H96.374ZM96.374 111.146V105.453H102.038V111.146H96.374ZM96.374 105.453V99.7893H102.038V105.453H96.374ZM96.374 99.7893V94.0969H102.038V99.7893H96.374ZM96.374 94.0969V88.4045H102.038V94.0969H96.374ZM96.374 88.4045V82.8538H102.038V88.4045H96.374ZM90.6816 82.8538V77.1614H96.374V82.8538H90.6816ZM96.374 128.053V133.66H90.6816V128.053H96.374ZM90.6816 128.053V122.502H96.374V128.053H90.6816ZM90.6816 88.4045V82.8538H96.374V88.4045H90.6816ZM85.0176 82.8538V77.1614H90.6816V82.8538H85.0176ZM90.6816 128.053V133.66H85.0176V128.053H90.6816ZM85.0176 128.053V122.502H90.6816V128.053H85.0176ZM79.3252 82.8538V77.1614H85.0176V82.8538H79.3252ZM79.3252 128.053V122.502H85.0176V128.053H79.3252ZM79.3252 122.502V116.81H85.0176V122.502H79.3252ZM79.3252 116.81V111.146H85.0176V116.81H79.3252ZM79.3252 105.453V99.7893H85.0176V105.453H79.3252ZM79.3252 99.7893V94.0969H85.0176V99.7893H79.3252ZM79.3252 94.0969V88.4045H85.0176V94.0969H79.3252ZM73.6328 82.8538V77.1614H79.3252V82.8538H73.6328ZM79.3252 128.053V133.66H73.6328V128.053H79.3252ZM73.6328 128.053V122.502H79.3252V128.053H73.6328ZM73.6328 122.502V116.81H79.3252V122.502H73.6328ZM73.6328 116.81V111.146H79.3252V116.81H73.6328ZM73.6328 105.453V99.7893H79.3252V105.453H73.6328ZM73.6328 99.7893V94.0969H79.3252V99.7893H73.6328ZM73.6328 94.0969V88.4045H79.3252V94.0969H73.6328ZM68.082 82.8538V77.1614H73.6328V82.8538H68.082ZM73.6328 128.053V133.66H68.082V128.053H73.6328ZM68.082 128.053V122.502H73.6328V128.053H68.082ZM68.082 122.502V116.81H73.6328V122.502H68.082ZM68.082 116.81V111.146H73.6328V116.81H68.082ZM68.082 105.453V99.7893H73.6328V105.453H68.082ZM68.082 99.7893V94.0969H73.6328V99.7893H68.082ZM68.082 94.0969V88.4045H73.6328V94.0969H68.082ZM62.3896 82.8538V77.1614H68.082V82.8538H62.3896ZM68.082 128.053V133.66H62.3896V128.053H68.082ZM62.3896 128.053V122.502H68.082V128.053H62.3896ZM56.7256 82.8538V77.1614H62.3896V82.8538H56.7256ZM62.3896 128.053V133.66H56.7256V128.053H62.3896ZM56.7256 128.053V122.502H62.3896V128.053H56.7256ZM56.7256 88.4045V82.8538H62.3896V88.4045H56.7256ZM51.0332 128.053V122.502H56.7256V128.053H51.0332ZM51.0332 122.502V116.81H56.7256V122.502H51.0332ZM51.0332 116.81V111.146H56.7256V116.81H51.0332ZM51.0332 111.146V105.453H56.7256V111.146H51.0332ZM51.0332 105.453V99.7893H56.7256V105.453H51.0332ZM51.0332 99.7893V94.0969H56.7256V99.7893H51.0332ZM51.0332 94.0969V88.4045H56.7256V94.0969H51.0332ZM51.0332 88.4045V82.8538H56.7256V88.4045H51.0332ZM153.071 128.053V122.502H158.65V128.053H153.071ZM153.071 122.502V116.81H158.65V122.502H153.071ZM153.071 116.81V111.146H158.65V116.81H153.071ZM153.071 105.453V99.7893H158.65V105.453H153.071ZM153.071 99.7893V94.0969H158.65V99.7893H153.071ZM153.071 94.0969V88.4045H158.65V94.0969H153.071ZM153.071 128.053V133.66H147.407V128.053H153.071ZM147.407 128.053V122.502H153.071V128.053H147.407ZM147.407 122.502V116.81H153.071V122.502H147.407ZM147.407 116.81V111.146H153.071V116.81H147.407ZM147.407 111.146V105.453H153.071V111.146H147.407ZM147.407 105.453V99.7893H153.071V105.453H147.407ZM147.407 99.7893V94.0969H153.071V99.7893H147.407ZM147.407 94.0969V88.4045H153.071V94.0969H147.407ZM147.407 88.4045V82.8538H153.071V88.4045H147.407ZM141.715 82.8538V77.1614H147.407V82.8538H141.715ZM147.407 128.053V133.66H141.715V128.053H147.407ZM141.715 128.053V122.502H147.407V128.053H141.715ZM141.715 122.502V116.81H147.407V122.502H141.715ZM141.715 111.146V105.453H147.407V111.146H141.715ZM141.715 105.453V99.7893H147.407V105.453H141.715ZM141.715 99.7893V94.0969H147.407V99.7893H141.715ZM141.715 88.4045V82.8538H147.407V88.4045H141.715ZM136.051 82.8538V77.1614H141.715V82.8538H136.051ZM141.715 128.053V133.66H136.051V128.053H141.715ZM136.051 128.053V122.502H141.715V128.053H136.051ZM136.051 111.146V105.453H141.715V111.146H136.051ZM136.051 105.453V99.7893H141.715V105.453H136.051ZM136.051 99.7893V94.0969H141.715V99.7893H136.051ZM130.358 82.8538V77.1614H136.051V82.8538H130.358ZM136.051 128.053V133.66H130.358V128.053H136.051ZM130.358 128.053V122.502H136.051V128.053H130.358ZM130.358 116.81V111.146H136.051V116.81H130.358ZM130.358 111.146V105.453H136.051V111.146H130.358ZM130.358 105.453V99.7893H136.051V105.453H130.358ZM130.358 99.7893V94.0969H136.051V99.7893H130.358ZM130.358 94.0969V88.4045H136.051V94.0969H130.358ZM124.666 82.8538V77.1614H130.358V82.8538H124.666ZM130.358 128.053V133.66H124.666V128.053H130.358ZM124.666 128.053V122.502H130.358V128.053H124.666ZM124.666 116.81V111.146H130.358V116.81H124.666ZM124.666 111.146V105.453H130.358V111.146H124.666ZM124.666 105.453V99.7893H130.358V105.453H124.666ZM124.666 99.7893V94.0969H130.358V99.7893H124.666ZM124.666 94.0969V88.4045H130.358V94.0969H124.666ZM119.115 82.8538V77.1614H124.666V82.8538H119.115ZM124.666 128.053V133.66H119.115V128.053H124.666ZM119.115 128.053V122.502H124.666V128.053H119.115ZM119.115 116.81V111.146H124.666V116.81H119.115ZM119.115 111.146V105.453H124.666V111.146H119.115ZM119.115 105.453V99.7893H124.666V105.453H119.115ZM119.115 99.7893V94.0969H124.666V99.7893H119.115ZM119.115 94.0969V88.4045H124.666V94.0969H119.115ZM113.423 82.8538V77.1614H119.115V82.8538H113.423ZM119.115 128.053V133.66H113.423V128.053H119.115ZM113.423 128.053V122.502H119.115V128.053H113.423ZM107.759 82.8538V77.1614H113.423V82.8538H107.759ZM107.759 128.053V122.502H113.423V128.053H107.759ZM107.759 122.502V116.81H113.423V122.502H107.759ZM107.759 88.4045V82.8538H113.423V88.4045H107.759ZM102.066 122.502V116.81H107.759V122.502H102.066ZM102.066 116.81V111.146H107.759V116.81H102.066ZM102.066 111.146V105.453H107.759V111.146H102.066ZM102.066 105.453V99.7893H107.759V105.453H102.066ZM102.066 99.7893V94.0969H107.759V99.7893H102.066ZM102.066 94.0969V88.4045H107.759V94.0969H102.066ZM102.066 88.4045V82.8538H107.759V88.4045H102.066ZM209.684 128.053V133.66H204.104V128.053H209.684ZM204.104 128.053V122.502H209.684V128.053H204.104ZM204.104 122.502V116.81H209.684V122.502H204.104ZM204.104 99.7893V94.0969H209.684V99.7893H204.104ZM204.104 94.0969V88.4045H209.684V94.0969H204.104ZM204.104 88.4045V82.8538H209.684V88.4045H204.104ZM198.44 82.8538V77.1614H204.104V82.8538H198.44ZM204.104 128.053V133.66H198.44V128.053H204.104ZM198.44 128.053V122.502H204.104V128.053H198.44ZM198.44 122.502V116.81H204.104V122.502H198.44ZM198.44 116.81V111.146H204.104V116.81H198.44ZM198.44 105.453V99.7893H204.104V105.453H198.44ZM198.44 99.7893V94.0969H204.104V99.7893H198.44ZM198.44 94.0969V88.4045H204.104V94.0969H198.44ZM198.44 88.4045V82.8538H204.104V88.4045H198.44ZM192.748 82.8538V77.1614H198.44V82.8538H192.748ZM198.44 128.053V133.66H192.748V128.053H198.44ZM192.748 128.053V122.502H198.44V128.053H192.748ZM192.748 116.81V111.146H198.44V116.81H192.748ZM192.748 111.146V105.453H198.44V111.146H192.748ZM192.748 105.453V99.7893H198.44V105.453H192.748ZM192.748 99.7893V94.0969H198.44V99.7893H192.748ZM192.748 94.0969V88.4045H198.44V94.0969H192.748ZM187.084 82.8538V77.1614H192.748V82.8538H187.084ZM192.748 128.053V133.66H187.084V128.053H192.748ZM187.084 128.053V122.502H192.748V128.053H187.084ZM187.084 111.146V105.453H192.748V111.146H187.084ZM187.084 105.453V99.7893H192.748V105.453H187.084ZM187.084 99.7893V94.0969H192.748V99.7893H187.084ZM181.392 82.8538V77.1614H187.084V82.8538H181.392ZM181.392 128.053V122.502H187.084V128.053H181.392ZM181.392 122.502V116.81H187.084V122.502H181.392ZM181.392 105.453V99.7893H187.084V105.453H181.392ZM181.392 88.4045V82.8538H187.084V88.4045H181.392ZM181.392 128.053V133.66H175.699V128.053H181.392ZM175.699 128.053V122.502H181.392V128.053H175.699ZM175.699 122.502V116.81H181.392V122.502H175.699ZM175.699 116.81V111.146H181.392V116.81H175.699ZM175.699 94.0969V88.4045H181.392V94.0969H175.699ZM175.699 88.4045V82.8538H181.392V88.4045H175.699ZM170.148 82.8538V77.1614H175.699V82.8538H170.148ZM175.699 128.053V133.66H170.148V128.053H175.699ZM170.148 128.053V122.502H175.699V128.053H170.148ZM170.148 122.502V116.81H175.699V122.502H170.148ZM170.148 116.81V111.146H175.699V116.81H170.148ZM170.148 111.146V105.453H175.699V111.146H170.148ZM170.148 99.7893V94.0969H175.699V99.7893H170.148ZM170.148 94.0969V88.4045H175.699V94.0969H170.148ZM170.148 88.4045V82.8538H175.699V88.4045H170.148ZM164.456 82.8538V77.1614H170.148V82.8538H164.456ZM170.148 128.053V133.66H164.456V128.053H170.148ZM164.456 128.053V122.502H170.148V128.053H164.456ZM158.792 82.8538V77.1614H164.456V82.8538H158.792ZM164.456 128.053V133.66H158.792V128.053H164.456ZM158.792 128.053V122.502H164.456V128.053H158.792ZM153.1 82.8538V77.1614H158.792V82.8538H153.1ZM153.1 128.053V122.502H158.792V128.053H153.1ZM153.1 122.502V116.81H158.792V122.502H153.1ZM153.1 116.81V111.146H158.792V116.81H153.1ZM153.1 111.146V105.453H158.792V111.146H153.1ZM153.1 105.453V99.7893H158.792V105.453H153.1ZM153.1 99.7893V94.0969H158.792V99.7893H153.1ZM153.1 94.0969V88.4045H158.792V94.0969H153.1ZM153.1 88.4045V82.8538H158.792V88.4045H153.1ZM276.859 128.053V133.66H271.28V128.053H276.859ZM271.28 128.053V122.502H276.859V128.053H271.28ZM271.28 122.502V116.81H276.859V122.502H271.28ZM271.28 111.146V105.453H276.859V111.146H271.28ZM271.28 105.453V99.7893H276.859V105.453H271.28ZM271.28 99.7893V94.0969H276.859V99.7893H271.28ZM271.28 94.0969V88.4045H276.859V94.0969H271.28ZM271.28 128.053V133.66H265.616V128.053H271.28ZM265.616 128.053V122.502H271.28V128.053H265.616ZM265.616 122.502V116.81H271.28V122.502H265.616ZM265.616 116.81V111.146H271.28V116.81H265.616ZM265.616 111.146V105.453H271.28V111.146H265.616ZM265.616 105.453V99.7893H271.28V105.453H265.616ZM265.616 99.7893V94.0969H271.28V99.7893H265.616ZM265.616 94.0969V88.4045H271.28V94.0969H265.616ZM265.616 88.4045V82.8538H271.28V88.4045H265.616ZM259.924 82.8538V77.1614H265.616V82.8538H259.924ZM265.616 128.053V133.66H259.924V128.053H265.616ZM259.924 128.053V122.502H265.616V128.053H259.924ZM259.924 116.81V111.146H265.616V116.81H259.924ZM259.924 111.146V105.453H265.616V111.146H259.924ZM259.924 105.453V99.7893H265.616V105.453H259.924ZM259.924 88.4045V82.8538H265.616V88.4045H259.924ZM254.26 82.8538V77.1614H259.924V82.8538H254.26ZM259.924 128.053V133.66H254.26V128.053H259.924ZM254.26 128.053V122.502H259.924V128.053H254.26ZM254.26 116.81V111.146H259.924V116.81H254.26ZM254.26 111.146V105.453H259.924V111.146H254.26ZM248.567 82.8538V77.1614H254.26V82.8538H248.567ZM254.26 128.053V133.66H248.567V128.053H254.26ZM248.567 128.053V122.502H254.26V128.053H248.567ZM248.567 116.81V111.146H254.26V116.81H248.567ZM248.567 94.0969V88.4045H254.26V94.0969H248.567ZM242.875 82.8538V77.1614H248.567V82.8538H242.875ZM248.567 128.053V133.66H242.875V128.053H248.567ZM242.875 128.053V122.502H248.567V128.053H242.875ZM242.875 99.7893V94.0969H248.567V99.7893H242.875ZM242.875 94.0969V88.4045H248.567V94.0969H242.875ZM237.324 82.8538V77.1614H242.875V82.8538H237.324ZM242.875 128.053V133.66H237.324V128.053H242.875ZM237.324 128.053V122.502H242.875V128.053H237.324ZM237.324 105.453V99.7893H242.875V105.453H237.324ZM237.324 99.7893V94.0969H242.875V99.7893H237.324ZM237.324 94.0969V88.4045H242.875V94.0969H237.324ZM231.632 82.8538V77.1614H237.324V82.8538H231.632ZM237.324 128.053V133.66H231.632V128.053H237.324ZM231.632 128.053V122.502H237.324V128.053H231.632ZM231.632 111.146V105.453H237.324V111.146H231.632ZM231.632 105.453V99.7893H237.324V105.453H231.632ZM225.968 82.8538V77.1614H231.632V82.8538H225.968ZM231.632 128.053V133.66H225.968V128.053H231.632ZM225.968 128.053V122.502H231.632V128.053H225.968ZM225.968 116.81V111.146H231.632V116.81H225.968ZM225.968 111.146V105.453H231.632V111.146H225.968ZM225.968 105.453V99.7893H231.632V105.453H225.968ZM225.968 88.4045V82.8538H231.632V88.4045H225.968ZM220.275 128.053V122.502H225.968V128.053H220.275ZM220.275 122.502V116.81H225.968V122.502H220.275ZM220.275 116.81V111.146H225.968V116.81H220.275ZM220.275 105.453V99.7893H225.968V105.453H220.275ZM220.275 99.7893V94.0969H225.968V99.7893H220.275ZM220.275 94.0969V88.4045H225.968V94.0969H220.275ZM220.275 88.4045V82.8538H225.968V88.4045H220.275ZM322.313 128.053V122.502H327.893V128.053H322.313ZM322.313 122.502V116.81H327.893V122.502H322.313ZM322.313 116.81V111.146H327.893V116.81H322.313ZM322.313 111.146V105.453H327.893V111.146H322.313ZM322.313 105.453V99.7893H327.893V105.453H322.313ZM322.313 99.7893V94.0969H327.893V99.7893H322.313ZM322.313 94.0969V88.4045H327.893V94.0969H322.313ZM322.313 128.053V133.66H316.649V128.053H322.313ZM316.649 128.053V122.502H322.313V128.053H316.649ZM316.649 122.502V116.81H322.313V122.502H316.649ZM316.649 116.81V111.146H322.313V116.81H316.649ZM316.649 111.146V105.453H322.313V111.146H316.649ZM316.649 105.453V99.7893H322.313V105.453H316.649ZM316.649 99.7893V94.0969H322.313V99.7893H316.649ZM316.649 94.0969V88.4045H322.313V94.0969H316.649ZM316.649 88.4045V82.8538H322.313V88.4045H316.649ZM310.957 82.8538V77.1614H316.649V82.8538H310.957ZM316.649 128.053V133.66H310.957V128.053H316.649ZM310.957 128.053V122.502H316.649V128.053H310.957ZM310.957 122.502V116.81H316.649V122.502H310.957ZM310.957 88.4045V82.8538H316.649V88.4045H310.957ZM305.293 82.8538V77.1614H310.957V82.8538H305.293ZM310.957 128.053V133.66H305.293V128.053H310.957ZM305.293 128.053V122.502H310.957V128.053H305.293ZM299.601 82.8538V77.1614H305.293V82.8538H299.601ZM305.293 128.053V133.66H299.601V128.053H305.293ZM299.601 128.053V122.502H305.293V128.053H299.601ZM299.601 116.81V111.146H305.293V116.81H299.601ZM299.601 111.146V105.453H305.293V111.146H299.601ZM299.601 105.453V99.7893H305.293V105.453H299.601ZM299.601 94.0969V88.4045H305.293V94.0969H299.601ZM293.908 82.8538V77.1614H299.601V82.8538H293.908ZM299.601 128.053V133.66H293.908V128.053H299.601ZM293.908 128.053V122.502H299.601V128.053H293.908ZM293.908 116.81V111.146H299.601V116.81H293.908ZM293.908 111.146V105.453H299.601V111.146H293.908ZM293.908 99.7893V94.0969H299.601V99.7893H293.908ZM293.908 94.0969V88.4045H299.601V94.0969H293.908ZM288.357 82.8538V77.1614H293.908V82.8538H288.357ZM293.908 128.053V133.66H288.357V128.053H293.908ZM288.357 128.053V122.502H293.908V128.053H288.357ZM288.357 116.81V111.146H293.908V116.81H288.357ZM288.357 105.453V99.7893H293.908V105.453H288.357ZM288.357 99.7893V94.0969H293.908V99.7893H288.357ZM288.357 94.0969V88.4045H293.908V94.0969H288.357ZM282.665 82.8538V77.1614H288.357V82.8538H282.665ZM288.357 128.053V133.66H282.665V128.053H288.357ZM282.665 128.053V122.502H288.357V128.053H282.665ZM277.001 82.8538V77.1614H282.665V82.8538H277.001ZM277.001 128.053V122.502H282.665V128.053H277.001ZM277.001 122.502V116.81H282.665V122.502H277.001ZM277.001 88.4045V82.8538H282.665V88.4045H277.001ZM271.309 122.502V116.81H277.001V122.502H271.309ZM271.309 116.81V111.146H277.001V116.81H271.309ZM271.309 111.146V105.453H277.001V111.146H271.309ZM271.309 105.453V99.7893H277.001V105.453H271.309ZM271.309 99.7893V94.0969H277.001V99.7893H271.309ZM271.309 94.0969V88.4045H277.001V94.0969H271.309ZM271.309 88.4045V82.8538H277.001V88.4045H271.309ZM378.926 128.053V133.66H373.347V128.053H378.926ZM373.347 128.053V122.502H378.926V128.053H373.347ZM373.347 122.502V116.81H378.926V122.502H373.347ZM373.347 111.146V105.453H378.926V111.146H373.347ZM373.347 105.453V99.7893H378.926V105.453H373.347ZM373.347 99.7893V94.0969H378.926V99.7893H373.347ZM373.347 94.0969V88.4045H378.926V94.0969H373.347ZM373.347 128.053V133.66H367.683V128.053H373.347ZM367.683 128.053V122.502H373.347V128.053H367.683ZM367.683 122.502V116.81H373.347V122.502H367.683ZM367.683 116.81V111.146H373.347V116.81H367.683ZM367.683 111.146V105.453H373.347V111.146H367.683ZM367.683 105.453V99.7893H373.347V105.453H367.683ZM367.683 99.7893V94.0969H373.347V99.7893H367.683ZM367.683 94.0969V88.4045H373.347V94.0969H367.683ZM367.683 88.4045V82.8538H373.347V88.4045H367.683ZM361.99 82.8538V77.1614H367.683V82.8538H361.99ZM367.683 128.053V133.66H361.99V128.053H367.683ZM361.99 128.053V122.502H367.683V128.053H361.99ZM361.99 116.81V111.146H367.683V116.81H361.99ZM361.99 111.146V105.453H367.683V111.146H361.99ZM361.99 105.453V99.7893H367.683V105.453H361.99ZM361.99 88.4045V82.8538H367.683V88.4045H361.99ZM356.326 82.8538V77.1614H361.99V82.8538H356.326ZM361.99 128.053V133.66H356.326V128.053H361.99ZM356.326 128.053V122.502H361.99V128.053H356.326ZM356.326 116.81V111.146H361.99V116.81H356.326ZM356.326 111.146V105.453H361.99V111.146H356.326ZM350.634 82.8538V77.1614H356.326V82.8538H350.634ZM356.326 128.053V133.66H350.634V128.053H356.326ZM350.634 128.053V122.502H356.326V128.053H350.634ZM350.634 116.81V111.146H356.326V116.81H350.634ZM350.634 94.0969V88.4045H356.326V94.0969H350.634ZM344.941 82.8538V77.1614H350.634V82.8538H344.941ZM350.634 128.053V133.66H344.941V128.053H350.634ZM344.941 128.053V122.502H350.634V128.053H344.941ZM344.941 99.7893V94.0969H350.634V99.7893H344.941ZM344.941 94.0969V88.4045H350.634V94.0969H344.941ZM339.391 82.8538V77.1614H344.941V82.8538H339.391ZM344.941 128.053V133.66H339.391V128.053H344.941ZM339.391 128.053V122.502H344.941V128.053H339.391ZM339.391 105.453V99.7893H344.941V105.453H339.391ZM339.391 99.7893V94.0969H344.941V99.7893H339.391ZM339.391 94.0969V88.4045H344.941V94.0969H339.391ZM333.698 82.8538V77.1614H339.391V82.8538H333.698ZM339.391 128.053V133.66H333.698V128.053H339.391ZM333.698 128.053V122.502H339.391V128.053H333.698ZM333.698 111.146V105.453H339.391V111.146H333.698ZM333.698 105.453V99.7893H339.391V105.453H333.698ZM328.034 82.8538V77.1614H333.698V82.8538H328.034ZM333.698 128.053V133.66H328.034V128.053H333.698ZM328.034 128.053V122.502H333.698V128.053H328.034ZM328.034 116.81V111.146H333.698V116.81H328.034ZM328.034 111.146V105.453H333.698V111.146H328.034ZM328.034 105.453V99.7893H333.698V105.453H328.034ZM328.034 88.4045V82.8538H333.698V88.4045H328.034ZM322.342 128.053V122.502H328.034V128.053H322.342ZM322.342 122.502V116.81H328.034V122.502H322.342ZM322.342 116.81V111.146H328.034V116.81H322.342ZM322.342 105.453V99.7893H328.034V105.453H322.342ZM322.342 99.7893V94.0969H328.034V99.7893H322.342ZM322.342 94.0969V88.4045H328.034V94.0969H322.342ZM322.342 88.4045V82.8538H328.034V88.4045H322.342ZM424.38 128.053V122.502H429.959V128.053H424.38ZM424.38 122.502V116.81H429.959V122.502H424.38ZM424.38 116.81V111.146H429.959V116.81H424.38ZM424.38 111.146V105.453H429.959V111.146H424.38ZM424.38 105.453V99.7893H429.959V105.453H424.38ZM424.38 99.7893V94.0969H429.959V99.7893H424.38ZM424.38 94.0969V88.4045H429.959V94.0969H424.38ZM424.38 88.4045V82.8538H429.959V88.4045H424.38ZM424.38 82.8538V77.1614H429.959V82.8538H424.38ZM418.716 82.8538V77.1614H424.38V82.8538H418.716ZM424.38 128.053V133.66H418.716V128.053H424.38ZM418.716 128.053V122.502H424.38V128.053H418.716ZM418.716 122.502V116.81H424.38V122.502H418.716ZM418.716 116.81V111.146H424.38V116.81H418.716ZM418.716 111.146V105.453H424.38V111.146H418.716ZM418.716 105.453V99.7893H424.38V105.453H418.716ZM418.716 99.7893V94.0969H424.38V99.7893H418.716ZM418.716 94.0969V88.4045H424.38V94.0969H418.716ZM418.716 88.4045V82.8538H424.38V88.4045H418.716ZM413.023 82.8538V77.1614H418.716V82.8538H413.023ZM418.716 128.053V133.66H413.023V128.053H418.716ZM413.023 128.053V122.502H418.716V128.053H413.023ZM413.023 122.502V116.81H418.716V122.502H413.023ZM413.023 99.7893V94.0969H418.716V99.7893H413.023ZM413.023 94.0969V88.4045H418.716V94.0969H413.023ZM407.359 82.8538V77.1614H413.023V82.8538H407.359ZM413.023 128.053V133.66H407.359V128.053H413.023ZM407.359 128.053V122.502H413.023V128.053H407.359ZM407.359 94.0969V88.4045H413.023V94.0969H407.359ZM401.667 82.8538V77.1614H407.359V82.8538H401.667ZM407.359 128.053V133.66H401.667V128.053H407.359ZM401.667 128.053V122.502H407.359V128.053H401.667ZM401.667 116.81V111.146H407.359V116.81H401.667ZM401.667 111.146V105.453H407.359V111.146H401.667ZM401.667 105.453V99.7893H407.359V105.453H401.667ZM401.667 94.0969V88.4045H407.359V94.0969H401.667ZM395.975 82.8538V77.1614H401.667V82.8538H395.975ZM401.667 128.053V133.66H395.975V128.053H401.667ZM395.975 128.053V122.502H401.667V128.053H395.975ZM395.975 116.81V111.146H401.667V116.81H395.975ZM395.975 111.146V105.453H401.667V111.146H395.975ZM395.975 105.453V99.7893H401.667V105.453H395.975ZM395.975 94.0969V88.4045H401.667V94.0969H395.975ZM390.424 82.8538V77.1614H395.975V82.8538H390.424ZM395.975 128.053V133.66H390.424V128.053H395.975ZM390.424 128.053V122.502H395.975V128.053H390.424ZM390.424 116.81V111.146H395.975V116.81H390.424ZM390.424 111.146V105.453H395.975V111.146H390.424ZM390.424 105.453V99.7893H395.975V105.453H390.424ZM390.424 94.0969V88.4045H395.975V94.0969H390.424ZM384.731 82.8538V77.1614H390.424V82.8538H384.731ZM390.424 128.053V133.66H384.731V128.053H390.424ZM384.731 128.053V122.502H390.424V128.053H384.731ZM384.731 111.146V105.453H390.424V111.146H384.731ZM384.731 105.453V99.7893H390.424V105.453H384.731ZM379.067 82.8538V77.1614H384.731V82.8538H379.067ZM379.067 128.053V122.502H384.731V128.053H379.067ZM379.067 122.502V116.81H384.731V122.502H379.067ZM379.067 111.146V105.453H384.731V111.146H379.067ZM379.067 105.453V99.7893H384.731V105.453H379.067ZM373.375 82.8538V77.1614H379.067V82.8538H373.375ZM373.375 122.502V116.81H379.067V122.502H373.375ZM373.375 116.81V111.146H379.067V116.81H373.375ZM373.375 111.146V105.453H379.067V111.146H373.375ZM373.375 105.453V99.7893H379.067V105.453H373.375ZM373.375 99.7893V94.0969H379.067V99.7893H373.375ZM373.375 94.0969V88.4045H379.067V94.0969H373.375ZM373.375 88.4045V82.8538H379.067V88.4045H373.375Z" fill="#ABD40F"/>
</svg>
