<svg width="82" height="84" viewBox="0 0 82 84" fill="none" xmlns="http://www.w3.org/2000/svg">
<path d="M28.9648 36.1974L37.3029 39.0405L35.4582 30.5512C35.3733 30.1663 35.4508 29.7633 35.6685 29.4329C37.7013 26.3429 38.7713 22.7591 38.7713 19.0769C38.7713 8.55826 30.0754 0 19.3875 0C8.69592 0 0 8.55826 0 19.0769C0 29.5993 8.69592 38.1575 19.3875 38.1575C22.3243 38.1575 25.1689 37.5257 27.8142 36.2657C28.1721 36.0951 28.5884 36.0703 28.9648 36.1974ZM20.8997 31.045C20.8997 31.8656 20.2246 32.5337 19.3907 32.5337C18.5532 32.5337 17.878 31.8693 17.878 31.045L17.8743 16.0051C17.8743 15.1808 18.5495 14.5163 19.387 14.5163C20.2208 14.5163 20.896 15.1844 20.896 16.0051L20.8997 31.045ZM20.8997 9.4732C20.8997 10.2938 20.2246 10.9619 19.3907 10.9619C18.5532 10.9619 17.878 10.2975 17.878 9.4732V8.77605C17.878 7.95544 18.5569 7.2873 19.3907 7.2873C20.2245 7.2873 20.8997 7.9554 20.8997 8.77605V9.4732ZM81.9997 37.2069V70.4304C81.9997 71.4434 81.1622 72.2641 80.1328 72.2641H71.8612V70.4704C71.8612 65.3507 67.6294 61.1859 62.4273 61.1859H59.6492L60.3428 60.5432C62.5639 58.4845 63.822 55.645 63.822 52.6385C63.822 46.6474 58.8671 41.7713 52.7799 41.7713C46.6924 41.7713 41.7379 46.6477 41.7379 52.6385C41.7379 55.6414 42.9959 58.4845 45.2133 60.5432L45.9069 61.1859H43.1325C37.9304 61.1859 33.695 65.3507 33.695 70.4704V72.2641H25.4233C24.394 72.2641 23.5601 71.4435 23.5601 70.4304L23.5638 40.754C25.3273 40.4018 26.7625 39.9879 28.419 39.2689L28.5555 39.2108L38.8486 42.7183C39.9518 43.0959 41.066 42.1373 40.8224 41.0008L39.5975 35.3727H80.1331C81.1624 35.3727 81.9997 36.1902 81.9997 37.2069ZM52.7791 60.529C48.3592 60.529 44.762 56.9888 44.762 52.6388C44.762 48.2852 48.3592 44.745 52.7791 44.745C57.2027 44.745 60.7999 48.2852 60.7999 52.6388C60.7999 56.9888 57.199 60.529 52.7791 60.529ZM43.1349 64.16H62.4271C65.9615 64.16 68.8356 66.9885 68.8356 70.467V72.2608L36.7192 72.2644V70.4707C36.7192 66.9885 39.5967 64.16 43.1349 64.16ZM72.3518 82.1409C72.3518 83.1685 71.5032 84 70.4628 84H35.1001C34.056 84 33.2111 83.1685 33.2111 82.1409C33.2111 81.1133 34.0597 80.2818 35.1001 80.2818H50.8911V75.6088H54.669V80.2818H70.4637C71.5042 80.2818 72.3518 81.117 72.3518 82.1409Z" fill="black"/>
</svg>
