<svg width="20" height="21" viewBox="0 0 20 21" fill="none" xmlns="http://www.w3.org/2000/svg">
<path d="M-0.00244134 10.4305C-0.00244135 8.96571 0.28054 7.60906 0.846502 6.36061C1.41246 5.11217 2.1865 4.03018 3.16861 3.11466C4.15072 2.19913 5.28265 1.50416 6.56439 1.02975C7.84612 0.55534 9.21941 0.368073 10.6843 0.467949C10.9672 0.501241 11.192 0.621924 11.3584 0.829998C11.5249 1.03807 11.5831 1.2836 11.5332 1.56658C11.4833 1.84956 11.3459 2.07428 11.1212 2.24074C10.8965 2.4072 10.6426 2.48211 10.3597 2.46546C9.21109 2.41553 8.13327 2.57782 7.12619 2.95236C6.11911 3.32689 5.23271 3.88037 4.467 4.61279C3.70128 5.34521 3.09787 6.20664 2.65675 7.19707C2.21563 8.18751 1.99507 9.26533 1.99507 10.4305C1.99507 12.6611 2.76911 14.5504 4.31718 16.0985C5.86526 17.6466 7.75457 18.4206 9.98513 18.4206C11.1337 18.4206 12.2032 18.2 13.1936 17.7589C14.1841 17.3178 15.0455 16.7144 15.7779 15.9487C16.5436 15.1497 17.1096 14.2425 17.4758 13.2271C17.842 12.2117 18.0002 11.1546 17.9502 10.056C17.9336 9.77303 18.0085 9.51918 18.1749 9.29446C18.3414 9.06974 18.5661 8.93241 18.8491 8.88248C19.1321 8.83254 19.3776 8.8908 19.5857 9.05726C19.7938 9.22372 19.9144 9.44844 19.9477 9.73142C20.0476 11.1796 19.8603 12.5446 19.3859 13.8263C18.9115 15.1081 18.2249 16.24 17.326 17.2221C16.3772 18.2541 15.2702 19.0448 14.0051 19.5941C12.74 20.1435 11.4 20.4181 9.98513 20.4181C8.60351 20.4181 7.30513 20.1559 6.08998 19.6316C4.87482 19.1073 3.8178 18.3956 2.91892 17.4968C2.02004 16.5979 1.30843 15.5409 0.78408 14.3257C0.259732 13.1105 -0.00244133 11.8122 -0.00244134 10.4305ZM15.9777 7.43428C15.1454 7.43428 14.4379 7.14297 13.8553 6.56037C13.2727 5.97776 12.9814 5.27031 12.9814 4.43801C12.9814 3.60571 13.2727 2.89826 13.8553 2.31565C14.4379 1.73304 15.1454 1.44174 15.9777 1.44174C16.81 1.44174 17.5174 1.73304 18.1 2.31565C18.6826 2.89826 18.9739 3.60571 18.9739 4.43801C18.9739 5.27031 18.6826 5.97776 18.1 6.56037C17.5174 7.14297 16.81 7.43428 15.9777 7.43428Z" fill="#ABD40F"/>
</svg>
