<svg width="17" height="13" viewBox="0 0 17 13" fill="none" xmlns="http://www.w3.org/2000/svg">
<path d="M9.41315 8.82405L9.42411 8.81567L9.4346 8.80669L15.6094 3.51896V10.8453C15.6094 11.1371 15.4935 11.4168 15.2872 11.6231C15.0809 11.8294 14.8011 11.9453 14.5094 11.9453H1.70938C1.41764 11.9453 1.13785 11.8294 0.931558 11.6231C0.725267 11.4168 0.609375 11.1371 0.609375 10.8453V3.51869L6.82343 8.83796L6.83548 8.84827L6.84817 8.85781C7.20814 9.12836 7.64648 9.27423 8.09679 9.27331L8.0986 9.2733C8.574 9.27062 9.03554 9.11289 9.41315 8.82405ZM14.6113 0.950826L8.10938 6.51825L1.6075 0.950826C1.64167 0.947366 1.6761 0.945515 1.7107 0.945312H14.5081C14.5426 0.945515 14.5771 0.947366 14.6113 0.950826Z" fill="#9CA3AF" stroke="#9CA3AF"/>
</svg>
