<svg width="196" height="885" viewBox="0 0 196 885" fill="none" xmlns="http://www.w3.org/2000/svg">
<g style="mix-blend-mode:luminosity">
<mask id="mask0_282_2132" style="mask-type:alpha" maskUnits="userSpaceOnUse" x="0" y="-29" width="196" height="987">
<path d="M98.0285 749.151C94.4954 763.012 83.8963 766.273 73.8407 766.817L46.6634 768.175C31.7159 768.991 27.3675 773.067 27.3675 782.579L27.3675 786.928L2.90796 786.928L2.90796 771.708C2.90796 754.859 12.42 742.901 33.0747 741.542L69.4923 739.367C81.9939 738.552 85.7987 735.834 85.7987 724.42L110.258 724.42C110.258 735.834 114.063 738.552 126.565 739.367L162.982 741.542C183.637 742.901 193.149 754.859 193.149 771.708L193.149 786.928L168.689 786.928L168.689 782.579C168.689 773.067 164.341 768.991 149.394 768.175L122.216 766.817C112.161 766.273 101.562 763.012 98.0285 749.151Z" fill="black"/>
<path d="M98.0285 833.357C101.562 819.497 112.161 816.235 122.216 815.692L149.394 814.333C164.341 813.518 168.689 809.441 168.689 799.929L168.689 795.581L193.149 795.581L193.149 810.8C193.149 827.65 183.637 839.608 162.982 840.967L126.565 843.141C114.063 843.956 110.258 846.674 110.258 858.088L85.7987 858.088C85.7987 846.674 81.9939 843.956 69.4923 843.141L33.0748 840.967C12.42 839.608 2.90796 827.65 2.90796 810.8L2.90796 795.581L27.3675 795.581L27.3675 799.929C27.3675 809.441 31.7159 813.518 46.6634 814.333L73.8407 815.692C83.8963 816.235 94.4954 819.497 98.0285 833.357Z" fill="black"/>
<path fill-rule="evenodd" clip-rule="evenodd" d="M122.216 868.346L122.216 896.611L149.394 896.611C162.982 896.611 167.874 902.59 167.874 912.102C167.874 921.614 162.982 927.593 149.394 927.593L46.6635 927.593C33.0748 927.593 27.9112 921.614 27.9112 912.102C27.9112 902.59 33.0748 896.611 46.6635 896.611L67.0465 896.611L67.0465 868.346L48.5659 868.346C18.1273 868.346 0.733883 883.566 0.733885 912.917C0.733886 942.269 18.1273 957.488 48.5659 957.488L147.491 957.488C177.93 957.488 195.323 942.269 195.323 912.917C195.323 883.566 177.93 868.346 147.491 868.346L122.216 868.346ZM122.216 441.177L122.216 412.912L147.491 412.912C177.93 412.912 195.323 428.132 195.323 457.483C195.323 486.835 177.93 502.054 147.491 502.054L48.5659 502.054C18.1274 502.054 0.733906 486.835 0.733905 457.483C0.733904 428.132 18.1273 412.912 48.5659 412.912L67.0465 412.912L67.0465 441.177L46.6635 441.177C33.0749 441.177 27.9112 447.156 27.9112 456.668C27.9112 466.18 33.0749 472.159 46.6635 472.159L149.394 472.159C162.982 472.159 167.874 466.18 167.874 456.668C167.874 447.156 162.982 441.177 149.394 441.177L122.216 441.177ZM193.149 332.266L193.149 301.828C186.083 304.817 179.289 305.089 170.048 305.089L140.697 305.089C120.857 305.089 106.725 309.981 100.475 324.928L99.931 324.928C93.6802 311.612 81.1786 305.361 61.611 305.361L46.6635 305.361C17.312 305.361 2.90803 318.678 2.90803 349.66L2.90803 394.774L193.149 394.774L193.149 364.879L115.694 364.879L115.694 354.552C115.694 340.963 122.216 334.984 139.882 334.984L169.777 334.984C185.003 334.984 188.151 333.934 192.9 332.349L193.149 332.266ZM30.0853 364.879L30.0853 350.475C30.0853 339.876 36.0643 335.256 49.653 335.256L68.4053 335.256C83.6246 335.256 88.5165 342.05 88.5165 353.193L88.5165 364.879L30.0853 364.879ZM2.90803 219.116L193.149 188.677L193.149 218.844L158.634 224.008L158.634 260.697L193.149 265.861L193.149 293.31L2.90803 262.871L2.90803 219.116ZM36.6079 242.76L132.815 256.892L132.815 228.084L36.6079 242.216L36.6079 242.76ZM87.4294 144.861L30.0853 144.861L30.0853 95.6699L2.90803 95.6699L2.90803 174.756L193.149 174.756L193.149 144.861L114.607 144.861L114.607 106.269L87.4294 106.269L87.4294 144.861ZM2.90803 90.0334L30.0853 90.0334L30.0853 58.7795L193.149 58.7795L193.149 28.8846L30.0853 28.8846L30.0853 -2.36933L2.90803 -2.36932L2.90803 90.0334ZM83.081 569.77L30.0853 569.77L30.0853 518.134L2.90803 518.134L2.90803 599.665L193.149 599.665L193.149 518.134L165.972 518.134L165.972 569.77L110.258 569.77L110.258 528.733L83.081 528.733L83.081 569.77ZM193.149 710.606L2.90803 710.606L2.90803 663.318C2.90803 633.423 19.4862 618.747 49.9248 618.747L146.132 618.747C176.571 618.747 193.149 633.423 193.149 663.318L193.149 710.606ZM30.0853 663.861L30.0853 680.711L165.972 680.711L165.972 663.861C165.972 654.349 161.08 648.642 147.491 648.642L48.5659 648.642C34.9772 648.642 30.0853 654.349 30.0853 663.861Z" fill="white"/>
</mask>
<g mask="url(#mask0_282_2132)">
<rect x="2.90796" y="5.7085" width="192.415" height="883.927" fill="#C3E00F"/>
</g>
</g>
</svg>
