<svg width="144" height="29" viewBox="0 0 144 29" fill="none" xmlns="http://www.w3.org/2000/svg">
<g id="Group 16">
<g id="C{}decraft.">
<path id="Vector" d="M139.791 24.4109H144V28.6197H139.791V24.4109Z" fill="#ABD40F"/>
<path id="Vector_2" d="M30.437 14.7228C28.412 14.2066 27.9356 12.6581 27.8562 11.189L27.6576 7.21848C27.5385 5.03469 26.9429 4.39941 25.5533 4.39941H24.918V0.825928H27.1415C29.6032 0.825928 31.3502 2.21561 31.5488 5.23322L31.8664 10.5537C31.9855 12.3802 32.3826 12.936 34.0502 12.936V16.5095C32.3826 16.5095 31.9855 17.0654 31.8664 18.8918L31.5488 24.2124C31.3502 27.23 29.6032 28.6196 27.1415 28.6196H24.918V25.0462H25.5533C26.9429 25.0462 27.5385 24.4109 27.6576 22.2271L27.8562 18.2566C27.9356 16.7875 28.412 15.239 30.437 14.7228Z" fill="#ABD40F"/>
<path id="Vector_3" d="M18.1347 14.7228C20.1596 15.239 20.6361 16.7875 20.7155 18.2566L20.914 22.2271C21.0332 24.4109 21.6287 25.0462 23.0184 25.0462H23.6537V28.6196H21.4302C18.9685 28.6196 17.2214 27.23 17.0229 24.2124L16.7053 18.8918C16.5862 17.0654 16.1891 16.5095 14.5215 16.5095V12.936C16.1891 12.936 16.5862 12.3802 16.7053 10.5537L17.0229 5.23322C17.2214 2.21561 18.9685 0.825928 21.4302 0.825928H23.6537V4.39941H23.0184C21.6287 4.39941 21.0332 5.03469 20.914 7.21848L20.7155 11.189C20.6361 12.6581 20.1596 14.2066 18.1347 14.7228Z" fill="#ABD40F"/>
</g>
<path id="Union" fill-rule="evenodd" clip-rule="evenodd" d="M13.0233 18.2566H8.89399V22.2271C8.89399 24.2124 8.02047 24.9271 6.63079 24.9271C5.2411 24.9271 4.36758 24.2124 4.36758 22.2271V7.2185C4.36758 5.23323 5.2411 4.47883 6.63079 4.47883C8.02047 4.47883 8.89399 5.23323 8.89399 7.2185V10.1964H13.0233V7.49643C13.0233 3.04944 10.7998 0.508301 6.51167 0.508301C2.2235 0.508301 0 3.04944 0 7.49643V21.9492C0 26.3962 2.2235 28.9373 6.51167 28.9373C10.7998 28.9373 13.0233 26.3962 13.0233 21.9492V18.2566ZM75.4314 18.2566H79.5608V21.9492C79.5608 26.3962 77.3373 28.9373 73.0491 28.9373C68.7609 28.9373 66.5374 26.3962 66.5374 21.9492V7.49643C66.5374 3.04944 68.7609 0.508301 73.0491 0.508301C77.3373 0.508301 79.5608 3.04944 79.5608 7.49643V10.1964H75.4314V7.2185C75.4314 5.23323 74.5579 4.47883 73.1682 4.47883C71.7785 4.47883 70.905 5.23323 70.905 7.2185V22.2271C70.905 24.2124 71.7785 24.9271 73.1682 24.9271C74.5579 24.9271 75.4314 24.2124 75.4314 22.2271V18.2566ZM91.343 28.6196H95.79C95.3532 27.5873 95.3135 26.5947 95.3135 25.2447V20.9565C95.3135 18.058 94.5988 15.9934 92.415 15.0801V15.0007C94.3606 14.0875 95.2738 12.2611 95.2738 9.40227V7.21848C95.2738 2.93031 93.3283 0.825925 88.8019 0.825925H82.2108V28.6196H86.5784V17.3036H88.0872C90.0724 17.3036 90.9459 18.2566 90.9459 20.8374V25.205C90.9459 27.4296 91.0994 27.8895 91.3309 28.5833L91.343 28.6196ZM86.5784 4.79646H88.6827C90.2312 4.79646 90.9062 5.66997 90.9062 7.65524V10.3949C90.9062 12.6184 89.9136 13.3331 88.2857 13.3331H86.5784V4.79646ZM107.874 0.825925L112.321 28.6196H107.914L107.159 23.5771H101.799L101.045 28.6196H97.0345L101.482 0.825925H107.874ZM104.42 5.74938L102.355 19.8051H106.564L104.499 5.74938H104.42ZM118.723 13.1743V4.79646H125.909V0.825925H114.355V28.6196H118.723V17.1448H124.361V13.1743H118.723ZM126.733 0.825925V4.79646H131.299V28.6196H135.667V4.79646H140.233V0.825925H126.733ZM56.6443 12.539V4.79646H64.1883V0.825925H52.2767V28.6196H64.1883V24.6491H56.6443V16.5095H62.6398V12.539H56.6443ZM36.0689 28.6196V0.825925H42.9776C47.3452 0.825925 49.4893 3.24795 49.4893 7.69495V21.7506C49.4893 26.1976 47.3452 28.6196 42.9776 28.6196H36.0689ZM42.8982 4.79646H40.4364V24.6491H42.8982C44.2878 24.6491 45.1217 23.9344 45.1217 21.9492V7.49642C45.1217 5.51115 44.2878 4.79646 42.8982 4.79646Z" fill="white"/>
</g>
</svg>
