<svg width="95" height="135" viewBox="0 0 95 135" fill="none" xmlns="http://www.w3.org/2000/svg">
<path d="M17.5523 3.0133H76.7846C77.6212 3.0133 78.288 2.34658 78.288 1.50992C78.288 0.673254 77.6212 0.00653482 76.7846 0.00653482L17.5523 0C16.7156 0 16.0489 0.666718 16.0489 1.50338C16.0423 2.34658 16.7156 3.0133 17.5523 3.0133Z" fill="black"/>
<path d="M50.3439 70.2789C51.3505 70.2789 52.1873 69.4422 52.1873 68.4356C52.1873 67.4289 51.3506 66.5922 50.3439 66.5922H43.984C42.9773 66.5922 42.1406 67.4289 42.1406 68.4356C42.1406 69.4422 42.9773 70.2789 43.984 70.2789H50.3439Z" fill="black"/>
<path d="M33.6104 95.0456H60.8872C52.3506 88.6856 51.5139 71.1154 51.5139 71.1154H42.9838C42.9838 71.1154 42.147 88.6853 33.6104 95.0456Z" fill="black"/>
<path d="M24.75 123.159H69.5967L69.5902 96.2153H24.7502L24.75 123.159ZM31.7766 103.25H62.5624V115.97L31.7766 115.963V103.25Z" fill="black"/>
<path d="M21.7354 124.329H72.601V134.199H21.7354V124.329Z" fill="black"/>
<path d="M91.3405 10.7133C89.4972 8.86995 86.8239 8.03328 83.9806 8.03328C81.4706 8.03328 78.7906 9.03989 76.4506 10.7133C76.6206 6.52997 76.4506 3.84998 76.4506 3.84998H17.7136C17.7136 3.84998 17.5437 6.52997 17.7136 10.7133C15.3737 9.03996 12.8637 8.03328 10.1837 8.03328C7.34037 8.03328 4.66037 9.03989 2.82373 10.7133C0.313748 13.2233 -0.522914 16.9032 0.313748 21.7599C1.48377 28.6232 5.16371 35.1465 10.3537 39.8335C13.197 42.3434 16.3803 44.3501 19.387 46.1934C22.5636 48.2001 25.4136 50.0434 27.9236 52.2201C31.7736 58.41 36.7935 63.6 43.8202 66.11L47.1668 66.0969H50.1801C57.2067 63.5869 62.3967 58.567 66.0767 52.207C68.5867 49.867 71.6 48.0237 74.6133 46.1804C77.6267 44.337 80.8033 42.3304 83.6466 39.8204C88.8366 35.1337 92.5166 28.7738 93.6865 21.7468C94.6866 16.9034 93.687 13.0534 91.3405 10.7133ZM21.8976 42.5064C18.8843 40.6631 15.871 38.8265 13.531 36.6498C9.01436 32.6365 6.00104 27.1132 4.83105 21.0865C4.49769 19.2432 4.16433 15.7333 6.00107 13.8899C7.00768 12.8833 8.51106 12.3865 10.1844 12.3865C13.0277 12.3865 16.5443 14.5632 18.2177 17.2365C18.8844 24.9365 20.5576 34.9771 24.0743 43.839C23.4076 43.5056 22.7343 43.0097 21.8976 42.5064ZM89.5032 21.0862C88.4966 27.1129 85.3199 32.6295 80.8033 36.6495C78.2933 38.8261 75.45 40.6628 72.4367 42.5061C71.77 43.0094 70.9333 43.3428 70.26 43.8461C73.7767 34.8128 75.45 24.9358 76.1166 17.2436C77.79 14.5636 81.1366 12.3936 84.1499 12.3936C85.8233 12.3936 87.4966 12.8969 88.3332 13.897C90.1701 15.5638 89.8366 19.0796 89.5032 21.0862Z" fill="black"/>
</svg>
