<svg width="247" height="130" viewBox="0 0 247 130" fill="none" xmlns="http://www.w3.org/2000/svg">
<path d="M186.187 125.12C181.217 125.12 177.076 124.434 173.762 123.061C170.496 121.641 168.035 119.819 166.378 117.594C164.769 115.322 163.917 112.932 163.822 110.423C163.822 109.997 163.964 109.642 164.248 109.358C164.532 109.074 164.887 108.932 165.313 108.932H176.602C177.265 108.932 177.786 109.05 178.164 109.287C178.543 109.476 178.945 109.76 179.371 110.139C179.797 110.66 180.294 111.157 180.862 111.63C181.43 112.056 182.164 112.411 183.063 112.695C183.963 112.932 185.004 113.05 186.187 113.05C188.365 113.05 190.045 112.766 191.228 112.198C192.412 111.583 193.003 110.754 193.003 109.713C193.003 108.908 192.672 108.246 192.009 107.725C191.394 107.204 190.329 106.731 188.814 106.305C187.3 105.879 185.241 105.429 182.637 104.956C178.993 104.341 175.845 103.441 173.194 102.258C170.544 101.027 168.508 99.3943 167.088 97.359C165.716 95.2763 165.029 92.7203 165.029 89.691C165.029 86.6143 165.881 83.8927 167.585 81.526C169.337 79.1593 171.751 77.3133 174.827 75.988C177.951 74.6627 181.572 74 185.69 74C189.098 74 192.104 74.4497 194.707 75.349C197.358 76.2483 199.583 77.4317 201.381 78.899C203.18 80.319 204.553 81.8573 205.499 83.514C206.446 85.1707 206.943 86.7563 206.99 88.271C206.99 88.697 206.825 89.0757 206.493 89.407C206.209 89.691 205.878 89.833 205.499 89.833H193.642C193.074 89.833 192.601 89.7383 192.222 89.549C191.844 89.3597 191.465 89.052 191.086 88.626C190.85 87.9633 190.258 87.3717 189.311 86.851C188.365 86.3303 187.158 86.07 185.69 86.07C184.081 86.07 182.85 86.354 181.998 86.922C181.146 87.4427 180.72 88.2237 180.72 89.265C180.72 89.975 180.981 90.5903 181.501 91.111C182.022 91.6317 182.945 92.105 184.27 92.531C185.596 92.9097 187.442 93.3357 189.808 93.809C194.305 94.4717 197.926 95.4183 200.671 96.649C203.464 97.8797 205.499 99.489 206.777 101.477C208.055 103.465 208.694 105.95 208.694 108.932C208.694 112.293 207.724 115.18 205.783 117.594C203.843 120.008 201.168 121.878 197.76 123.203C194.4 124.481 190.542 125.12 186.187 125.12Z" fill="black"/>
<path d="M146.749 93.738C146.323 93.738 145.967 93.596 145.683 93.312C145.399 93.028 145.281 92.602 145.329 92.034L147.672 76.627C147.766 75.9643 148.05 75.3727 148.524 74.852C148.997 74.284 149.66 74 150.512 74H160.31C160.736 74 161.091 74.142 161.375 74.426C161.659 74.71 161.801 75.065 161.801 75.491C161.801 75.7277 161.777 75.9407 161.73 76.13L155.624 91.608C155.434 92.0813 155.126 92.5547 154.7 93.028C154.322 93.5013 153.707 93.738 152.855 93.738H146.749Z" fill="black"/>
<path d="M127.254 129.025C126.449 129.025 125.834 128.812 125.408 128.386C124.982 128.007 124.651 127.676 124.414 127.392L122.213 124.552C120.651 124.931 118.923 125.12 117.03 125.12C112.533 125.12 108.605 124.41 105.244 122.99C101.883 121.57 99.2563 119.44 97.363 116.6C95.4696 113.713 94.4283 110.139 94.239 105.879C94.1916 103.891 94.168 101.856 94.168 99.773C94.168 97.643 94.1916 95.5367 94.239 93.454C94.4283 89.2413 95.4696 85.6913 97.363 82.804C99.2563 79.9167 101.883 77.7393 105.244 76.272C108.605 74.7573 112.533 74 117.03 74C121.479 74 125.384 74.7573 128.745 76.272C132.106 77.7393 134.756 79.9167 136.697 82.804C138.638 85.6913 139.679 89.2413 139.821 93.454C139.916 95.5367 139.963 97.643 139.963 99.773C139.963 101.856 139.916 103.891 139.821 105.879C139.537 111.464 137.809 115.866 134.638 119.085L140.105 126.824C140.152 126.871 140.2 126.966 140.247 127.108C140.294 127.25 140.318 127.368 140.318 127.463C140.365 127.889 140.223 128.244 139.892 128.528C139.608 128.859 139.277 129.025 138.898 129.025H127.254ZM117.03 113.05C119.065 113.05 120.698 112.458 121.929 111.275C123.207 110.044 123.893 108.104 123.988 105.453C124.083 103.418 124.13 101.453 124.13 99.56C124.13 97.6193 124.083 95.655 123.988 93.667C123.893 91.9157 123.538 90.472 122.923 89.336C122.355 88.2 121.55 87.3717 120.509 86.851C119.515 86.3303 118.355 86.07 117.03 86.07C115.705 86.07 114.521 86.3303 113.48 86.851C112.486 87.3717 111.681 88.2 111.066 89.336C110.451 90.472 110.119 91.9157 110.072 93.667C110.025 95.655 110.001 97.6193 110.001 99.56C110.001 101.453 110.025 103.418 110.072 105.453C110.167 108.104 110.829 110.044 112.06 111.275C113.338 112.458 114.995 113.05 117.03 113.05Z" fill="black"/>
<path d="M42.0027 124.41C41.5767 124.41 41.2217 124.268 40.9377 123.984C40.6537 123.653 40.5117 123.274 40.5117 122.848C40.5117 122.659 40.5354 122.493 40.5827 122.351L56.7707 76.911C56.9601 76.3903 57.2914 75.8933 57.7647 75.42C58.2381 74.9466 58.9007 74.71 59.7527 74.71H72.7457C73.6451 74.71 74.3314 74.9466 74.8047 75.42C75.2781 75.8933 75.5857 76.3903 75.7277 76.911L91.9867 122.351C92.0341 122.493 92.0577 122.659 92.0577 122.848C92.0577 123.274 91.8921 123.653 91.5607 123.984C91.2767 124.268 90.9217 124.41 90.4957 124.41H79.5617C78.7571 124.41 78.1654 124.221 77.7867 123.842C77.4081 123.463 77.1477 123.108 77.0057 122.777L74.8047 116.813H57.6937L55.4927 122.777C55.3507 123.108 55.0904 123.463 54.7117 123.842C54.3804 124.221 53.7887 124.41 52.9367 124.41H42.0027ZM60.9597 104.814H71.5387L66.2137 88.839L60.9597 104.814Z" fill="black"/>
<path d="M4.24834 124.41C3.77501 124.41 3.34901 124.244 2.97034 123.913C2.59168 123.534 2.40234 123.085 2.40234 122.564V76.556C2.40234 76.0353 2.59168 75.6093 2.97034 75.278C3.34901 74.8993 3.77501 74.71 4.24834 74.71H38.4703C38.991 74.71 39.4407 74.8993 39.8193 75.278C40.198 75.6093 40.3873 76.0353 40.3873 76.556V85.573C40.3873 86.0463 40.198 86.4723 39.8193 86.851C39.4407 87.2296 38.991 87.419 38.4703 87.419H17.3833V95.229H37.0503C37.571 95.229 38.0207 95.4183 38.3993 95.797C38.778 96.1283 38.9673 96.5543 38.9673 97.075V106.021C38.9673 106.542 38.778 106.991 38.3993 107.37C38.0207 107.701 37.571 107.867 37.0503 107.867H17.3833V122.564C17.3833 123.085 17.194 123.534 16.8153 123.913C16.484 124.244 16.058 124.41 15.5373 124.41H4.24834Z" fill="black"/>
<path d="M193.284 52.6201L193.307 52.6436L193.332 52.6655C193.9 53.1623 194.586 53.41 195.34 53.41H205.99C206.743 53.41 207.434 53.1606 207.975 52.6201C208.535 52.0599 208.836 51.3582 208.836 50.564V31.3359L213.357 39.2729L213.367 39.2907L213.378 39.308C213.662 39.762 214.02 40.1991 214.442 40.6211C215.05 41.2297 215.85 41.482 216.711 41.482H221.042C221.928 41.482 222.761 41.2423 223.382 40.6211C223.804 40.1991 224.162 39.762 224.446 39.308L224.457 39.2907L224.467 39.2729L228.988 31.3359V50.564C228.988 51.3176 229.235 52.0037 229.732 52.5715L229.776 52.6216L229.826 52.6655C230.394 53.1623 231.08 53.41 231.834 53.41H242.484C243.237 53.41 243.928 53.1606 244.469 52.6201C245.029 52.0599 245.33 51.3582 245.33 50.564V4.55596C245.33 3.78052 245.041 3.0932 244.47 2.56983C243.947 1.99858 243.259 1.70996 242.484 1.70996H233.041C232.006 1.70996 231.054 2.00228 230.381 2.751L230.381 2.751C229.957 3.22153 229.644 3.58396 229.472 3.81395L229.435 3.86252L229.405 3.91514L218.912 22.1472L208.419 3.91514L208.388 3.86252L208.352 3.81396C208.179 3.58396 207.867 3.2215 207.443 2.751L207.443 2.751C206.769 2.00229 205.818 1.70996 204.783 1.70996H195.34C194.557 1.70996 193.863 2.00238 193.307 2.54777C192.72 3.07383 192.423 3.76958 192.423 4.55596V50.564C192.423 51.3582 192.724 52.0599 193.284 52.6201Z" stroke="black" stroke-width="2"/>
<path d="M146.898 52.6201L146.922 52.6436L146.947 52.6655C147.495 53.1454 148.151 53.41 148.883 53.41H184.241C184.995 53.41 185.681 53.1624 186.249 52.6655L186.274 52.6436L186.297 52.6201C186.857 52.0598 187.158 51.3582 187.158 50.564V42.257C187.158 41.4627 186.857 40.7611 186.297 40.2009C185.737 39.6406 185.035 39.34 184.241 39.34H162.734V34.169H182.111C182.865 34.169 183.551 33.9214 184.119 33.4245L184.144 33.4026L184.167 33.3791C184.727 32.8189 185.028 32.1172 185.028 31.323V23.655C185.028 22.8686 184.731 22.1728 184.144 21.6468C183.588 21.1014 182.894 20.809 182.111 20.809H162.734V15.78H183.673C184.467 15.78 185.169 15.4793 185.729 14.9191C186.269 14.3797 186.59 13.7082 186.59 12.934V4.55596C186.59 3.76958 186.293 3.07381 185.706 2.54776C185.15 2.00238 184.456 1.70996 183.673 1.70996H148.883C148.12 1.70996 147.457 2.02239 146.921 2.54791C146.334 3.07395 146.037 3.76965 146.037 4.55596V50.564C146.037 51.3582 146.338 52.0599 146.898 52.6201Z" stroke="black" stroke-width="2"/>
<path d="M96.6988 52.6201L96.7223 52.6436L96.7474 52.6655C97.2959 53.1454 97.9522 53.41 98.6839 53.41H110.257C111.01 53.41 111.701 53.1606 112.242 52.6201C112.802 52.0599 113.103 51.3582 113.103 50.564V36.867H116.589L123.397 50.8924C123.617 51.4469 124.029 51.9762 124.531 52.4781L124.549 52.4967L124.569 52.5143C125.289 53.1627 126.252 53.41 127.297 53.41H139.296C139.969 53.41 140.584 53.1749 141.068 52.6911L141.095 52.6639L141.12 52.6348C141.555 52.127 141.787 51.519 141.787 50.848C141.787 50.4123 141.657 49.9974 141.468 49.6197L141.459 49.6019L141.45 49.5845L132.694 33.6886C134.902 32.3376 136.722 30.5696 138.145 28.3908C139.785 25.8793 140.58 22.8639 140.58 19.395C140.58 13.8768 138.625 9.47877 134.667 6.33121C130.788 3.20926 125.498 1.70996 118.919 1.70996H98.6839C97.9207 1.70996 97.2573 2.02239 96.7219 2.54791C96.1347 3.07396 95.8379 3.76966 95.8379 4.55596V50.564C95.8379 51.3582 96.1386 52.0599 96.6988 52.6201ZM121.744 16.309L121.753 16.3207L121.763 16.3322C122.407 17.1283 122.747 18.1062 122.747 19.324C122.747 20.4808 122.415 21.4005 121.786 22.1453C121.234 22.7571 120.323 23.152 118.848 23.152H113.103V15.212H118.848C120.362 15.212 121.24 15.6463 121.744 16.309Z" stroke="black" stroke-width="2"/>
<path d="M54.4431 51.9092L54.4478 51.9111C57.9579 53.3943 62.0481 54.12 66.694 54.12C71.2926 54.12 75.3365 53.3943 78.8004 51.9102C82.3266 50.4198 85.1119 48.1692 87.1209 45.1564C89.1857 42.0838 90.2655 38.3208 90.4132 33.9196C90.5085 31.9172 90.556 29.8684 90.556 27.773C90.556 25.6321 90.5085 23.5144 90.4135 21.4199C90.3139 17.0619 89.257 13.32 87.191 10.2462C85.1393 7.19365 82.3373 4.89711 78.8146 3.35792C75.3021 1.77589 71.254 1 66.694 1C62.0885 1 58.0163 1.77531 54.5025 3.3579C50.9798 4.89708 48.1778 7.19364 46.1261 10.2462L46.126 10.2461L46.1198 10.2556C44.1058 13.327 43.0504 17.0649 42.9036 21.4203L42.9035 21.4203L42.9033 21.4313C42.8558 23.5217 42.832 25.6356 42.832 27.773C42.832 29.8632 42.8558 31.9065 42.9033 33.9028L42.9033 33.9028L42.9036 33.9123C43.0503 38.3128 44.1047 42.0753 46.1198 45.1484L46.125 45.1563L46.1304 45.1642C48.1836 48.1689 50.9639 50.418 54.4431 51.9092ZM72.5821 33.4065L72.5815 33.4208L72.5812 33.4351C72.5364 35.9445 71.9122 37.5747 70.9063 38.548C69.8405 39.5315 68.4643 40.05 66.694 40.05C64.8735 40.05 63.4784 39.5297 62.4178 38.5545C61.4483 37.5757 60.8262 35.935 60.7356 33.4234C60.6886 31.3975 60.665 29.4431 60.665 27.56C60.665 25.6282 60.6886 23.6725 60.7357 21.6929C60.7804 20.0444 61.0679 18.7615 61.5462 17.7978C62.0739 16.8294 62.7575 16.1623 63.5912 15.7454C64.4756 15.3032 65.5023 15.07 66.694 15.07C67.887 15.07 68.882 15.3036 69.709 15.7368L69.7174 15.7412L69.7258 15.7454C70.5558 16.1604 71.2121 16.8221 71.6926 17.7832L71.6999 17.7979L71.7077 17.8123C72.2264 18.7698 72.5369 20.0466 72.5814 21.694L72.5817 21.7043L72.5822 21.7146C72.6761 23.6871 72.723 25.6356 72.723 27.56C72.723 29.4367 72.6761 31.3855 72.5821 33.4065Z" stroke="black" stroke-width="2"/>
<path d="M2.26324 52.6201L2.28678 52.6436L2.31184 52.6655C2.86031 53.1455 3.51669 53.41 4.24834 53.41H38.4703C39.224 53.41 39.9101 53.1624 40.4779 52.6655L40.5029 52.6436L40.5265 52.6201C41.0867 52.0599 41.3873 51.3582 41.3873 50.564V41.618C41.3873 40.8316 41.0905 40.1359 40.5032 39.6098C39.9468 39.0644 39.2536 38.772 38.4703 38.772H18.9513V4.55596C18.9513 3.7696 18.6545 3.07384 18.0671 2.54778C17.5108 2.00238 16.8176 1.70996 16.0343 1.70996H4.24834C3.48514 1.70996 2.82177 2.02239 2.2864 2.54791C1.69911 3.07396 1.40234 3.76967 1.40234 4.55596V50.564C1.40234 51.3582 1.70302 52.0599 2.26324 52.6201Z" stroke="black" stroke-width="2"/>
</svg>
