<svg width="345" height="125" viewBox="0 0 345 125" fill="none" xmlns="http://www.w3.org/2000/svg">
<path d="M322.581 124.4C317.681 124.4 313.598 123.723 310.331 122.37C307.111 120.97 304.685 119.173 303.051 116.98C301.465 114.74 300.625 112.383 300.531 109.91C300.531 109.49 300.671 109.14 300.951 108.86C301.231 108.58 301.581 108.44 302.001 108.44H313.131C313.785 108.44 314.298 108.557 314.671 108.79C315.045 108.977 315.441 109.257 315.861 109.63C316.281 110.143 316.771 110.633 317.331 111.1C317.891 111.52 318.615 111.87 319.501 112.15C320.388 112.383 321.415 112.5 322.581 112.5C324.728 112.5 326.385 112.22 327.551 111.66C328.718 111.053 329.301 110.237 329.301 109.21C329.301 108.417 328.975 107.763 328.321 107.25C327.715 106.737 326.665 106.27 325.171 105.85C323.678 105.43 321.648 104.987 319.081 104.52C315.488 103.913 312.385 103.027 309.771 101.86C307.158 100.647 305.151 99.0367 303.751 97.03C302.398 94.9767 301.721 92.4567 301.721 89.47C301.721 86.4367 302.561 83.7533 304.241 81.42C305.968 79.0867 308.348 77.2667 311.381 75.96C314.461 74.6533 318.031 74 322.091 74C325.451 74 328.415 74.4433 330.981 75.33C333.595 76.2167 335.788 77.3833 337.561 78.83C339.335 80.23 340.688 81.7467 341.621 83.38C342.555 85.0133 343.045 86.5767 343.091 88.07C343.091 88.49 342.928 88.8633 342.601 89.19C342.321 89.47 341.995 89.61 341.621 89.61H329.931C329.371 89.61 328.905 89.5167 328.531 89.33C328.158 89.1433 327.785 88.84 327.411 88.42C327.178 87.7667 326.595 87.1833 325.661 86.67C324.728 86.1567 323.538 85.9 322.091 85.9C320.505 85.9 319.291 86.18 318.451 86.74C317.611 87.2533 317.191 88.0233 317.191 89.05C317.191 89.75 317.448 90.3567 317.961 90.87C318.475 91.3833 319.385 91.85 320.691 92.27C321.998 92.6433 323.818 93.0633 326.151 93.53C330.585 94.1833 334.155 95.1167 336.861 96.33C339.615 97.5433 341.621 99.13 342.881 101.09C344.141 103.05 344.771 105.5 344.771 108.44C344.771 111.753 343.815 114.6 341.901 116.98C339.988 119.36 337.351 121.203 333.991 122.51C330.678 123.77 326.875 124.4 322.581 124.4Z" fill="black"/>
<path d="M255.519 123.7C255.053 123.7 254.633 123.537 254.259 123.21C253.886 122.837 253.699 122.393 253.699 121.88V76.52C253.699 76.0066 253.886 75.5866 254.259 75.2599C254.633 74.8866 255.053 74.7 255.519 74.7H275.469C281.816 74.7 286.786 76.1466 290.379 79.0399C294.019 81.9333 295.839 85.9699 295.839 91.1499C295.839 94.4166 295.093 97.1933 293.599 99.4799C292.106 101.767 290.146 103.563 287.719 104.87L296.819 121.39C296.959 121.67 297.029 121.927 297.029 122.16C297.029 122.58 296.889 122.953 296.609 123.28C296.329 123.56 295.979 123.7 295.559 123.7H283.729C282.843 123.7 282.166 123.49 281.699 123.07C281.233 122.603 280.929 122.183 280.789 121.81L273.789 107.39H268.749V121.88C268.749 122.393 268.563 122.837 268.189 123.21C267.863 123.537 267.443 123.7 266.929 123.7H255.519ZM268.749 95.84H275.399C277.033 95.84 278.246 95.3966 279.039 94.5099C279.833 93.5766 280.229 92.4333 280.229 91.0799C280.229 89.6799 279.833 88.4899 279.039 87.5099C278.293 86.5299 277.079 86.0399 275.399 86.0399H268.749V95.84Z" fill="black"/>
<path d="M223.979 124.4C219.499 124.4 215.603 123.7 212.289 122.3C209.023 120.9 206.433 118.8 204.519 116C202.653 113.153 201.649 109.63 201.509 105.43C201.463 103.47 201.439 101.463 201.439 99.41C201.439 97.31 201.463 95.2333 201.509 93.18C201.649 89.0267 202.653 85.5267 204.519 82.68C206.433 79.8333 209.046 77.6867 212.359 76.24C215.673 74.7467 219.546 74 223.979 74C228.366 74 232.216 74.7467 235.529 76.24C238.843 77.6867 241.456 79.8333 243.369 82.68C245.283 85.5267 246.286 89.0267 246.379 93.18C246.473 95.2333 246.519 97.31 246.519 99.41C246.519 101.463 246.473 103.47 246.379 105.43C246.239 109.63 245.213 113.153 243.299 116C241.433 118.8 238.843 120.9 235.529 122.3C232.263 123.7 228.413 124.4 223.979 124.4ZM223.979 112.5C225.939 112.5 227.549 111.917 228.809 110.75C230.069 109.537 230.723 107.623 230.769 105.01C230.863 103.003 230.909 101.067 230.909 99.2C230.909 97.2867 230.863 95.35 230.769 93.39C230.723 91.6633 230.396 90.24 229.789 89.12C229.229 88 228.436 87.1833 227.409 86.67C226.429 86.1567 225.286 85.9 223.979 85.9C222.673 85.9 221.506 86.1567 220.479 86.67C219.453 87.1833 218.636 88 218.029 89.12C217.469 90.24 217.166 91.6633 217.119 93.39C217.073 95.35 217.049 97.2867 217.049 99.2C217.049 101.067 217.073 103.003 217.119 105.01C217.213 107.623 217.866 109.537 219.079 110.75C220.339 111.917 221.973 112.5 223.979 112.5Z" fill="black"/>
<path d="M170.461 123.7C169.948 123.7 169.505 123.537 169.131 123.21C168.805 122.837 168.641 122.393 168.641 121.88V87.7199H156.601C156.088 87.7199 155.645 87.5566 155.271 87.2299C154.945 86.8566 154.781 86.4133 154.781 85.8999V76.52C154.781 76.0066 154.945 75.5866 155.271 75.2599C155.645 74.8866 156.088 74.7 156.601 74.7H195.941C196.455 74.7 196.875 74.8866 197.201 75.2599C197.575 75.5866 197.761 76.0066 197.761 76.52V85.8999C197.761 86.4133 197.575 86.8566 197.201 87.2299C196.875 87.5566 196.455 87.7199 195.941 87.7199H183.901V121.88C183.901 122.393 183.715 122.837 183.341 123.21C183.015 123.537 182.595 123.7 182.081 123.7H170.461Z" fill="black"/>
<path d="M108.478 123.7C108.012 123.7 107.592 123.537 107.218 123.21C106.845 122.837 106.658 122.393 106.658 121.88V76.52C106.658 76.0066 106.845 75.5866 107.218 75.2599C107.592 74.8866 108.012 74.7 108.478 74.7H117.788C118.628 74.7 119.235 74.8866 119.608 75.2599C119.982 75.6333 120.238 75.9366 120.378 76.17L134.798 99.34V76.52C134.798 76.0066 134.985 75.5866 135.358 75.2599C135.732 74.8866 136.175 74.7 136.688 74.7H147.188C147.702 74.7 148.122 74.8866 148.448 75.2599C148.822 75.5866 149.008 76.0066 149.008 76.52V121.88C149.008 122.393 148.822 122.837 148.448 123.21C148.122 123.537 147.702 123.7 147.188 123.7H137.948C137.108 123.7 136.478 123.513 136.058 123.14C135.685 122.72 135.428 122.417 135.288 122.23L120.868 100.32V121.88C120.868 122.393 120.682 122.837 120.308 123.21C119.982 123.537 119.562 123.7 119.048 123.7H108.478Z" fill="black"/>
<path d="M62.7458 123.7C62.2791 123.7 61.8591 123.537 61.4858 123.21C61.1124 122.837 60.9258 122.393 60.9258 121.88V76.52C60.9258 76.0066 61.1124 75.5866 61.4858 75.2599C61.8591 74.8866 62.2791 74.7 62.7458 74.7H97.0458C97.5591 74.7 98.0024 74.8866 98.3758 75.2599C98.7491 75.5866 98.9358 76.0066 98.9358 76.52V84.7799C98.9358 85.2466 98.7491 85.6666 98.3758 86.0399C98.0024 86.4133 97.5591 86.6 97.0458 86.6H75.4158V93.53H95.5058C96.0191 93.53 96.4624 93.7166 96.8358 94.09C97.2091 94.4166 97.3958 94.8366 97.3958 95.35V102.91C97.3958 103.423 97.2091 103.867 96.8358 104.24C96.4624 104.567 96.0191 104.73 95.5058 104.73H75.4158V111.8H97.6058C98.1191 111.8 98.5624 111.987 98.9358 112.36C99.3091 112.733 99.4958 113.177 99.4958 113.69V121.88C99.4958 122.393 99.3091 122.837 98.9358 123.21C98.5624 123.537 98.1191 123.7 97.6058 123.7H62.7458Z" fill="black"/>
<path d="M3.89 123.7C3.37667 123.7 2.93333 123.537 2.56 123.21C2.18667 122.837 2 122.393 2 121.88V76.52C2 76.0066 2.18667 75.5866 2.56 75.2599C2.93333 74.8866 3.37667 74.7 3.89 74.7H13.2C14.04 74.7 14.67 74.9333 15.09 75.3999C15.51 75.8666 15.79 76.1933 15.93 76.3799L27.13 95.84L38.33 76.3799C38.47 76.1933 38.75 75.8666 39.17 75.3999C39.59 74.9333 40.22 74.7 41.06 74.7H50.37C50.8833 74.7 51.3033 74.8866 51.63 75.2599C52.0033 75.5866 52.19 76.0066 52.19 76.52V121.88C52.19 122.393 52.0033 122.837 51.63 123.21C51.3033 123.537 50.8833 123.7 50.37 123.7H39.87C39.3567 123.7 38.9133 123.537 38.54 123.21C38.2133 122.837 38.05 122.393 38.05 121.88V99.2L31.75 110.26C31.5167 110.633 31.2133 111.007 30.84 111.38C30.4667 111.753 29.93 111.94 29.23 111.94H24.96C24.3067 111.94 23.7933 111.753 23.42 111.38C23.0467 111.007 22.7433 110.633 22.51 110.26L16.21 99.2V121.88C16.21 122.393 16.0233 122.837 15.65 123.21C15.3233 123.537 14.9033 123.7 14.39 123.7H3.89Z" fill="black"/>
<path d="M190.183 51.9171L190.207 51.9406L190.232 51.9625C190.794 52.4547 191.474 52.7 192.22 52.7H202.72C203.466 52.7 204.151 52.4529 204.687 51.9171C205.242 51.3622 205.54 50.6668 205.54 49.88V30.9759L209.971 38.7549L209.981 38.7726L209.992 38.79C210.273 39.2387 210.626 39.6705 211.043 40.0871C211.646 40.6904 212.438 40.94 213.29 40.94H217.56C218.436 40.94 219.261 40.7029 219.877 40.0871C220.294 39.6704 220.648 39.2387 220.928 38.79L220.939 38.7726L220.949 38.7549L225.38 30.9759V49.88C225.38 50.6263 225.625 51.306 226.118 51.8685L226.161 51.9186L226.212 51.9625C226.774 52.4547 227.454 52.7 228.2 52.7H238.7C239.446 52.7 240.131 52.4529 240.667 51.9171C241.222 51.3622 241.52 50.6668 241.52 49.88V4.51995C241.52 3.75185 241.234 3.07054 240.668 2.55181C240.149 1.9859 239.468 1.69995 238.7 1.69995H229.39C228.367 1.69995 227.425 1.98895 226.757 2.73098C226.339 3.19482 226.031 3.55261 225.86 3.77995L225.824 3.82851L225.793 3.88113L215.46 21.8352L205.127 3.88113L205.097 3.82851L205.06 3.77995C204.89 3.55262 204.581 3.19484 204.163 2.73099L204.163 2.73099C203.496 1.98894 202.553 1.69995 201.53 1.69995H192.22C191.444 1.69995 190.757 1.9897 190.206 2.52977C189.624 3.05117 189.33 3.74092 189.33 4.51995V49.88C189.33 50.6668 189.628 51.3622 190.183 51.9171Z" stroke="black" stroke-width="2"/>
<path d="M144.451 51.9171L144.474 51.9406L144.499 51.9625C145.042 52.4378 145.693 52.7 146.418 52.7H181.278C182.024 52.7 182.704 52.4547 183.266 51.9625L183.291 51.9406L183.315 51.9171C183.87 51.3622 184.168 50.6668 184.168 49.88V41.69C184.168 40.9031 183.87 40.2077 183.315 39.6528C182.76 39.098 182.065 38.8 181.278 38.8H160.088V33.73H179.178C179.924 33.73 180.604 33.4847 181.166 32.9925L181.191 32.9706L181.215 32.9471C181.77 32.3922 182.068 31.6968 182.068 30.91V23.35C182.068 22.5709 181.774 21.8812 181.191 21.3598C180.64 20.8197 179.954 20.53 179.178 20.53H160.088V15.6H180.718C181.505 15.6 182.2 15.3019 182.755 14.7471C183.289 14.2131 183.608 13.5476 183.608 12.78V4.51995C183.608 3.74089 183.313 3.05114 182.731 2.52975C182.18 1.9897 181.494 1.69995 180.718 1.69995H146.418C145.661 1.69995 145.004 2.0097 144.474 2.52991C143.892 3.05129 143.598 3.74099 143.598 4.51995V49.88C143.598 50.6668 143.896 51.3622 144.451 51.9171Z" stroke="black" stroke-width="2"/>
<path d="M94.9584 51.9171L94.9819 51.9406L95.007 51.9625C95.5501 52.4378 96.2005 52.7 96.9255 52.7H108.335C109.082 52.7 109.767 52.4529 110.303 51.9171C110.857 51.3622 111.155 50.6668 111.155 49.88V36.39H114.569L121.278 50.2094C121.495 50.7586 121.903 51.2818 122.398 51.7771L122.417 51.7957L122.437 51.8133C123.15 52.4557 124.103 52.7 125.135 52.7H136.965C137.633 52.7 138.243 52.4669 138.723 51.9871L138.75 51.9599L138.775 51.9308C139.206 51.4277 139.435 50.825 139.435 50.16C139.435 49.7277 139.307 49.3164 139.12 48.9427L139.111 48.9249L139.101 48.9075L130.475 33.2472C132.649 31.9151 134.441 30.1729 135.843 28.0267C137.462 25.5479 138.245 22.5722 138.245 19.15C138.245 13.7057 136.316 9.36521 132.41 6.25897C128.583 3.17851 123.364 1.69995 116.875 1.69995H96.9255C96.1689 1.69995 95.5116 2.0097 94.9815 2.52991C94.3996 3.05129 94.1055 3.74099 94.1055 4.51995V49.88C94.1055 50.6668 94.4035 51.3622 94.9584 51.9171ZM119.65 16.116L119.659 16.1277L119.668 16.1392C120.301 16.9213 120.635 17.8821 120.635 19.08C120.635 20.2174 120.31 21.1208 119.692 21.8523C119.15 22.4515 118.257 22.84 116.805 22.84H111.155V15.04H116.805C118.295 15.04 119.156 15.4672 119.65 16.116Z" stroke="black" stroke-width="2"/>
<path d="M53.3018 51.2192L53.3065 51.2211C56.7692 52.6843 60.8038 53.4 65.3857 53.4C69.9209 53.4 73.9098 52.6843 77.3271 51.2202C80.806 49.7498 83.5543 47.5292 85.5366 44.5564C87.574 41.5245 88.6392 37.8118 88.7849 33.4705C88.8788 31.4962 88.9257 29.476 88.9257 27.41C88.9257 25.2991 88.8789 23.211 88.7852 21.1459C88.6869 16.8472 87.6444 13.1553 85.6057 10.1222C83.5813 7.11032 80.8167 4.84444 77.3413 3.32592C73.8761 1.76522 69.883 1 65.3857 1C60.8435 1 56.8266 1.76465 53.3602 3.3259C49.8848 4.84442 47.1201 7.1103 45.0958 10.1222L45.0957 10.1221L45.0895 10.1316C43.1021 13.1623 42.0611 16.8502 41.9163 21.1463L41.9162 21.1463L41.916 21.1573C41.8691 23.2184 41.8457 25.3026 41.8457 27.41C41.8457 29.4709 41.8691 31.4855 41.916 33.4538L41.9159 33.4538L41.9163 33.4633C42.0609 37.8038 43.101 41.5159 45.0895 44.5484L45.0947 44.5563L45.1001 44.5642C47.1259 47.5289 49.8692 49.748 53.3018 51.2192ZM71.1768 32.9635L71.1761 32.9778L71.1759 32.9921C71.1317 35.4641 70.5169 37.067 69.529 38.023C68.4811 38.9898 67.128 39.5 65.3857 39.5C63.5939 39.5 62.2221 38.988 61.1795 38.0295C60.2273 37.068 59.6146 35.4547 59.5253 32.9804C59.4789 30.9832 59.4557 29.0564 59.4557 27.2C59.4557 25.2955 59.4789 23.3675 59.5254 21.4159C59.5694 19.7921 59.8525 18.5295 60.3229 17.5818C60.8419 16.6294 61.5139 15.974 62.3329 15.5644C63.2026 15.1296 64.2127 14.9 65.3857 14.9C66.56 14.9 67.5387 15.13 68.3517 15.5558L68.3601 15.5602L68.3685 15.5644C69.1838 15.9721 69.8287 16.6221 70.3013 17.5672L70.3086 17.5819L70.3164 17.5963C70.8264 18.5378 71.1322 19.7943 71.1761 21.417L71.1764 21.4273L71.1768 21.4376C71.2694 23.3821 71.3157 25.3029 71.3157 27.2C71.3157 29.0501 71.2695 30.9712 71.1768 32.9635Z" stroke="black" stroke-width="2"/>
<path d="M1.85289 51.9171L1.87644 51.9406L1.90149 51.9625C2.44463 52.4378 3.09501 52.7 3.82 52.7H37.56C38.3063 52.7 38.9861 52.4547 39.5485 51.9625L39.5736 51.9406L39.5971 51.9171C40.152 51.3622 40.45 50.6668 40.45 49.88V41.06C40.45 40.2809 40.1559 39.5912 39.5738 39.0698C39.0228 38.5297 38.3359 38.24 37.56 38.24H18.33V4.51995C18.33 3.74091 18.0359 3.05116 17.4538 2.52976C16.9028 1.9897 16.2159 1.69995 15.44 1.69995H3.82C3.06347 1.69995 2.40611 2.0097 1.87605 2.52991C1.2941 3.05129 1 3.74099 1 4.51995V49.88C1 50.6669 1.29801 51.3622 1.85289 51.9171Z" stroke="black" stroke-width="2"/>
</svg>
