<svg width="468" height="122" viewBox="0 0 468 122" fill="none" xmlns="http://www.w3.org/2000/svg">
<path d="M445.756 121.8C440.946 121.8 436.981 121.15 433.861 119.85C430.741 118.55 428.401 116.838 426.841 114.715C425.281 112.592 424.458 110.338 424.371 107.955C424.371 107.565 424.501 107.24 424.761 106.98C425.064 106.677 425.411 106.525 425.801 106.525H438.151C438.844 106.525 439.364 106.633 439.711 106.85C440.101 107.023 440.513 107.283 440.946 107.63C441.379 107.933 441.813 108.215 442.246 108.475C442.723 108.692 443.243 108.865 443.806 108.995C444.413 109.082 445.063 109.125 445.756 109.125C447.229 109.125 448.399 108.973 449.266 108.67C450.176 108.323 450.631 107.868 450.631 107.305C450.631 106.785 450.371 106.352 449.851 106.005C449.374 105.658 448.529 105.355 447.316 105.095C446.103 104.792 444.413 104.51 442.246 104.25C438.823 103.773 435.854 102.972 433.341 101.845C430.828 100.718 428.878 99.18 427.491 97.23C426.148 95.2367 425.476 92.81 425.476 89.95C425.476 87.0033 426.299 84.4033 427.946 82.15C429.636 79.8967 431.954 78.1417 434.901 76.885C437.891 75.6283 441.358 75 445.301 75C448.551 75 451.433 75.4333 453.946 76.3C456.459 77.1233 458.583 78.2283 460.316 79.615C462.049 80.9583 463.371 82.41 464.281 83.97C465.191 85.53 465.668 87.025 465.711 88.455C465.711 88.845 465.559 89.1917 465.256 89.495C464.996 89.755 464.693 89.885 464.346 89.885H451.346C450.739 89.885 450.241 89.7983 449.851 89.625C449.504 89.4517 449.136 89.1917 448.746 88.845C448.529 88.6283 448.118 88.39 447.511 88.13C446.948 87.8267 446.211 87.675 445.301 87.675C444.218 87.675 443.416 87.8483 442.896 88.195C442.419 88.4983 442.181 88.9317 442.181 89.495C442.181 89.885 442.376 90.2533 442.766 90.6C443.156 90.9467 443.871 91.25 444.911 91.51C445.951 91.77 447.446 92.03 449.396 92.29C453.729 92.81 457.196 93.655 459.796 94.825C462.439 95.9517 464.346 97.4683 465.516 99.375C466.729 101.282 467.336 103.643 467.336 106.46C467.336 109.623 466.383 112.353 464.476 114.65C462.613 116.947 460.056 118.723 456.806 119.98C453.556 121.193 449.873 121.8 445.756 121.8Z" fill="black"/>
<path d="M392.858 121.15C392.381 121.15 391.969 120.977 391.623 120.63C391.276 120.283 391.103 119.872 391.103 119.395V89.6249H380.313C379.836 89.6249 379.424 89.4516 379.078 89.1049C378.731 88.7582 378.558 88.3466 378.558 87.8699V77.4049C378.558 76.9282 378.731 76.5166 379.078 76.1699C379.424 75.8232 379.836 75.6499 380.313 75.6499H418.403C418.879 75.6499 419.291 75.8232 419.638 76.1699C419.984 76.5166 420.158 76.9282 420.158 77.4049V87.8699C420.158 88.3466 419.984 88.7582 419.638 89.1049C419.291 89.4516 418.879 89.6249 418.403 89.6249H407.613V119.395C407.613 119.872 407.439 120.283 407.093 120.63C406.746 120.977 406.334 121.15 405.858 121.15H392.858Z" fill="black"/>
<path d="M332.717 121.15C332.24 121.15 331.829 120.977 331.482 120.63C331.135 120.283 330.962 119.872 330.962 119.395V77.4049C330.962 76.9282 331.135 76.5166 331.482 76.1699C331.829 75.8232 332.24 75.6499 332.717 75.6499H342.987C343.854 75.6499 344.482 75.8449 344.872 76.2349C345.262 76.6249 345.522 76.9282 345.652 77.1449L356.637 95.1499V77.4049C356.637 76.9282 356.81 76.5166 357.157 76.1699C357.504 75.8232 357.915 75.6499 358.392 75.6499H370.157C370.634 75.6499 371.045 75.8232 371.392 76.1699C371.739 76.5166 371.912 76.9282 371.912 77.4049V119.395C371.912 119.872 371.739 120.283 371.392 120.63C371.045 120.977 370.634 121.15 370.157 121.15H359.887C359.02 121.15 358.392 120.955 358.002 120.565C357.612 120.132 357.352 119.828 357.222 119.655L346.237 103.08V119.395C346.237 119.872 346.064 120.283 345.717 120.63C345.37 120.977 344.959 121.15 344.482 121.15H332.717Z" fill="black"/>
<path d="M287.413 121.15C286.937 121.15 286.525 120.977 286.178 120.63C285.832 120.283 285.658 119.872 285.658 119.395V77.4049C285.658 76.9282 285.832 76.5166 286.178 76.1699C286.525 75.8232 286.937 75.6499 287.413 75.6499H320.758C321.235 75.6499 321.647 75.8232 321.993 76.1699C322.34 76.5166 322.513 76.9282 322.513 77.4049V86.5699C322.513 87.0466 322.34 87.4582 321.993 87.8049C321.647 88.1516 321.235 88.3249 320.758 88.3249H301.258V92.4199H319.328C319.805 92.4199 320.217 92.5932 320.563 92.9399C320.91 93.2866 321.083 93.6982 321.083 94.1749V102.625C321.083 103.102 320.91 103.513 320.563 103.86C320.217 104.207 319.805 104.38 319.328 104.38H301.258V108.475H321.278C321.755 108.475 322.167 108.648 322.513 108.995C322.86 109.342 323.033 109.753 323.033 110.23V119.395C323.033 119.872 322.86 120.283 322.513 120.63C322.167 120.977 321.755 121.15 321.278 121.15H287.413Z" fill="black"/>
<path d="M229.794 121.15C229.317 121.15 228.906 120.977 228.559 120.63C228.212 120.283 228.039 119.872 228.039 119.395V77.4049C228.039 76.9282 228.212 76.5166 228.559 76.1699C228.906 75.8232 229.317 75.6499 229.794 75.6499H240.064C240.931 75.6499 241.581 75.8882 242.014 76.3649C242.447 76.8416 242.729 77.1882 242.859 77.4049L252.284 93.0049L261.709 77.4049C261.839 77.1882 262.121 76.8416 262.554 76.3649C262.987 75.8882 263.637 75.6499 264.504 75.6499H274.774C275.251 75.6499 275.662 75.8232 276.009 76.1699C276.356 76.5166 276.529 76.9282 276.529 77.4049V119.395C276.529 119.872 276.356 120.283 276.009 120.63C275.662 120.977 275.251 121.15 274.774 121.15H263.009C262.532 121.15 262.121 120.977 261.774 120.63C261.427 120.283 261.254 119.872 261.254 119.395V101.585L256.964 108.605C256.747 108.952 256.444 109.32 256.054 109.71C255.707 110.057 255.209 110.23 254.559 110.23H250.009C249.359 110.23 248.839 110.057 248.449 109.71C248.102 109.32 247.821 108.952 247.604 108.605L243.314 101.585V119.395C243.314 119.872 243.141 120.283 242.794 120.63C242.447 120.977 242.036 121.15 241.559 121.15H229.794Z" fill="black"/>
<path d="M184.489 121.15C184.013 121.15 183.601 120.977 183.254 120.63C182.908 120.283 182.734 119.872 182.734 119.395V77.4049C182.734 76.9282 182.908 76.5166 183.254 76.1699C183.601 75.8232 184.013 75.6499 184.489 75.6499H217.834C218.311 75.6499 218.723 75.8232 219.069 76.1699C219.416 76.5166 219.589 76.9282 219.589 77.4049V86.5699C219.589 87.0466 219.416 87.4582 219.069 87.8049C218.723 88.1516 218.311 88.3249 217.834 88.3249H198.334V92.4199H216.404C216.881 92.4199 217.293 92.5932 217.639 92.9399C217.986 93.2866 218.159 93.6982 218.159 94.1749V102.625C218.159 103.102 217.986 103.513 217.639 103.86C217.293 104.207 216.881 104.38 216.404 104.38H198.334V108.475H218.354C218.831 108.475 219.243 108.648 219.589 108.995C219.936 109.342 220.109 109.753 220.109 110.23V119.395C220.109 119.872 219.936 120.283 219.589 120.63C219.243 120.977 218.831 121.15 218.354 121.15H184.489Z" fill="black"/>
<path d="M148.816 121.15C148.339 121.15 147.927 120.977 147.581 120.63C147.234 120.283 147.061 119.872 147.061 119.395V89.6249H136.271C135.794 89.6249 135.382 89.4516 135.036 89.1049C134.689 88.7582 134.516 88.3466 134.516 87.8699V77.4049C134.516 76.9282 134.689 76.5166 135.036 76.1699C135.382 75.8232 135.794 75.6499 136.271 75.6499H174.361C174.837 75.6499 175.249 75.8232 175.596 76.1699C175.942 76.5166 176.116 76.9282 176.116 77.4049V87.8699C176.116 88.3466 175.942 88.7582 175.596 89.1049C175.249 89.4516 174.837 89.6249 174.361 89.6249H163.571V119.395C163.571 119.872 163.397 120.283 163.051 120.63C162.704 120.977 162.292 121.15 161.816 121.15H148.816Z" fill="black"/>
<path d="M88.3304 121.15C87.9404 121.15 87.5937 121.02 87.2904 120.76C87.0304 120.457 86.9004 120.11 86.9004 119.72C86.9004 119.547 86.9221 119.395 86.9654 119.265L101.46 77.7949C101.59 77.3182 101.894 76.8416 102.37 76.3649C102.847 75.8882 103.519 75.6499 104.385 75.6499H118.49C119.357 75.6499 120.029 75.8882 120.505 76.3649C120.982 76.8416 121.285 77.3182 121.415 77.7949L135.91 119.265C135.954 119.395 135.975 119.547 135.975 119.72C135.975 120.11 135.824 120.457 135.52 120.76C135.26 121.02 134.935 121.15 134.545 121.15H122.52C121.697 121.15 121.09 120.977 120.7 120.63C120.354 120.24 120.115 119.872 119.985 119.525L118.425 115.235H104.45L102.89 119.525C102.76 119.872 102.522 120.24 102.175 120.63C101.829 120.977 101.222 121.15 100.355 121.15H88.3304ZM107.765 102.56H115.11L111.405 90.4699L107.765 102.56Z" fill="black"/>
<path d="M61.0627 121.15C60.586 121.15 60.1744 120.977 59.8277 120.63C59.481 120.283 59.3077 119.872 59.3077 119.395V89.6249H48.5177C48.041 89.6249 47.6294 89.4516 47.2827 89.1049C46.936 88.7582 46.7627 88.3466 46.7627 87.8699V77.4049C46.7627 76.9282 46.936 76.5166 47.2827 76.1699C47.6294 75.8232 48.041 75.6499 48.5177 75.6499H86.6077C87.0844 75.6499 87.496 75.8232 87.8427 76.1699C88.1894 76.5166 88.3627 76.9282 88.3627 77.4049V87.8699C88.3627 88.3466 88.1894 88.7582 87.8427 89.1049C87.496 89.4516 87.0844 89.6249 86.6077 89.6249H75.8177V119.395C75.8177 119.872 75.6444 120.283 75.2977 120.63C74.951 120.977 74.5394 121.15 74.0627 121.15H61.0627Z" fill="black"/>
<path d="M21.385 121.8C16.575 121.8 12.61 121.15 9.49 119.85C6.37 118.55 4.03 116.838 2.47 114.715C0.91 112.592 0.0866667 110.338 0 107.955C0 107.565 0.13 107.24 0.39 106.98C0.693333 106.677 1.04 106.525 1.43 106.525H13.78C14.4733 106.525 14.9933 106.633 15.34 106.85C15.73 107.023 16.1417 107.283 16.575 107.63C17.0083 107.933 17.4417 108.215 17.875 108.475C18.3517 108.692 18.8717 108.865 19.435 108.995C20.0417 109.082 20.6917 109.125 21.385 109.125C22.8583 109.125 24.0283 108.973 24.895 108.67C25.805 108.323 26.26 107.868 26.26 107.305C26.26 106.785 26 106.352 25.48 106.005C25.0033 105.658 24.1583 105.355 22.945 105.095C21.7317 104.792 20.0417 104.51 17.875 104.25C14.4517 103.773 11.4833 102.972 8.97 101.845C6.45667 100.718 4.50667 99.18 3.12 97.23C1.77667 95.2367 1.105 92.81 1.105 89.95C1.105 87.0033 1.92833 84.4033 3.575 82.15C5.265 79.8967 7.58333 78.1417 10.53 76.885C13.52 75.6283 16.9867 75 20.93 75C24.18 75 27.0617 75.4333 29.575 76.3C32.0883 77.1233 34.2117 78.2283 35.945 79.615C37.6783 80.9583 39 82.41 39.91 83.97C40.82 85.53 41.2967 87.025 41.34 88.455C41.34 88.845 41.1883 89.1917 40.885 89.495C40.625 89.755 40.3217 89.885 39.975 89.885H26.975C26.3683 89.885 25.87 89.7983 25.48 89.625C25.1333 89.4517 24.765 89.1917 24.375 88.845C24.1583 88.6283 23.7467 88.39 23.14 88.13C22.5767 87.8267 21.84 87.675 20.93 87.675C19.8467 87.675 19.045 87.8483 18.525 88.195C18.0483 88.4983 17.81 88.9317 17.81 89.495C17.81 89.885 18.005 90.2533 18.395 90.6C18.785 90.9467 19.5 91.25 20.54 91.51C21.58 91.77 23.075 92.03 25.025 92.29C29.3583 92.81 32.825 93.655 35.425 94.825C38.0683 95.9517 39.975 97.4683 41.145 99.375C42.3583 101.282 42.965 103.643 42.965 106.46C42.965 109.623 42.0117 112.353 40.105 114.65C38.2417 116.947 35.685 118.723 32.435 119.98C29.185 121.193 25.5017 121.8 21.385 121.8Z" fill="black"/>
<path d="M302.822 46.3949V32.139L305.259 36.1264L305.259 36.1264L305.264 36.1349C305.517 36.54 305.835 36.9532 306.209 37.3743L306.249 37.4182L306.293 37.4573C306.907 38.0039 307.684 38.2299 308.517 38.2299H313.067C313.893 38.2299 314.68 38.0062 315.269 37.417C315.695 36.9908 316.052 36.5636 316.32 36.1349L316.32 36.1349L316.325 36.1264L318.762 32.139V46.3949C318.762 47.1451 319.047 47.8088 319.575 48.337C320.103 48.8652 320.767 49.1499 321.517 49.1499H333.282C334.032 49.1499 334.696 48.8652 335.224 48.337C335.752 47.8088 336.037 47.1451 336.037 46.3949V4.4049C336.037 3.65469 335.752 2.99103 335.224 2.4628C334.696 1.93457 334.032 1.6499 333.282 1.6499H323.012C321.965 1.6499 321.004 1.94212 320.322 2.69223V2.69223C319.892 3.16479 319.548 3.57729 319.36 3.88906C319.36 3.88951 319.36 3.88996 319.359 3.8904L310.792 18.0711L302.224 3.8904C302.224 3.88987 302.224 3.88934 302.223 3.88881C302.036 3.57708 301.691 3.16466 301.262 2.69223C300.58 1.94213 299.619 1.6499 298.572 1.6499H288.302C287.552 1.6499 286.888 1.93458 286.36 2.4628L286.36 2.4628C285.832 2.99103 285.547 3.65469 285.547 4.4049V46.3949C285.547 47.1451 285.832 47.8088 286.36 48.337C286.888 48.8652 287.552 49.1499 288.302 49.1499H300.067C300.817 49.1499 301.481 48.8652 302.009 48.337C302.537 47.8088 302.822 47.1452 302.822 46.3949Z" stroke="black" stroke-width="2"/>
<path d="M257.842 18.4199V16.3249H276.342C277.092 16.3249 277.756 16.0402 278.284 15.512C278.813 14.9838 279.097 14.3201 279.097 13.5699V4.4049C279.097 3.65469 278.813 2.99103 278.284 2.4628C277.756 1.93457 277.092 1.6499 276.342 1.6499H242.997C242.247 1.6499 241.583 1.93458 241.055 2.4628L241.055 2.4628C240.527 2.99101 240.242 3.65467 240.242 4.4049V46.3949C240.242 47.1451 240.527 47.8088 241.055 48.337C241.583 48.8652 242.247 49.1499 242.997 49.1499H276.862C277.612 49.1499 278.276 48.8652 278.804 48.337C279.332 47.8088 279.617 47.1452 279.617 46.3949V37.2299C279.617 36.4796 279.332 35.816 278.804 35.2878C278.276 34.7596 277.612 34.4749 276.862 34.4749H257.842V32.3799H274.912C275.662 32.3799 276.326 32.0952 276.854 31.567C277.383 31.0388 277.667 30.3751 277.667 29.6249V21.1749C277.667 20.4247 277.383 19.761 276.854 19.2328C276.326 18.7046 275.662 18.4199 274.912 18.4199H257.842Z" stroke="black" stroke-width="2"/>
<path d="M198.416 2.4628L198.416 2.4628C197.888 2.99101 197.604 3.65467 197.604 4.4049V46.3949C197.604 47.1451 197.888 47.8088 198.416 48.337C198.945 48.8652 199.608 49.1499 200.359 49.1499H233.119C233.869 49.1499 234.532 48.8652 235.061 48.337C235.589 47.8088 235.874 47.1451 235.874 46.3949V36.5799C235.874 35.8297 235.589 35.166 235.061 34.6378C234.532 34.1096 233.869 33.8249 233.119 33.8249H216.114V4.4049C216.114 3.65467 215.829 2.99101 215.301 2.4628C214.772 1.93458 214.109 1.6499 213.359 1.6499H200.359C199.608 1.6499 198.945 1.93458 198.416 2.4628Z" stroke="black" stroke-width="2"/>
<path d="M148.732 2.4628L148.732 2.4628C148.204 2.99101 147.919 3.65467 147.919 4.4049V46.3949C147.919 47.1451 148.204 47.8088 148.732 48.337C149.26 48.8652 149.924 49.1499 150.674 49.1499H172.904C176.927 49.1499 180.372 48.6204 183.208 47.5233C186.095 46.4227 188.351 44.7482 189.913 42.4764L189.913 42.4765L189.918 42.4685C191.486 40.1407 192.234 37.2454 192.234 33.8499C192.234 31.4798 191.543 29.3448 190.16 27.4798C189.245 26.176 188.199 25.123 187.015 24.3426C187.324 24.0994 187.634 23.8299 187.946 23.5361C188.862 22.714 189.622 21.7098 190.233 20.5377C190.922 19.2549 191.259 17.8353 191.259 16.2999C191.259 13.1306 190.58 10.4174 189.153 8.22417C187.762 5.97415 185.622 4.33522 182.818 3.27673C180.019 2.17655 176.483 1.6499 172.254 1.6499H150.674C149.924 1.6499 149.26 1.93458 148.732 2.4628ZM172.649 35.3867L172.645 35.3932L172.641 35.3999C172.448 35.708 172.078 35.9699 171.214 35.9699H166.169V31.5999H171.214C171.951 31.5999 172.346 31.8372 172.6 32.2064L172.62 32.2363L172.643 32.2646C173.031 32.7501 173.204 33.2478 173.204 33.7849C173.204 34.2402 173.049 34.7691 172.649 35.3867ZM171.812 18.2802L171.807 18.2871L171.803 18.2941C171.654 18.5248 171.365 18.7449 170.629 18.7449H166.169V14.8299H170.629C171.335 14.8299 171.625 15.0505 171.786 15.3194L171.799 15.3398L171.812 15.3596C172.15 15.8669 172.294 16.3484 172.294 16.8199C172.294 17.2914 172.15 17.7729 171.812 18.2802Z" stroke="black" stroke-width="2"/>
<svg width="200" height="200" viewBox="0 0 200 200" xmlns="http://www.w3.org/2000/svg">
  <path d="M141.976 31.297C142.064 29.503 142.107 27.602 142.107 25.595C142.107 23.589 142.064 21.648 141.976 19.77C141.84 15.802 140.799 12.38 138.808 9.553C136.872 6.744 134.205 4.616 130.844 3.162C127.488 1.711 123.622 1 119.267 1C114.913 1 111.046 1.711 107.69 3.162C104.327 4.616 101.659 6.746 99.724 9.558C97.779 12.382 96.738 15.8 96.558 19.765C96.492 21.658 96.492 23.594 96.492 25.595C96.492 27.596 96.492 29.489 96.558 31.274C96.738 35.3 97.778 38.741 99.724 41.567C101.715 44.346 104.383 46.409 107.707 47.775C111.031 49.142 114.899 49.856 119.267 49.856C123.635 49.856 127.503 49.142 130.76 47.776C134.084 46.409 136.752 44.346 138.741 41.574C140.733 38.748 141.796 35.305 141.976 31.297ZM123.078 30.814C123.038 32.514 122.623 33.559 122.014 34.174C121.369 34.782 120.488 35.125 119.267 35.125C118.052 35.125 117.174 34.785 116.53 34.183C115.95 33.56 115.538 32.502 115.457 30.824C115.414 28.973 115.392 27.143 115.392 25.335C115.392 23.525 115.414 21.737 115.457 19.97C115.497 18.862 115.692 18.026 115.992 17.416C116.341 16.796 116.762 16.395 117.244 16.154C117.845 15.837 118.505 15.675 119.267 15.675C120.083 15.675 120.73 15.841 121.247 16.132C121.766 16.392 122.162 16.785 122.468 17.397C122.822 18.037 123.038 18.866 123.078 19.976C123.164 21.749 123.207 23.531 123.207 25.335C123.207 27.139 123.164 28.965 123.078 30.814Z" 
        stroke="black" 
        stroke-width="2" 
        fill="none" />
</svg>
<path d="M49.9984 2.4628L49.9984 2.4628C49.4702 2.99101 49.1855 3.65467 49.1855 4.4049V46.3949C49.1855 47.1451 49.4702 47.8088 49.9984 48.337C50.5267 48.8652 51.1903 49.1499 51.9405 49.1499H64.6805C65.4308 49.1499 66.0944 48.8652 66.6227 48.337C67.1509 47.8088 67.4355 47.1451 67.4355 46.3949V34.9799H68.4541L73.7755 46.7984C73.9829 47.2766 74.3719 47.7504 74.8284 48.207C75.5155 48.894 76.4647 49.1499 77.4855 49.1499H90.8105C91.4479 49.1499 92.0329 48.9268 92.4927 48.467C92.9629 47.9967 93.2405 47.4029 93.2405 46.7199C93.2405 46.3043 93.1168 45.9113 92.94 45.5577L92.933 45.5438L92.9256 45.5301L85.3596 31.5053C87.1807 30.1961 88.6974 28.5495 89.9071 26.5742C91.3605 24.2288 92.0705 21.5068 92.0705 18.4449C92.0705 13.2755 90.2008 9.11976 86.4314 6.09497C82.6863 3.08964 77.5613 1.6499 71.1805 1.6499H51.9405C51.1903 1.6499 50.5267 1.93458 49.9984 2.4628ZM72.5905 20.0549L72.5905 20.0549L72.5841 20.0635C72.3406 20.3956 71.9429 20.6299 71.1805 20.6299H67.4355V15.7399H71.1805C71.9928 15.7399 72.365 16.0061 72.5814 16.3955L72.5977 16.4249L72.616 16.4532C72.9893 17.0301 73.1705 17.6435 73.1705 18.3149C73.1705 18.9652 72.9807 19.5347 72.5905 20.0549Z" stroke="black" stroke-width="2"/>
<path d="M2.21817 2.4628L2.21817 2.4628C1.68995 2.99102 1.40527 3.65467 1.40527 4.4049V46.3949C1.40527 47.1451 1.68995 47.8088 2.21816 48.337C2.74639 48.8652 3.41005 49.1499 4.16027 49.1499H17.5503C18.3005 49.1499 18.9642 48.8652 19.4924 48.337C20.0206 47.8088 20.3053 47.1451 20.3053 46.3949V34.9799H23.8553C27.883 34.9799 31.4256 34.4492 34.4625 33.3613L34.4625 33.3614L34.4703 33.3585C37.5794 32.2154 40.0291 30.4341 41.7646 27.9953C43.5615 25.4879 44.4203 22.3222 44.4203 18.5749C44.4203 14.8297 43.5626 11.649 41.7742 9.10307C40.0464 6.53866 37.6026 4.66553 34.4907 3.47403C31.444 2.24776 27.891 1.6499 23.8553 1.6499H4.16027C3.41004 1.6499 2.74638 1.93458 2.21817 2.4628ZM24.9665 16.403L24.9755 16.422L24.9854 16.4406C25.353 17.1393 25.5203 17.8039 25.5203 18.4449C25.5203 19.5337 25.243 20.105 24.9038 20.4073C24.401 20.805 23.9488 20.9549 23.5303 20.9549H19.9803V15.7399H23.5303C24.4454 15.7399 24.7917 16.0339 24.9665 16.403Z" stroke="black" stroke-width="2"/>
</svg>
